<svg width="224" height="232" viewBox="0 0 224 232" fill="none" xmlns="http://www.w3.org/2000/svg">
<g opacity="0.4">
<rect x="0.000976562" y="91.8782" width="47.551" height="8.46247" fill="#050307"/>
<rect y="103.564" width="47.551" height="8.46247" fill="#050307"/>
<rect y="115.25" width="47.551" height="8.46247" fill="#050307"/>
<rect y="126.937" width="47.551" height="8.46247" fill="#050307"/>
<rect y="138.623" width="47.551" height="8.46247" fill="#050307"/>
<rect y="150.309" width="47.551" height="8.46247" fill="#050307"/>
<rect y="161.996" width="47.551" height="8.46247" fill="#050307"/>
<rect y="173.682" width="47.551" height="8.46247" fill="#050307"/>
<rect y="185.368" width="47.551" height="8.46247" fill="#050307"/>
<rect y="200" width="48" height="32" fill="#050307"/>
<rect x="119.28" y="91.8779" width="47.551" height="8.46247" fill="#050307"/>
<rect x="119.28" y="103.564" width="47.551" height="8.46247" fill="#050307"/>
<rect x="119.28" y="91.8779" width="47.551" height="8.46247" fill="#050307"/>
<rect x="119.28" y="80.1917" width="47.551" height="8.46247" fill="#050307"/>
<rect x="119.28" y="68.5054" width="47.551" height="8.46247" fill="#050307"/>
<rect x="119.28" y="56.8191" width="47.551" height="8.46247" fill="#050307"/>
<rect x="119.28" y="45.1329" width="47.551" height="8.46247" fill="#050307"/>
<rect x="119.28" y="34.2526" width="47.551" height="8.46247" fill="#050307"/>
<rect x="119.28" y="22.5663" width="47.551" height="8.46247" fill="#050307"/>
<rect x="119.28" y="10.88" width="47.551" height="8.46247" fill="#050307"/>
<rect x="119.28" width="47.551" height="8.46247" fill="#050307"/>
<rect x="119.28" y="115.25" width="47.551" height="8.46247" fill="#050307"/>
<rect x="119.28" y="126.937" width="47.551" height="8.46247" fill="#050307"/>
<rect x="119.28" y="138.623" width="47.551" height="8.46247" fill="#050307"/>
<rect x="119.28" y="150.309" width="47.551" height="8.46247" fill="#050307"/>
<rect x="119.28" y="161.995" width="47.551" height="8.46247" fill="#050307"/>
<rect x="119.28" y="173.682" width="47.551" height="8.46247" fill="#050307"/>
<rect x="119.28" y="185.368" width="47.551" height="8.46247" fill="#050307"/>
<rect x="119.28" y="197.054" width="47.551" height="8.46247" fill="#050307"/>
<rect x="118.999" y="209" width="48" height="16" fill="#050307"/>
<rect x="59.6406" y="91.8782" width="47.551" height="8.46247" fill="#050307"/>
<rect x="175.697" y="91.8782" width="47.551" height="8.46247" fill="#050307"/>
<rect x="59.6406" y="80.1919" width="47.551" height="8.46247" fill="#050307"/>
<rect x="175.697" y="80.1919" width="47.551" height="8.46247" fill="#050307"/>
<rect x="59.6406" y="68.5056" width="47.551" height="8.46247" fill="#050307"/>
<rect x="175.697" y="68.5056" width="47.551" height="8.46247" fill="#050307"/>
<rect x="59.6406" y="56.8195" width="47.551" height="8.46247" fill="#050307"/>
<rect x="175.697" y="56.8195" width="47.551" height="8.46247" fill="#050307"/>
<rect x="175.697" y="45.1332" width="47.551" height="8.46247" fill="#050307"/>
<rect x="175.699" y="34" width="47.551" height="8.46247" fill="#050307"/>
<rect x="59.6406" y="103.564" width="47.551" height="8.46247" fill="#050307"/>
<rect x="175.697" y="103.564" width="47.551" height="8.46247" fill="#050307"/>
<rect x="59.6406" y="115.251" width="47.551" height="8.46247" fill="#050307"/>
<rect x="175.697" y="115.251" width="47.551" height="8.46247" fill="#050307"/>
<rect x="59.6406" y="126.937" width="47.551" height="8.46247" fill="#050307"/>
<rect x="175.697" y="126.937" width="47.551" height="8.46247" fill="#050307"/>
<rect x="59.6406" y="138.623" width="47.551" height="8.46247" fill="#050307"/>
<rect x="175.697" y="138.623" width="47.551" height="8.46247" fill="#050307"/>
<rect x="59.6406" y="150.31" width="47.551" height="8.46247" fill="#050307"/>
<rect x="175.697" y="150.31" width="47.551" height="8.46247" fill="#050307"/>
<rect x="59.6406" y="161.996" width="47.551" height="8.46247" fill="#050307"/>
<rect x="175.697" y="161.996" width="47.551" height="8.46247" fill="#050307"/>
<rect x="59.6406" y="173.682" width="47.551" height="8.46247" fill="#050307"/>
<rect x="175.697" y="173.682" width="47.551" height="8.46247" fill="#050307"/>
<rect x="59.6406" y="185.368" width="47.551" height="8.46247" fill="#050307"/>
<rect x="175.697" y="185.368" width="47.551" height="8.46247" fill="#050307"/>
<rect x="59.6406" y="197.055" width="47.551" height="8.46247" fill="#050307"/>
<rect x="175.697" y="197.055" width="47.551" height="8.46247" fill="#050307"/>
<rect x="60" y="209" width="47" height="23" fill="#050307"/>
<rect x="175.697" y="208.741" width="47.551" height="8.46247" fill="#050307"/>
</g>
</svg>
