<svg width="139" height="59" viewBox="0 0 139 59" fill="none" xmlns="http://www.w3.org/2000/svg">
<text fill="white" xml:space="preserve" style="white-space: pre" font-family="Lobster" font-size="24" letter-spacing="0em"><tspan x="95.4468" y="33">Star</tspan></text>
<text fill="#3498DB" xml:space="preserve" style="white-space: pre" font-family="Lobster" font-size="24" letter-spacing="0em"><tspan x="56.0015" y="33">Dan</tspan></text>
<path d="M1.00146 26.7652V0H26.0015V57L1.00146 26.7652Z" fill="#09090B" stroke="black"/>
<path d="M55.0015 27V0H26.0015V57.5L55.0015 27Z" fill="black" stroke="black"/>
<path d="M10.0079 9.01795C10.0013 9.03072 10.0571 9.1279 10.13 9.23592C10.8695 10.3293 11.2401 10.9228 11.7411 11.8191C12.6963 13.5253 13.4311 15.1809 14.0429 16.9994C14.7385 19.0745 15.1323 20.9424 15.3042 22.9969C15.3905 24.0395 15.3957 25.333 15.3173 26.3979C15.1581 28.5447 14.6121 30.8239 13.7988 32.748C13.7414 32.884 13.689 33.0144 13.6841 33.0361L13.6718 33.0762L15.3423 33.9332C16.8013 34.6818 17.016 34.788 17.0349 34.7714C17.0775 34.7328 17.3525 33.5307 17.5301 32.6155C17.7012 31.7251 17.8656 30.5974 17.9612 29.6603C18.1182 28.1274 18.1529 26.3079 18.055 24.8278C17.8041 21.0991 16.8058 17.6848 15.0971 14.7188C13.8213 12.5032 12.1776 10.6132 10.3062 9.2033C10.0201 8.98997 10.0218 8.99081 10.0079 9.01795Z" fill="#3498DB"/>
<path d="M27.5875 20.9497C27.5678 20.9437 27.4867 20.9202 27.408 20.896C26.8204 20.7215 26.1606 20.8045 25.6411 21.1188C25.4158 21.2553 25.1864 21.4643 25.0275 21.6772C24.9365 21.802 24.7711 22.1245 24.7227 22.2711C24.432 23.1807 24.7626 24.147 25.5659 24.7406C25.6979 24.8386 26.0265 25.0012 26.2052 25.0565C27.0888 25.3324 28.0131 25.0645 28.5899 24.3641C29.0839 23.7645 29.196 22.8681 28.8696 22.1561C28.6859 21.7593 28.4473 21.4736 28.085 21.2111C27.99 21.1421 27.6605 20.969 27.5875 20.9497Z" fill="#3498DB"/>
<path d="M18.2337 16.3691C17.7224 16.1315 17.199 15.9342 16.6956 15.7811C16.3335 15.6697 15.756 15.522 15.7279 15.5323C15.6857 15.5478 15.7617 15.6054 16.1265 15.8452C18.0556 17.1167 19.7119 18.5083 20.8962 19.8527C23.2229 22.4953 24.0025 25.1677 23.134 27.5331C22.9696 27.9813 22.6161 28.6203 22.3344 28.9804C21.832 29.6204 21.3248 30.0753 20.6567 30.4879C20.3048 30.7067 20.0622 30.8237 19.4342 31.0804C18.3682 31.518 17.7885 31.8583 17.4694 32.2302C17.012 32.7602 17.377 33.2664 18.328 33.4199C18.7622 33.491 19.0366 33.4677 19.7021 33.3045C21.8119 32.7896 23.3678 31.8696 24.398 30.5345C25.4686 29.1427 25.8533 27.3866 25.5305 25.3418C25.4636 24.905 25.1494 23.7996 24.9636 23.3389C24.2977 21.6846 23.2547 20.165 21.8912 18.8586C21.1461 18.1482 20.1904 17.4256 19.4029 16.9813C18.7664 16.6207 18.6467 16.5593 18.2337 16.3691Z" fill="#3498DB"/>
<path d="M36.3102 21.1659C36.2905 21.1598 36.2094 21.1363 36.1307 21.1121C35.543 20.9376 34.8833 21.0207 34.3638 21.3349C34.1385 21.4714 33.909 21.6804 33.7501 21.8933C33.6592 22.0181 33.4937 22.3406 33.4454 22.4872C33.1547 23.3969 33.4852 24.3631 34.2885 24.9567C34.4205 25.0547 34.7492 25.2173 34.9279 25.2727C35.8114 25.5485 36.7358 25.2806 37.3126 24.5803C37.8066 23.9806 37.9186 23.0842 37.5922 22.3722C37.4086 21.9755 37.17 21.6897 36.8077 21.4272C36.7126 21.3582 36.3831 21.1851 36.3102 21.1659Z" fill="white"/>
<path d="M32.9318 22.443C32.6732 22.2671 32.3988 22.1189 32.1272 22.0019C31.9321 21.9167 31.6147 21.8018 31.5956 21.8084C31.5668 21.8182 31.6006 21.8598 31.7703 22.034C32.6669 22.9578 33.3737 23.959 33.8055 24.9172C34.6535 26.8008 34.5615 28.6717 33.5395 30.294C33.346 30.6014 32.9982 31.0372 32.7523 31.2809C32.3144 31.7141 31.9126 32.0188 31.4225 32.2907C31.1641 32.4349 30.993 32.5108 30.56 32.6754C29.8245 32.956 29.4031 33.1796 29.1322 33.4307C28.7446 33.7886 28.8584 34.1476 29.4 34.2746C29.6471 34.3333 29.8176 34.3231 30.2536 34.2242C31.6353 33.9124 32.768 33.3077 33.6707 32.4036C34.6098 31.4611 35.2116 30.251 35.4471 28.8254C35.4987 28.5209 35.5417 27.7472 35.5265 27.4236C35.4728 26.2615 35.1632 25.1847 34.6152 24.249C34.315 23.74 33.8903 23.2181 33.5085 22.8929C33.2003 22.629 33.141 22.5838 32.9318 22.443Z" fill="white"/>
<path d="M35.7444 14.3455C36.079 14.1897 36.4212 14.0597 36.7501 13.9583C36.9867 13.8845 37.3638 13.7861 37.3821 13.7925C37.4095 13.8023 37.3596 13.8397 37.1205 13.9961C35.856 14.8252 34.7684 15.7299 33.9888 16.6014C32.457 18.3146 31.9331 20.0376 32.4849 21.5535C32.5893 21.8407 32.8159 22.2495 32.9973 22.4793C33.3208 22.8879 33.6486 23.1774 34.0815 23.4387C34.3094 23.5773 34.4668 23.6511 34.8745 23.8124C35.5664 24.0874 35.9421 24.3028 36.1478 24.54C36.4427 24.8781 36.2018 25.2057 35.5813 25.3102C35.298 25.3584 35.1193 25.3451 34.6866 25.2442C33.315 24.9256 32.3067 24.3433 31.6434 23.491C30.9541 22.6024 30.7139 21.4755 30.9364 20.1587C30.9826 19.8774 31.1939 19.1647 31.3178 18.8674C31.7615 17.7997 32.4502 16.8163 33.3464 15.9682C33.8361 15.5069 34.4631 15.0366 34.9789 14.7462C35.3958 14.5105 35.4741 14.4703 35.7444 14.3455Z" fill="white"/>
</svg>
