<svg width="100" height="101" viewBox="0 0 100 101" fill="none" xmlns="http://www.w3.org/2000/svg">
<path d="M98.1953 50.79C97.3779 50.79 96.7153 50.1273 96.7153 49.31C96.7153 48.4926 97.3779 47.83 98.1953 47.83C99.0127 47.83 99.6753 48.4926 99.6753 49.31C99.6753 50.1273 99.0127 50.79 98.1953 50.79Z" fill="#FCEE21"/>
<path d="M94.3056 50.79C93.4883 50.79 92.8256 50.1273 92.8256 49.31C92.8256 48.4926 93.4883 47.83 94.3056 47.83C95.123 47.83 95.7856 48.4926 95.7856 49.31C95.7856 50.1273 95.123 50.79 94.3056 50.79Z" fill="#FCEE21"/>
<path d="M90.4053 50.79C89.5879 50.79 88.9253 50.1273 88.9253 49.31C88.9253 48.4926 89.5879 47.83 90.4053 47.83C91.2226 47.83 91.8853 48.4926 91.8853 49.31C91.8853 50.1273 91.2226 50.79 90.4053 50.79Z" fill="#FCEE21"/>
<path d="M96.3054 45.7108C96.24 44.8934 96.8496 44.1778 97.667 44.1124C98.4844 44.047 99.2 44.6566 99.2654 45.474C99.3308 46.2914 98.7212 47.007 97.9038 47.0724C97.0864 47.1378 96.3708 46.5282 96.3054 45.7108Z" fill="#FCEE21"/>
<path d="M92.5766 45.9508C92.5124 45.1359 93.121 44.4233 93.9359 44.3592C94.7507 44.2951 95.4633 44.9037 95.5274 45.7185C95.5916 46.5334 94.983 47.246 94.1681 47.3101C93.3533 47.3742 92.6407 46.7656 92.5766 45.9508Z" fill="#FCEE21"/>
<path d="M88.5344 46.2996C88.469 45.4823 89.0786 44.7666 89.896 44.7012C90.7134 44.6359 91.429 45.2455 91.4944 46.0628C91.5598 46.8802 90.9502 47.5959 90.1328 47.6612C89.3154 47.7266 88.5998 47.117 88.5344 46.2996Z" fill="#FCEE21"/>
<path d="M95.8942 42.0093C95.7664 41.202 96.3172 40.4439 97.1245 40.316C97.9318 40.1882 98.6899 40.739 98.8178 41.5463C98.9457 42.3536 98.3949 43.1117 97.5875 43.2396C96.7802 43.3674 96.0221 42.8166 95.8942 42.0093Z" fill="#FCEE21"/>
<path d="M92.0612 42.6205C91.9334 41.8132 92.4842 41.0551 93.2915 40.9272C94.0988 40.7994 94.8569 41.3502 94.9848 42.1575C95.1127 42.9648 94.5618 43.7229 93.7545 43.8508C92.9472 43.9787 92.1891 43.4278 92.0612 42.6205Z" fill="#FCEE21"/>
<path d="M88.2165 43.2233C88.0886 42.416 88.6394 41.6579 89.4468 41.53C90.2541 41.4021 91.0122 41.9529 91.1401 42.7603C91.2679 43.5676 90.7171 44.3257 89.9098 44.4536C89.1025 44.5814 88.3444 44.0306 88.2165 43.2233Z" fill="#FCEE21"/>
<path d="M95.0732 38.429C94.8823 37.6342 95.372 36.8352 96.1668 36.6444C96.9616 36.4536 97.7606 36.9432 97.9514 37.738C98.1422 38.5328 97.6526 39.3318 96.8578 39.5226C96.063 39.7134 95.264 39.2238 95.0732 38.429Z" fill="#CCCCCC"/>
<path d="M91.2836 39.3261C91.0928 38.5313 91.5824 37.7323 92.3772 37.5415C93.172 37.3507 93.971 37.8403 94.1618 38.6351C94.3526 39.4299 93.863 40.2289 93.0682 40.4197C92.2734 40.6105 91.4744 40.1209 91.2836 39.3261Z" fill="#CCCCCC"/>
<path d="M87.5058 40.2407C87.315 39.4459 87.8046 38.6469 88.5994 38.4561C89.3942 38.2652 90.1932 38.7549 90.384 39.5497C90.5748 40.3445 90.0852 41.1435 89.2904 41.3343C88.4956 41.5251 87.6966 41.0355 87.5058 40.2407Z" fill="#CCCCCC"/>
<path d="M93.9536 34.908C93.701 34.1306 94.1264 33.2957 94.9038 33.0431C95.6812 32.7905 96.5161 33.2159 96.7687 33.9933C97.0213 34.7707 96.5959 35.6056 95.8185 35.8582C95.0411 36.1108 94.2062 35.6854 93.9536 34.908Z" fill="#CCCCCC"/>
<path d="M90.2588 36.1199C90.0062 35.3425 90.4316 34.5076 91.209 34.255C91.9864 34.0024 92.8213 34.4279 93.0739 35.2052C93.3265 35.9826 92.9011 36.8176 92.1237 37.0701C91.3463 37.3227 90.5114 36.8973 90.2588 36.1199Z" fill="#CCCCCC"/>
<path d="M86.5644 37.3218C86.3119 36.5444 86.7373 35.7095 87.5147 35.4569C88.292 35.2043 89.127 35.6298 89.3796 36.4071C89.6322 37.1845 89.2067 38.0195 88.4294 38.272C87.652 38.5246 86.817 38.0992 86.5644 37.3218Z" fill="#CCCCCC"/>
<path d="M92.5744 31.5001C92.2616 30.745 92.6202 29.8792 93.3754 29.5664C94.1306 29.2536 94.9963 29.6122 95.3091 30.3674C95.6219 31.1226 95.2633 31.9883 94.5081 32.3011C93.753 32.6139 92.8872 32.2553 92.5744 31.5001Z" fill="#CCCCCC"/>
<path d="M88.9841 33.0036C88.6713 32.2484 89.0299 31.3826 89.7851 31.0698C90.5402 30.757 91.406 31.1157 91.7188 31.8708C92.0316 32.626 91.673 33.4917 90.9178 33.8045C90.1627 34.1173 89.2969 33.7587 88.9841 33.0036Z" fill="#CCCCCC"/>
<path d="M85.3899 34.4878C85.0771 33.7327 85.4357 32.8669 86.1908 32.5541C86.946 32.2413 87.8117 32.5999 88.1245 33.3551C88.4373 34.1102 88.0787 34.976 87.3236 35.2888C86.5684 35.6016 85.7027 35.243 85.3899 34.4878Z" fill="#CCCCCC"/>
<path d="M90.9407 28.2196C90.5696 27.4913 90.8592 26.6001 91.5875 26.229C92.3158 25.8579 93.207 26.1475 93.5781 26.8758C93.9492 27.6041 93.6596 28.4953 92.9313 28.8664C92.203 29.2374 91.3118 28.9479 90.9407 28.2196Z" fill="#CCCCCC"/>
<path d="M87.4685 29.9813C87.0975 29.253 87.387 28.3618 88.1153 27.9907C88.8436 27.6196 89.7348 27.9092 90.1059 28.6375C90.477 29.3658 90.1874 30.257 89.4591 30.6281C88.7309 30.9992 87.8396 30.7096 87.4685 29.9813Z" fill="#CCCCCC"/>
<path d="M83.9959 31.7431C83.6248 31.0148 83.9144 30.1236 84.6427 29.7525C85.371 29.3815 86.2622 29.671 86.6333 30.3993C87.0044 31.1276 86.7148 32.0188 85.9865 32.3899C85.2582 32.761 84.367 32.4714 83.9959 31.7431Z" fill="#CCCCCC"/>
<path d="M89.0344 25.0645C88.6073 24.3675 88.8261 23.4563 89.523 23.0293C90.22 22.6022 91.1312 22.8209 91.5582 23.5179C91.9853 24.2148 91.7666 25.126 91.0696 25.5531C90.3727 25.9802 89.4615 25.7614 89.0344 25.0645Z" fill="#CCCCCC"/>
<path d="M85.719 27.0944C85.2919 26.3974 85.5107 25.4863 86.2076 25.0592C86.9045 24.6321 87.8157 24.8509 88.2428 25.5478C88.6699 26.2447 88.4511 27.1559 87.7542 27.583C87.0573 28.0101 86.1461 27.7913 85.719 27.0944Z" fill="#CCCCCC"/>
<path d="M82.4002 29.1381C81.9731 28.4411 82.1918 27.53 82.8888 27.1029C83.5857 26.6758 84.4969 26.8946 84.924 27.5915C85.351 28.2884 85.1323 29.1996 84.4354 29.6267C83.7384 30.0538 82.8272 29.835 82.4002 29.1381Z" fill="#CCCCCC"/>
<path d="M86.8994 22.0747C86.419 21.4135 86.5656 20.4879 87.2269 20.0075C87.8881 19.527 88.8137 19.6736 89.2941 20.3349C89.7746 20.9962 89.628 21.9217 88.9667 22.4021C88.3054 22.8826 87.3799 22.736 86.8994 22.0747Z" fill="#CCCCCC"/>
<path d="M83.7452 24.3624C83.2647 23.7012 83.4113 22.7756 84.0726 22.2952C84.7339 21.8147 85.6594 21.9613 86.1398 22.6226C86.6203 23.2839 86.4737 24.2094 85.8124 24.6899C85.1511 25.1703 84.2256 25.0237 83.7452 24.3624Z" fill="#CCCCCC"/>
<path d="M80.5339 26.6847C80.0516 26.0226 80.1974 25.0949 80.8595 24.6127C81.5216 24.1304 82.4492 24.2762 82.9315 24.9383C83.4137 25.6004 83.268 26.528 82.6059 27.0103C81.9438 27.4925 81.0161 27.3468 80.5339 26.6847Z" fill="#CCCCCC"/>
<path d="M84.5273 19.2592C83.9964 18.6377 84.0699 17.7035 84.6915 17.1727C85.313 16.6418 86.2472 16.7153 86.7781 17.3369C87.3089 17.9584 87.2354 18.8926 86.6139 19.4235C85.9923 19.9543 85.0581 19.8808 84.5273 19.2592Z" fill="#CCCCCC"/>
<path d="M81.5712 21.7816C81.0404 21.16 81.1139 20.2258 81.7354 19.695C82.357 19.1642 83.2912 19.2377 83.822 19.8592C84.3529 20.4808 84.2793 21.415 83.6578 21.9458C83.0363 22.4766 82.1021 22.4031 81.5712 21.7816Z" fill="#CCCCCC"/>
<path d="M78.6049 24.3138C78.0741 23.6923 78.1476 22.7581 78.7691 22.2272C79.3907 21.6964 80.3249 21.7699 80.8557 22.3914C81.3866 23.013 81.313 23.9472 80.6915 24.478C80.07 25.0089 79.1358 24.9354 78.6049 24.3138Z" fill="#CCCCCC"/>
<path d="M81.9478 16.6387C81.3699 16.0607 81.3699 15.1236 81.9478 14.5456C82.5258 13.9677 83.4629 13.9677 84.0409 14.5456C84.6189 15.1236 84.6189 16.0607 84.0409 16.6387C83.4629 17.2167 82.5258 17.2167 81.9478 16.6387Z" fill="#CCCCCC"/>
<path d="M79.1915 19.3816C78.6135 18.8036 78.6135 17.8665 79.1915 17.2886C79.7695 16.7106 80.7066 16.7106 81.2845 17.2886C81.8625 17.8665 81.8625 18.8036 81.2845 19.3816C80.7066 19.9596 79.7695 19.9596 79.1915 19.3816Z" fill="#CCCCCC"/>
<path d="M76.4425 22.1316C75.8645 21.5536 75.8645 20.6165 76.4425 20.0386C77.0205 19.4606 77.9575 19.4606 78.5355 20.0386C79.1135 20.6165 79.1135 21.5536 78.5355 22.1316C77.9575 22.7096 77.0205 22.7096 76.4425 22.1316Z" fill="#CCCCCC"/>
<path d="M79.1598 14.2196C78.5382 13.6887 78.4647 12.7545 78.9955 12.133C79.5264 11.5114 80.4606 11.4379 81.0821 11.9687C81.7037 12.4996 81.7772 13.4338 81.2463 14.0553C80.7155 14.6769 79.7813 14.7504 79.1598 14.2196Z" fill="#CCCCCC"/>
<path d="M76.6339 17.1773C76.0123 16.6465 75.9388 15.7123 76.4697 15.0907C77.0005 14.4692 77.9347 14.3957 78.5562 14.9265C79.1778 15.4574 79.2513 16.3916 78.7205 17.0131C78.1896 17.6346 77.2554 17.7082 76.6339 17.1773Z" fill="#CCCCCC"/>
<path d="M74.1119 20.1339C73.4904 19.603 73.4168 18.6688 73.9477 18.0473C74.4785 17.4257 75.4127 17.3522 76.0343 17.8831C76.6558 18.4139 76.7293 19.3481 76.1985 19.9696C75.6676 20.5912 74.7334 20.6647 74.1119 20.1339Z" fill="#CCCCCC"/>
<path d="M76.2078 12.0342C75.5466 11.5537 75.4 10.6282 75.8804 9.9669C76.3609 9.30563 77.2864 9.15903 77.9477 9.63948C78.609 10.1199 78.7555 11.0455 78.2751 11.7067C77.7947 12.368 76.8691 12.5146 76.2078 12.0342Z" fill="#CCCCCC"/>
<path d="M73.857 15.1456C73.195 14.6634 73.0492 13.7357 73.5314 13.0736C74.0137 12.4115 74.9414 12.2658 75.6034 12.748C76.2655 13.2303 76.4113 14.1579 75.929 14.82C75.4468 15.4821 74.5191 15.6279 73.857 15.1456Z" fill="#CCCCCC"/>
<path d="M71.6278 18.3347C70.9665 17.8543 70.8199 16.9287 71.3003 16.2674C71.7808 15.6062 72.7063 15.4596 73.3676 15.94C74.0289 16.4205 74.1755 17.346 73.695 18.0073C73.2146 18.6686 72.289 18.8152 71.6278 18.3347Z" fill="#CCCCCC"/>
<path d="M73.086 10.0872C72.3891 9.66011 72.1703 8.74891 72.5974 8.05198C73.0245 7.35505 73.9357 7.13629 74.6326 7.56337C75.3296 7.99045 75.5483 8.90165 75.1212 9.59858C74.6942 10.2955 73.783 10.5143 73.086 10.0872Z" fill="#CCCCCC"/>
<path d="M71.0504 13.4173C70.3535 12.9902 70.1347 12.079 70.5618 11.3821C70.9889 10.6851 71.9 10.4664 72.597 10.8935C73.2939 11.3205 73.5127 12.2317 73.0856 12.9287C72.6585 13.6256 71.7473 13.8443 71.0504 13.4173Z" fill="#CCCCCC"/>
<path d="M69.0113 16.7237C68.3144 16.2966 68.0956 15.3854 68.5227 14.6885C68.9498 13.9915 69.861 13.7728 70.5579 14.1998C71.2548 14.6269 71.4736 15.5381 71.0465 16.2351C70.6194 16.932 69.7083 17.1507 69.0113 16.7237Z" fill="#CCCCCC"/>
<path d="M69.8145 8.39406C69.0863 8.02298 68.7967 7.13176 69.1678 6.40347C69.5388 5.67517 70.4301 5.3856 71.1584 5.75668C71.8867 6.12777 72.1762 7.01899 71.8051 7.74728C71.4341 8.47557 70.5428 8.76515 69.8145 8.39406Z" fill="#CCCCCC"/>
<path d="M68.0558 11.8579C67.3275 11.4868 67.0379 10.5956 67.409 9.86733C67.7801 9.13904 68.6713 8.84947 69.3996 9.22055C70.1279 9.59163 70.4174 10.4829 70.0464 11.2111C69.6753 11.9394 68.7841 12.229 68.0558 11.8579Z" fill="#CCCCCC"/>
<path d="M66.2833 15.3261C65.555 14.955 65.2654 14.0638 65.6365 13.3355C66.0076 12.6072 66.8988 12.3176 67.6271 12.6887C68.3554 13.0598 68.645 13.951 68.2739 14.6793C67.9028 15.4076 67.0116 15.6972 66.2833 15.3261Z" fill="#CCCCCC"/>
<path d="M66.4301 6.96189C65.6749 6.64909 65.3163 5.78334 65.6291 5.02818C65.9419 4.27302 66.8077 3.91441 67.5628 4.22721C68.318 4.54001 68.6766 5.40576 68.3638 6.16092C68.051 6.91608 67.1853 7.27469 66.4301 6.96189Z" fill="#CCCCCC"/>
<path d="M64.936 10.5576C64.1808 10.2448 63.8222 9.37904 64.135 8.62388C64.4478 7.86872 65.3135 7.51011 66.0687 7.82291C66.8239 8.13571 67.1825 9.00146 66.8697 9.75662C66.5569 10.5118 65.6911 10.8704 64.936 10.5576Z" fill="#CCCCCC"/>
<path d="M63.4555 14.1441C62.7003 13.8313 62.3417 12.9656 62.6545 12.2104C62.9673 11.4553 63.8331 11.0967 64.5882 11.4095C65.3434 11.7223 65.702 12.588 65.3892 13.3432C65.0764 14.0983 64.2106 14.4569 63.4555 14.1441Z" fill="#CCCCCC"/>
<path d="M62.936 5.80053C62.1587 5.54795 61.7332 4.713 61.9858 3.93562C62.2384 3.15825 63.0734 2.73282 63.8507 2.9854C64.6281 3.23799 65.0535 4.07294 64.801 4.85031C64.5484 5.62769 63.7134 6.05312 62.936 5.80053Z" fill="#CCCCCC"/>
<path d="M61.7417 9.49865C60.9643 9.24607 60.5389 8.41112 60.7915 7.63374C61.0441 6.85637 61.879 6.43094 62.6564 6.68352C63.4338 6.93611 63.8592 7.77106 63.6066 8.54843C63.354 9.32581 62.5191 9.75124 61.7417 9.49865Z" fill="#CCCCCC"/>
<path d="M60.5371 13.1966C59.7597 12.9441 59.3343 12.1091 59.5869 11.3317C59.8395 10.5544 60.6744 10.1289 61.4518 10.3815C62.2292 10.6341 62.6546 11.4691 62.402 12.2464C62.1494 13.0238 61.3145 13.4492 60.5371 13.1966Z" fill="#CCCCCC"/>
<path d="M59.3675 4.91235C58.5727 4.72154 58.083 3.92255 58.2738 3.12775C58.4647 2.33295 59.2637 1.84333 60.0585 2.03414C60.8532 2.22495 61.3429 3.02395 61.1521 3.81875C60.9612 4.61354 60.1623 5.10317 59.3675 4.91235Z" fill="#CCCCCC"/>
<path d="M58.4578 8.69519C57.663 8.50438 57.1734 7.70538 57.3642 6.91059C57.555 6.11579 58.354 5.62616 59.1488 5.81698C59.9436 6.00779 60.4332 6.80679 60.2424 7.60158C60.0516 8.39638 59.2526 8.886 58.4578 8.69519Z" fill="#CCCCCC"/>
<path d="M57.5506 12.4784C56.7558 12.2876 56.2661 11.4886 56.457 10.6938C56.6478 9.89899 57.4468 9.40937 58.2416 9.60018C59.0364 9.79099 59.526 10.59 59.3352 11.3848C59.1444 12.1796 58.3454 12.6692 57.5506 12.4784Z" fill="#CCCCCC"/>
<path d="M55.7324 4.3113C54.9251 4.18343 54.3743 3.42531 54.5021 2.618C54.63 1.81068 55.3881 1.25987 56.1954 1.38774C57.0028 1.51561 57.5536 2.27372 57.4257 3.08104C57.2978 3.88836 56.5397 4.43916 55.7324 4.3113Z" fill="#CCCCCC"/>
<path d="M55.1294 8.15016C54.3221 8.0223 53.7713 7.26418 53.8991 6.45686C54.027 5.64954 54.7851 5.09874 55.5924 5.22661C56.3997 5.35447 56.9505 6.11259 56.8227 6.91991C56.6948 7.72723 55.9367 8.27803 55.1294 8.15016Z" fill="#CCCCCC"/>
<path d="M54.5263 11.9874C53.719 11.8596 53.1682 11.1015 53.2961 10.2941C53.424 9.48682 54.1821 8.93602 54.9894 9.06389C55.7967 9.19175 56.3475 9.94987 56.2196 10.7572C56.0918 11.5645 55.3337 12.1153 54.5263 11.9874Z" fill="#CCCCCC"/>
<path d="M52.0662 3.99479C51.2514 3.93066 50.6428 3.21809 50.7069 2.40323C50.7711 1.58837 51.4836 0.979783 52.2985 1.04391C53.1133 1.10805 53.7219 1.82061 53.6578 2.63547C53.5937 3.45033 52.8811 4.05892 52.0662 3.99479Z" fill="#FCEE21"/>
<path d="M51.7728 7.87919C50.9579 7.81506 50.3493 7.10249 50.4135 6.28763C50.4776 5.47277 51.1902 4.86418 52.005 4.92831C52.8199 4.99245 53.4285 5.70501 53.3643 6.51987C53.3002 7.33473 52.5877 7.94332 51.7728 7.87919Z" fill="#FCEE21"/>
<path d="M51.4603 11.743C50.6454 11.6788 50.0368 10.9663 50.101 10.1514C50.1651 9.33654 50.8777 8.72795 51.6925 8.79208C52.5074 8.85621 53.116 9.56878 53.0518 10.3836C52.9877 11.1985 52.2752 11.8071 51.4603 11.743Z" fill="#FCEE21"/>
<path d="M48.3955 3.96C47.5781 3.96 46.9155 3.29738 46.9155 2.48C46.9155 1.66262 47.5781 1 48.3955 1C49.2129 1 49.8755 1.66262 49.8755 2.48C49.8755 3.29738 49.2129 3.96 48.3955 3.96Z" fill="#FCEE21"/>
<path d="M48.3955 7.85001C47.5781 7.85001 46.9155 7.1874 46.9155 6.37001C46.9155 5.55263 47.5781 4.89001 48.3955 4.89001C49.2129 4.89001 49.8755 5.55263 49.8755 6.37001C49.8755 7.1874 49.2129 7.85001 48.3955 7.85001Z" fill="#FCEE21"/>
<path d="M48.3955 11.75C47.5781 11.75 46.9155 11.0874 46.9155 10.27C46.9155 9.45266 47.5781 8.79004 48.3955 8.79004C49.2129 8.79004 49.8755 9.45266 49.8755 10.27C49.8755 11.0874 49.2129 11.75 48.3955 11.75Z" fill="#FCEE21"/>
<path d="M43.1347 2.86313C43.0705 2.04826 43.6791 1.3357 44.494 1.27157C45.3088 1.20744 46.0214 1.81602 46.0855 2.63089C46.1497 3.44575 45.5411 4.15831 44.7262 4.22244C43.9114 4.28657 43.1988 3.67799 43.1347 2.86313Z" fill="#FCEE21"/>
<path d="M43.4311 6.74667C43.3669 5.93181 43.9755 5.21924 44.7904 5.15511C45.6052 5.09098 46.3178 5.69957 46.3819 6.51443C46.4461 7.32929 45.8375 8.04186 45.0226 8.10599C44.2077 8.17012 43.4952 7.56153 43.4311 6.74667Z" fill="#FCEE21"/>
<path d="M43.7362 10.6202C43.6721 9.80534 44.2807 9.09278 45.0955 9.02865C45.9104 8.96452 46.623 9.5731 46.6871 10.388C46.7512 11.2028 46.1426 11.9154 45.3278 11.9795C44.5129 12.0437 43.8004 11.4351 43.7362 10.6202Z" fill="#FCEE21"/>
<path d="M39.3908 3.54704C39.263 2.73973 39.8138 1.98161 40.6211 1.85374C41.4284 1.72588 42.1865 2.27668 42.3144 3.084C42.4422 3.89132 41.8914 4.64943 41.0841 4.7773C40.2768 4.90517 39.5187 4.35436 39.3908 3.54704Z" fill="#FCEE21"/>
<path d="M40.0031 7.39031C39.8753 6.58299 40.4261 5.82487 41.2334 5.697C42.0407 5.56914 42.7988 6.11994 42.9267 6.92726C43.0545 7.73458 42.5037 8.49269 41.6964 8.62056C40.8891 8.74843 40.131 8.19762 40.0031 7.39031Z" fill="#FCEE21"/>
<path d="M40.6062 11.235C40.4783 10.4277 41.0291 9.66959 41.8364 9.54173C42.6437 9.41386 43.4018 9.96467 43.5297 10.772C43.6576 11.5793 43.1068 12.3374 42.2995 12.4653C41.4921 12.5932 40.734 12.0424 40.6062 11.235Z" fill="#FCEE21"/>
<path d="M35.7187 4.51056C35.5279 3.71576 36.0175 2.91677 36.8123 2.72595C37.6071 2.53514 38.4061 3.02476 38.5969 3.81956C38.7877 4.61436 38.2981 5.41335 37.5033 5.60417C36.7085 5.79498 35.9095 5.30536 35.7187 4.51056Z" fill="#FCEE21"/>
<path d="M36.6259 8.30023C36.4351 7.50543 36.9247 6.70644 37.7195 6.51562C38.5143 6.32481 39.3133 6.81444 39.5041 7.60923C39.6949 8.40403 39.2053 9.20303 38.4105 9.39384C37.6157 9.58465 36.8167 9.09503 36.6259 8.30023Z" fill="#FCEE21"/>
<path d="M37.5326 12.0775C37.3418 11.2827 37.8314 10.4837 38.6262 10.2928C39.421 10.102 40.22 10.5917 40.4108 11.3865C40.6017 12.1813 40.112 12.9802 39.3172 13.1711C38.5224 13.3619 37.7234 12.8722 37.5326 12.0775Z" fill="#FCEE21"/>
<path d="M32.1206 5.76629C31.868 4.98891 32.2934 4.15396 33.0708 3.90137C33.8482 3.64879 34.6831 4.07422 34.9357 4.8516C35.1883 5.62897 34.7629 6.46392 33.9855 6.7165C33.2081 6.96909 32.3732 6.54366 32.1206 5.76629Z" fill="#FCEE21"/>
<path d="M33.3325 9.46098C33.0799 8.6836 33.5054 7.84866 34.2827 7.59608C35.0601 7.34349 35.895 7.76891 36.1476 8.54629C36.4002 9.32367 35.9748 10.1586 35.1974 10.4112C34.42 10.6638 33.5851 10.2384 33.3325 9.46098Z" fill="#FCEE21"/>
<path d="M34.5371 13.1751C34.2845 12.3977 34.7099 11.5628 35.4873 11.3102C36.2647 11.0576 37.0996 11.483 37.3522 12.2604C37.6048 13.0378 37.1794 13.8727 36.402 14.1253C35.6246 14.3779 34.7897 13.9525 34.5371 13.1751Z" fill="#FCEE21"/>
<path d="M28.6467 7.29164C28.3339 6.53648 28.6925 5.67073 29.4477 5.35793C30.2028 5.04514 31.0686 5.40374 31.3814 6.1589C31.6942 6.91406 31.3356 7.77982 30.5804 8.09262C29.8253 8.40541 28.9595 8.04681 28.6467 7.29164Z" fill="#FCEE21"/>
<path d="M30.1399 10.8921C29.8271 10.137 30.1857 9.2712 30.9408 8.9584C31.696 8.6456 32.5617 9.00421 32.8745 9.75937C33.1873 10.5145 32.8287 11.3803 32.0736 11.6931C31.3184 12.0059 30.4527 11.6473 30.1399 10.8921Z" fill="#FCEE21"/>
<path d="M31.6242 14.4863C31.3114 13.7312 31.67 12.8654 32.4252 12.5526C33.1804 12.2398 34.0461 12.5984 34.3589 13.3536C34.6717 14.1088 34.3131 14.9745 33.558 15.2873C32.8028 15.6001 31.937 15.2415 31.6242 14.4863Z" fill="#FCEE21"/>
<path d="M25.3113 9.10251C24.9402 8.37422 25.2298 7.483 25.9581 7.11192C26.6864 6.74084 27.5776 7.03041 27.9487 7.7587C28.3198 8.48699 28.0302 9.37822 27.3019 9.7493C26.5736 10.1204 25.6824 9.8308 25.3113 9.10251Z" fill="#FCEE21"/>
<path d="M27.0686 12.556C26.6976 11.8277 26.9871 10.9365 27.7154 10.5654C28.4437 10.1943 29.3349 10.4839 29.706 11.2122C30.0771 11.9405 29.7875 12.8317 29.0592 13.2028C28.3309 13.5739 27.4397 13.2843 27.0686 12.556Z" fill="#FCEE21"/>
<path d="M28.8304 16.0284C28.4593 15.3001 28.7489 14.4089 29.4771 14.0378C30.2054 13.6667 31.0967 13.9563 31.4677 14.6846C31.8388 15.4129 31.5493 16.3041 30.821 16.6752C30.0927 17.0463 29.2014 16.7567 28.8304 16.0284Z" fill="#FCEE21"/>
<path d="M22.1038 11.1493C21.6767 10.4524 21.8954 9.54119 22.5924 9.11411C23.2893 8.68703 24.2005 8.90579 24.6276 9.60272C25.0547 10.2997 24.8359 11.2108 24.139 11.6379C23.442 12.065 22.5308 11.8462 22.1038 11.1493Z" fill="#FCEE21"/>
<path d="M24.1389 14.4734C23.7118 13.7765 23.9306 12.8653 24.6275 12.4382C25.3245 12.0111 26.2357 12.2299 26.6627 12.9268C27.0898 13.6237 26.8711 14.5349 26.1741 14.962C25.4772 15.3891 24.566 15.1703 24.1389 14.4734Z" fill="#FCEE21"/>
<path d="M26.1775 17.7837C25.7504 17.0868 25.9692 16.1756 26.6661 15.7485C27.363 15.3214 28.2742 15.5402 28.7013 16.2371C29.1284 16.9341 28.9096 17.8452 28.2127 18.2723C27.5158 18.6994 26.6046 18.4806 26.1775 17.7837Z" fill="#FCEE21"/>
<path d="M19.0796 13.4506C18.5992 12.7893 18.7458 11.8638 19.407 11.3833C20.0683 10.9029 20.9939 11.0495 21.4743 11.7107C21.9548 12.372 21.8082 13.2976 21.1469 13.778C20.4856 14.2584 19.5601 14.1119 19.0796 13.4506Z" fill="#FCEE21"/>
<path d="M21.3672 16.6048C20.8868 15.9435 21.0334 15.0179 21.6946 14.5375C22.3559 14.057 23.2815 14.2036 23.7619 14.8649C24.2424 15.5262 24.0958 16.4517 23.4345 16.9322C22.7732 17.4126 21.8477 17.266 21.3672 16.6048Z" fill="#FCEE21"/>
<path d="M23.6548 19.7489C23.1744 19.0876 23.321 18.1621 23.9822 17.6816C24.6435 17.2012 25.5691 17.3478 26.0495 18.0091C26.53 18.6703 26.3834 19.5959 25.7221 20.0763C25.0608 20.5568 24.1353 20.4102 23.6548 19.7489Z" fill="#FCEE21"/>
<path d="M16.2494 15.9851C15.7186 15.3635 15.7921 14.4293 16.4137 13.8985C17.0352 13.3676 17.9694 13.4412 18.5002 14.0627C19.0311 14.6842 18.9576 15.6184 18.336 16.1493C17.7145 16.6801 16.7803 16.6066 16.2494 15.9851Z" fill="#FCEE21"/>
<path d="M18.7753 18.9436C18.2445 18.322 18.318 17.3878 18.9395 16.857C19.5611 16.3261 20.4953 16.3997 21.0261 17.0212C21.557 17.6428 21.4834 18.5769 20.8619 19.1078C20.2404 19.6386 19.3062 19.5651 18.7753 18.9436Z" fill="#FCEE21"/>
<path d="M21.2978 21.8999C20.7669 21.2783 20.8405 20.3441 21.462 19.8133C22.0835 19.2824 23.0177 19.356 23.5486 19.9775C24.0794 20.599 24.0059 21.5332 23.3844 22.0641C22.7628 22.5949 21.8286 22.5214 21.2978 21.8999Z" fill="#FCEE21"/>
<path d="M13.6231 18.7299C13.0452 18.1519 13.0452 17.2148 13.6231 16.6368C14.2011 16.0589 15.1382 16.0589 15.7162 16.6368C16.2942 17.2148 16.2942 18.1519 15.7162 18.7299C15.1382 19.3078 14.2011 19.3078 13.6231 18.7299Z" fill="#FCEE21"/>
<path d="M16.3663 21.4861C15.7883 20.9081 15.7883 19.971 16.3663 19.3931C16.9443 18.8151 17.8814 18.8151 18.4593 19.3931C19.0373 19.971 19.0373 20.9081 18.4593 21.4861C17.8814 22.0641 16.9443 22.0641 16.3663 21.4861Z" fill="#FCEE21"/>
<path d="M19.1163 24.2351C18.5383 23.6571 18.5383 22.7201 19.1163 22.1421C19.6943 21.5641 20.6314 21.5641 21.2093 22.1421C21.7873 22.7201 21.7873 23.6571 21.2093 24.2351C20.6314 24.8131 19.6943 24.8131 19.1163 24.2351Z" fill="#FCEE21"/>
<path d="M11.212 21.6746C10.5905 21.1438 10.5169 20.2096 11.0478 19.588C11.5786 18.9665 12.5128 18.893 13.1344 19.4238C13.7559 19.9547 13.8294 20.8889 13.2986 21.5104C12.7677 22.132 11.8335 22.2055 11.212 21.6746Z" fill="#FCEE21"/>
<path d="M14.1695 24.2009C13.548 23.67 13.4745 22.7358 14.0053 22.1143C14.5361 21.4927 15.4703 21.4192 16.0919 21.9501C16.7134 22.4809 16.7869 23.4151 16.2561 24.0367C15.7253 24.6582 14.7911 24.7317 14.1695 24.2009Z" fill="#FCEE21"/>
<path d="M17.1339 26.7294C16.5123 26.1986 16.4388 25.2644 16.9697 24.6429C17.5005 24.0213 18.4347 23.9478 19.0562 24.4786C19.6778 25.0095 19.7513 25.9437 19.2205 26.5652C18.6896 27.1868 17.7554 27.2603 17.1339 26.7294Z" fill="#FCEE21"/>
<path d="M9.04425 24.7915C8.38298 24.311 8.23639 23.3855 8.71683 22.7242C9.19728 22.0629 10.1228 21.9164 10.7841 22.3968C11.4454 22.8772 11.592 23.8028 11.1115 24.4641C10.6311 25.1253 9.70553 25.2719 9.04425 24.7915Z" fill="#FCEE21"/>
<path d="M12.1966 27.0857C11.5353 26.6052 11.3887 25.6797 11.8692 25.0184C12.3496 24.3571 13.2752 24.2105 13.9364 24.691C14.5977 25.1714 14.7443 26.097 14.2639 26.7583C13.7834 27.4195 12.8579 27.5661 12.1966 27.0857Z" fill="#FCEE21"/>
<path d="M15.345 29.3718C14.6838 28.8914 14.5372 27.9658 15.0176 27.3045C15.4981 26.6433 16.4236 26.4967 17.0849 26.9771C17.7462 27.4576 17.8927 28.3831 17.4123 29.0444C16.9319 29.7057 16.0063 29.8523 15.345 29.3718Z" fill="#FCEE21"/>
<path d="M7.13437 28.0774C6.43744 27.6503 6.21868 26.7391 6.64576 26.0422C7.07284 25.3453 7.98404 25.1265 8.68097 25.5536C9.3779 25.9807 9.59665 26.8919 9.16957 27.5888C8.74249 28.2857 7.8313 28.5045 7.13437 28.0774Z" fill="#FCEE21"/>
<path d="M10.4547 30.1129C9.75775 29.6859 9.53899 28.7747 9.96607 28.0777C10.3932 27.3808 11.3043 27.1621 12.0013 27.5891C12.6982 28.0162 12.917 28.9274 12.4899 29.6243C12.0628 30.3213 11.1516 30.54 10.4547 30.1129Z" fill="#FCEE21"/>
<path d="M13.7696 32.157C13.0727 31.7299 12.8539 30.8187 13.281 30.1218C13.7081 29.4249 14.6193 29.2061 15.3162 29.6332C16.0132 30.0603 16.2319 30.9715 15.8048 31.6684C15.3777 32.3653 14.4666 32.5841 13.7696 32.157Z" fill="#FCEE21"/>
<path d="M5.48447 31.51C4.75618 31.1389 4.4666 30.2477 4.83769 29.5194C5.20877 28.7911 6.09999 28.5016 6.82829 28.8727C7.55658 29.2437 7.84615 30.135 7.47507 30.8632C7.10398 31.5915 6.21277 31.8811 5.48447 31.51Z" fill="#FCEE21"/>
<path d="M8.95761 33.2735C8.22932 32.9024 7.93975 32.0112 8.31083 31.2829C8.68192 30.5546 9.57313 30.265 10.3014 30.6361C11.0297 31.0072 11.3193 31.8984 10.9482 32.6267C10.5771 33.355 9.6859 33.6445 8.95761 33.2735Z" fill="#FCEE21"/>
<path d="M12.4166 35.0414C11.6883 34.6703 11.3987 33.7791 11.7698 33.0508C12.1409 32.3225 13.0321 32.0329 13.7604 32.404C14.4887 32.7751 14.7783 33.6663 14.4072 34.3946C14.0361 35.1229 13.1449 35.4125 12.4166 35.0414Z" fill="#FCEE21"/>
<path d="M4.1044 35.0448C3.34924 34.732 2.99063 33.8662 3.30343 33.1111C3.61623 32.3559 4.48199 31.9973 5.23715 32.3101C5.99231 32.6229 6.35092 33.4886 6.03812 34.2438C5.72532 34.999 4.85957 35.3576 4.1044 35.0448Z" fill="#FCEE21"/>
<path d="M7.70108 36.5353C6.94592 36.2225 6.58732 35.3567 6.90012 34.6015C7.21292 33.8464 8.07867 33.4878 8.83383 33.8006C9.58899 34.1134 9.9476 34.9791 9.6348 35.7343C9.322 36.4894 8.45625 36.8481 7.70108 36.5353Z" fill="#FCEE21"/>
<path d="M11.2968 38.0294C10.5416 37.7166 10.183 36.8508 10.4958 36.0957C10.8086 35.3405 11.6744 34.9819 12.4295 35.2947C13.1847 35.6075 13.5433 36.4733 13.2305 37.2284C12.9177 37.9836 12.052 38.3422 11.2968 38.0294Z" fill="#FCEE21"/>
<path d="M3.00588 38.6914C2.2285 38.4388 1.80307 37.6039 2.05565 36.8265C2.30824 36.0491 3.14319 35.6237 3.92057 35.8763C4.69794 36.1289 5.12336 36.9638 4.87078 37.7412C4.6182 38.5186 3.78325 38.944 3.00588 38.6914Z" fill="#FCEE21"/>
<path d="M6.70411 39.886C5.92673 39.6334 5.50131 38.7984 5.7539 38.0211C6.00648 37.2437 6.84142 36.8183 7.6188 37.0709C8.39618 37.3234 8.82161 38.1584 8.56902 38.9358C8.31644 39.7131 7.48149 40.1386 6.70411 39.886Z" fill="#FCEE21"/>
<path d="M10.4121 41.0907C9.63475 40.8381 9.20932 40.0032 9.4619 39.2258C9.71449 38.4484 10.5494 38.023 11.3268 38.2756C12.1042 38.5282 12.5296 39.3631 12.277 40.1405C12.0244 40.9178 11.1895 41.3433 10.4121 41.0907Z" fill="#FCEE21"/>
<path d="M2.21511 42.4028C1.42031 42.212 0.930688 41.413 1.1215 40.6182C1.31232 39.8234 2.11131 39.3338 2.9061 39.5246C3.7009 39.7154 4.19053 40.5144 3.99972 41.3092C3.8089 42.104 3.0099 42.5936 2.21511 42.4028Z" fill="#FCEE21"/>
<path d="M5.98806 43.3101C5.19327 43.1192 4.70364 42.3202 4.89445 41.5255C5.08526 40.7307 5.88426 40.241 6.67906 40.4318C7.47386 40.6227 7.96348 41.4217 7.77267 42.2165C7.58185 43.0112 6.78286 43.5009 5.98806 43.3101Z" fill="#FCEE21"/>
<path d="M9.77127 44.2174C8.97647 44.0266 8.48684 43.2276 8.67765 42.4328C8.86847 41.638 9.66747 41.1484 10.4623 41.3392C11.2571 41.53 11.7467 42.329 11.5559 43.1238C11.3651 43.9186 10.5661 44.4082 9.77127 44.2174Z" fill="#FCEE21"/>
<path d="M1.68943 46.1721C0.882112 46.0443 0.331304 45.2862 0.459171 44.4788C0.587037 43.6715 1.34516 43.1207 2.15248 43.2486C2.95979 43.3764 3.5106 44.1346 3.38273 44.9419C3.25487 45.7492 2.49675 46.3 1.68943 46.1721Z" fill="#FCEE21"/>
<path d="M5.53855 46.7755C4.73123 46.6477 4.18043 45.8895 4.3083 45.0822C4.43617 44.2749 5.19428 43.7241 6.0016 43.852C6.80891 43.9798 7.35972 44.738 7.23186 45.5453C7.10399 46.3526 6.34587 46.9034 5.53855 46.7755Z" fill="#FCEE21"/>
<path d="M9.38573 47.3803C8.57841 47.2524 8.0276 46.4943 8.15547 45.687C8.28333 44.8796 9.04145 44.3288 9.84877 44.4567C10.6561 44.5846 11.2069 45.3427 11.079 46.15C10.9512 46.9573 10.193 47.5081 9.38573 47.3803Z" fill="#FCEE21"/>
<path d="M1.47543 49.9638C0.660564 49.8997 0.0519804 49.1871 0.116111 48.3722C0.180242 47.5574 0.892803 46.9488 1.70766 47.0129C2.52253 47.077 3.13112 47.7896 3.06699 48.6045C3.00285 49.4193 2.29029 50.0279 1.47543 49.9638Z" fill="#FCEE21"/>
<path d="M4.99365 50.274C4.17627 50.2086 3.56666 49.493 3.63205 48.6756C3.69744 47.8582 4.41307 47.2486 5.23045 47.314C6.04783 47.3794 6.65744 48.095 6.59205 48.9124C6.52666 49.7298 5.81104 50.3394 4.99365 50.274Z" fill="#FCEE21"/>
<path d="M9.24398 50.5707C8.42912 50.5066 7.82053 49.794 7.88466 48.9792C7.94879 48.1643 8.66136 47.5557 9.47622 47.6198C10.2911 47.684 10.8997 48.3965 10.8355 49.2114C10.7714 50.0263 10.0588 50.6349 9.24398 50.5707Z" fill="#FCEE21"/>
<path d="M1.56541 53.76C0.748025 53.76 0.0854111 53.0974 0.0854111 52.28C0.0854111 51.4627 0.748025 50.8 1.56541 50.8C2.38279 50.8 3.04541 51.4627 3.04541 52.28C3.04541 53.0974 2.38279 53.76 1.56541 53.76Z" fill="#FCEE21"/>
<path d="M5.45554 53.76C4.63816 53.76 3.97555 53.0974 3.97555 52.28C3.97555 51.4627 4.63816 50.8 5.45554 50.8C6.27292 50.8 6.93555 51.4627 6.93555 52.28C6.93555 53.0974 6.27292 53.76 5.45554 53.76Z" fill="#FCEE21"/>
<path d="M9.34519 53.76C8.52781 53.76 7.8652 53.0974 7.8652 52.28C7.8652 51.4627 8.52781 50.8 9.34519 50.8C10.1626 50.8 10.8252 51.4627 10.8252 52.28C10.8252 53.0974 10.1626 53.76 9.34519 53.76Z" fill="#FCEE21"/>
<path d="M0.35244 56.1786C0.288309 55.3637 0.896896 54.6511 1.71176 54.587C2.52662 54.5229 3.23918 55.1315 3.30331 55.9463C3.36745 56.7612 2.75886 57.4737 1.944 57.5379C1.12913 57.602 0.416571 56.9934 0.35244 56.1786Z" fill="#FCEE21"/>
<path d="M4.23622 55.8822C4.17209 55.0673 4.78068 54.3547 5.59555 54.2906C6.41041 54.2265 7.12297 54.8351 7.1871 55.6499C7.25123 56.4648 6.64265 57.1774 5.82779 57.2415C5.01292 57.3056 4.30036 56.697 4.23622 55.8822Z" fill="#FCEE21"/>
<path d="M8.10928 55.5768C8.04515 54.7619 8.65373 54.0493 9.46859 53.9852C10.2835 53.9211 10.996 54.5297 11.0602 55.3445C11.1243 56.1594 10.5157 56.8719 9.70083 56.9361C8.88597 57.0002 8.17341 56.3916 8.10928 55.5768Z" fill="#FCEE21"/>
<path d="M0.928416 60.0508C0.800549 59.2435 1.35135 58.4854 2.15867 58.3575C2.96599 58.2297 3.72411 58.7805 3.85197 59.5878C3.97984 60.3951 3.42904 61.1532 2.62172 61.2811C1.8144 61.409 1.05628 60.8581 0.928416 60.0508Z" fill="#FCEE21"/>
<path d="M4.77314 59.4479C4.64528 58.6406 5.19608 57.8825 6.0034 57.7546C6.81072 57.6268 7.56883 58.1776 7.6967 58.9849C7.82457 59.7922 7.27376 60.5503 6.46644 60.6782C5.65913 60.806 4.90101 60.2552 4.77314 59.4479Z" fill="#FCEE21"/>
<path d="M8.6164 58.8353C8.48854 58.0279 9.03934 57.2698 9.84666 57.142C10.654 57.0141 11.4121 57.5649 11.54 58.3722C11.6678 59.1795 11.117 59.9376 10.3097 60.0655C9.50239 60.1934 8.74427 59.6426 8.6164 58.8353Z" fill="#FCEE21"/>
<path d="M1.80265 63.8649C1.61184 63.0701 2.10146 62.2711 2.89626 62.0803C3.69106 61.8895 4.49005 62.3791 4.68087 63.1739C4.87168 63.9687 4.38206 64.7677 3.58726 64.9585C2.79246 65.1494 1.99347 64.6597 1.80265 63.8649Z" fill="#FCEE21"/>
<path d="M5.58976 62.9579C5.39895 62.1631 5.88857 61.3642 6.68337 61.1733C7.47817 60.9825 8.27716 61.4721 8.46798 62.2669C8.65879 63.0617 8.16917 63.8607 7.37437 64.0516C6.57957 64.2424 5.78058 63.7527 5.58976 62.9579Z" fill="#FCEE21"/>
<path d="M9.37931 62.0508C9.1885 61.256 9.67813 60.457 10.4729 60.2662C11.2677 60.0754 12.0667 60.565 12.2575 61.3598C12.4483 62.1546 11.9587 62.9536 11.1639 63.1444C10.3691 63.3353 9.57013 62.8456 9.37931 62.0508Z" fill="#FCEE21"/>
<path d="M2.9785 67.5995C2.72592 66.8222 3.15135 65.9872 3.92873 65.7346C4.7061 65.482 5.54105 65.9075 5.79363 66.6848C6.04622 67.4622 5.62079 68.2972 4.84342 68.5498C4.06604 68.8023 3.23109 68.3769 2.9785 67.5995Z" fill="#FCEE21"/>
<path d="M6.67333 66.3976C6.42075 65.6203 6.84617 64.7853 7.62354 64.5327C8.40092 64.2801 9.23587 64.7056 9.48846 65.4829C9.74104 66.2603 9.31561 67.0953 8.53823 67.3478C7.76086 67.6004 6.92592 67.175 6.67333 66.3976Z" fill="#FCEE21"/>
<path d="M10.3877 65.1927C10.1351 64.4153 10.5605 63.5804 11.3379 63.3278C12.1153 63.0752 12.9502 63.5006 13.2028 64.278C13.4554 65.0554 13.03 65.8903 12.2526 66.1429C11.4752 66.3955 10.6403 65.9701 10.3877 65.1927Z" fill="#FCEE21"/>
<path d="M4.4382 71.2195C4.1254 70.4643 4.48401 69.5986 5.23917 69.2858C5.99433 68.973 6.86009 69.3316 7.17289 70.0868C7.48568 70.8419 7.12708 71.7077 6.37191 72.0205C5.61675 72.3333 4.751 71.9747 4.4382 71.2195Z" fill="#FCEE21"/>
<path d="M8.03244 69.7353C7.71965 68.9801 8.07825 68.1143 8.83342 67.8015C9.58858 67.4887 10.4543 67.8473 10.7671 68.6025C11.0799 69.3577 10.7213 70.2234 9.96616 70.5362C9.211 70.849 8.34524 70.4904 8.03244 69.7353Z" fill="#FCEE21"/>
<path d="M11.633 68.2418C11.3202 67.4867 11.6788 66.6209 12.434 66.3081C13.1892 65.9953 14.0549 66.3539 14.3677 67.1091C14.6805 67.8643 14.3219 68.73 13.5667 69.0428C12.8116 69.3556 11.9458 68.997 11.633 68.2418Z" fill="#FCEE21"/>
<path d="M6.18437 74.7318C5.81329 74.0035 6.10286 73.1123 6.83115 72.7412C7.55944 72.3701 8.45066 72.6597 8.82175 73.388C9.19283 74.1163 8.90325 75.0075 8.17496 75.3786C7.44667 75.7497 6.55545 75.4601 6.18437 74.7318Z" fill="#FCEE21"/>
<path d="M9.64335 72.9557C9.27227 72.2274 9.56184 71.3362 10.2901 70.9651C11.0184 70.594 11.9096 70.8836 12.2807 71.6119C12.6518 72.3401 12.3622 73.2314 11.6339 73.6024C10.9057 73.9735 10.0144 73.684 9.64335 72.9557Z" fill="#FCEE21"/>
<path d="M13.116 71.1939C12.7449 70.4657 13.0345 69.5744 13.7628 69.2033C14.4911 68.8323 15.3823 69.1218 15.7534 69.8501C16.1245 70.5784 15.8349 71.4696 15.1066 71.8407C14.3783 72.2118 13.4871 71.9222 13.116 71.1939Z" fill="#FCEE21"/>
<path d="M8.18873 78.08C7.76165 77.383 7.98041 76.4719 8.67734 76.0448C9.37427 75.6177 10.2855 75.8364 10.7125 76.5334C11.1396 77.2303 10.9209 78.1415 10.2239 78.5686C9.527 78.9957 8.61581 78.7769 8.18873 78.08Z" fill="#FCEE21"/>
<path d="M11.5129 76.0448C11.0859 75.3479 11.3046 74.4367 12.0016 74.0096C12.6985 73.5825 13.6097 73.8013 14.0368 74.4982C14.4638 75.1952 14.2451 76.1063 13.5482 76.5334C12.8512 76.9605 11.94 76.7417 11.5129 76.0448Z" fill="#FCEE21"/>
<path d="M14.8381 74.0149C14.4111 73.318 14.6298 72.4068 15.3268 71.9797C16.0237 71.5526 16.9349 71.7714 17.362 72.4683C17.789 73.1652 17.5703 74.0764 16.8734 74.5035C16.1764 74.9306 15.2652 74.7118 14.8381 74.0149Z" fill="#FCEE21"/>
<path d="M10.461 81.2684C9.98053 80.6072 10.1271 79.6816 10.7884 79.2012C11.4497 78.7207 12.3752 78.8673 12.8557 79.5286C13.3361 80.1899 13.1895 81.1154 12.5282 81.5959C11.867 82.0763 10.9414 81.9297 10.461 81.2684Z" fill="#FCEE21"/>
<path d="M13.6094 78.9728C13.129 78.3115 13.2756 77.386 13.9368 76.9055C14.5981 76.4251 15.5237 76.5717 16.0041 77.2329C16.4845 77.8942 16.338 78.8198 15.6767 79.3002C15.0154 79.7807 14.0899 79.6341 13.6094 78.9728Z" fill="#FCEE21"/>
<path d="M16.7637 76.6852C16.2833 76.0239 16.4299 75.0984 17.0911 74.6179C17.7524 74.1375 18.678 74.2841 19.1584 74.9454C19.6388 75.6066 19.4922 76.5322 18.831 77.0126C18.1697 77.4931 17.2441 77.3465 16.7637 76.6852Z" fill="#FCEE21"/>
<path d="M12.9853 84.2628C12.4544 83.6412 12.528 82.707 13.1495 82.1762C13.771 81.6454 14.7052 81.7189 15.2361 82.3404C15.7669 82.962 15.6934 83.8962 15.0719 84.427C14.4503 84.9579 13.5161 84.8843 12.9853 84.2628Z" fill="#FCEE21"/>
<path d="M15.934 81.747C15.4032 81.1255 15.4767 80.1913 16.0982 79.6605C16.7198 79.1296 17.654 79.2031 18.1848 79.8247C18.7157 80.4462 18.6421 81.3804 18.0206 81.9113C17.3991 82.4421 16.4649 82.3686 15.934 81.747Z" fill="#FCEE21"/>
<path d="M18.8935 79.2071C18.3626 78.5856 18.4362 77.6514 19.0577 77.1205C19.6792 76.5897 20.6134 76.6632 21.1443 77.2848C21.6751 77.9063 21.6016 78.8405 20.9801 79.3713C20.3585 79.9022 19.4243 79.8287 18.8935 79.2071Z" fill="#FCEE21"/>
<path d="M15.7218 87.0614C15.1438 86.4834 15.1438 85.5464 15.7218 84.9684C16.2997 84.3904 17.2368 84.3904 17.8148 84.9684C18.3928 85.5463 18.3928 86.4834 17.8148 87.0614C17.2368 87.6394 16.2997 87.6394 15.7218 87.0614Z" fill="#FCEE21"/>
<path d="M18.4708 84.3114C17.8928 83.7334 17.8928 82.7964 18.4708 82.2184C19.0488 81.6404 19.9859 81.6404 20.5638 82.2184C21.1418 82.7963 21.1418 83.7334 20.5638 84.3114C19.9859 84.8894 19.0488 84.8894 18.4708 84.3114Z" fill="#FCEE21"/>
<path d="M21.2198 81.5514C20.6418 80.9734 20.6418 80.0363 21.2198 79.4584C21.7978 78.8804 22.7349 78.8804 23.3129 79.4584C23.8908 80.0363 23.8908 80.9734 23.3129 81.5514C22.7349 82.1294 21.7978 82.1294 21.2198 81.5514Z" fill="#FCEE21"/>
<path d="M18.6671 89.6226C18.0455 89.0918 17.972 88.1576 18.5029 87.536C19.0337 86.9145 19.9679 86.841 20.5894 87.3718C21.211 87.9027 21.2845 88.8369 20.7537 89.4584C20.2228 90.08 19.2886 90.1535 18.6671 89.6226Z" fill="#FCEE21"/>
<path d="M21.1934 86.6649C20.5719 86.134 20.4984 85.1998 21.0292 84.5783C21.5601 83.9567 22.4943 83.8832 23.1158 84.4141C23.7374 84.9449 23.8109 85.8791 23.28 86.5006C22.7492 87.1222 21.815 87.1957 21.1934 86.6649Z" fill="#FCEE21"/>
<path d="M23.7296 83.7072C23.108 83.1764 23.0345 82.2422 23.5654 81.6206C24.0962 80.9991 25.0304 80.9256 25.6519 81.4564C26.2735 81.9873 26.347 82.9215 25.8162 83.543C25.2853 84.1645 24.3511 84.2381 23.7296 83.7072Z" fill="#FCEE21"/>
<path d="M21.8016 91.9552C21.1403 91.4747 20.9937 90.5492 21.4741 89.8879C21.9546 89.2266 22.8801 89.0801 23.5414 89.5605C24.2027 90.0409 24.3493 90.9665 23.8688 91.6278C23.3884 92.289 22.4629 92.4356 21.8016 91.9552Z" fill="#FCEE21"/>
<path d="M24.0955 88.8028C23.4343 88.3224 23.2877 87.3969 23.7681 86.7356C24.2485 86.0743 25.1741 85.9277 25.8354 86.4082C26.4966 86.8886 26.6432 87.8141 26.1628 88.4754C25.6823 89.1367 24.7568 89.2833 24.0955 88.8028Z" fill="#FCEE21"/>
<path d="M26.39 85.6605C25.7287 85.1801 25.5821 84.2545 26.0625 83.5932C26.543 82.932 27.4685 82.7854 28.1298 83.2658C28.7911 83.7463 28.9377 84.6718 28.4572 85.3331C27.9768 85.9944 27.0512 86.141 26.39 85.6605Z" fill="#FCEE21"/>
<path d="M25.1246 94.0287C24.4277 93.6016 24.2089 92.6904 24.636 91.9935C25.0631 91.2966 25.9743 91.0778 26.6712 91.5049C27.3681 91.932 27.5869 92.8432 27.1598 93.5401C26.7327 94.237 25.8215 94.4558 25.1246 94.0287Z" fill="#FCEE21"/>
<path d="M27.1588 90.7139C26.4619 90.2868 26.2431 89.3756 26.6702 88.6787C27.0973 87.9818 28.0084 87.763 28.7054 88.1901C29.4023 88.6172 29.6211 89.5284 29.194 90.2253C28.7669 90.9222 27.8557 91.141 27.1588 90.7139Z" fill="#FCEE21"/>
<path d="M29.1944 87.3938C28.4975 86.9667 28.2787 86.0556 28.7058 85.3586C29.1329 84.6617 30.0441 84.4429 30.741 84.87C31.438 85.2971 31.6567 86.2083 31.2296 86.9052C30.8026 87.6021 29.8914 87.8209 29.1944 87.3938Z" fill="#FCEE21"/>
<path d="M28.5904 95.8401C27.8621 95.469 27.5726 94.5778 27.9436 93.8495C28.3147 93.1212 29.2059 92.8316 29.9342 93.2027C30.6625 93.5738 30.9521 94.465 30.581 95.1933C30.2099 95.9216 29.3187 96.2112 28.5904 95.8401Z" fill="#FCEE21"/>
<path d="M30.3629 92.372C29.6346 92.0009 29.345 91.1097 29.7161 90.3814C30.0872 89.6531 30.9784 89.3635 31.7067 89.7346C32.435 90.1057 32.7246 90.9969 32.3535 91.7252C31.9824 92.4535 31.0912 92.7431 30.3629 92.372Z" fill="#FCEE21"/>
<path d="M32.1222 88.9081C31.3939 88.537 31.1043 87.6458 31.4754 86.9175C31.8465 86.1892 32.7377 85.8996 33.466 86.2707C34.1943 86.6418 34.4838 87.533 34.1128 88.2613C33.7417 88.9896 32.8505 89.2792 32.1222 88.9081Z" fill="#FCEE21"/>
<path d="M32.1879 97.3667C31.4327 97.0539 31.0741 96.1881 31.3869 95.433C31.6997 94.6778 32.5655 94.3192 33.3207 94.632C34.0758 94.9448 34.4344 95.8105 34.1216 96.5657C33.8088 97.3209 32.9431 97.6795 32.1879 97.3667Z" fill="#FCEE21"/>
<path d="M33.6786 93.7801C32.9235 93.4673 32.5649 92.6016 32.8777 91.8464C33.1905 91.0913 34.0562 90.7326 34.8114 91.0454C35.5665 91.3582 35.9251 92.224 35.6123 92.9792C35.2995 93.7343 34.4338 94.0929 33.6786 93.7801Z" fill="#FCEE21"/>
<path d="M35.1728 90.1744C34.4176 89.8616 34.059 88.9959 34.3718 88.2407C34.6846 87.4855 35.5503 87.1269 36.3055 87.4397C37.0607 87.7525 37.4193 88.6183 37.1065 89.3734C36.7937 90.1286 35.9279 90.4872 35.1728 90.1744Z" fill="#FCEE21"/>
<path d="M35.8673 98.4463C35.0908 98.193 34.6667 97.358 34.9201 96.5815C35.1735 95.805 36.0084 95.381 36.7849 95.6343C37.5614 95.8877 37.9855 96.7226 37.7321 97.4991C37.4787 98.2756 36.6438 98.6997 35.8673 98.4463Z" fill="#FCEE21"/>
<path d="M37.1011 94.9137C36.3237 94.6611 35.8983 93.8262 36.1509 93.0488C36.4035 92.2714 37.2384 91.846 38.0158 92.0986C38.7932 92.3511 39.2186 93.1861 38.966 93.9635C38.7134 94.7409 37.8785 95.1663 37.1011 94.9137Z" fill="#FCEE21"/>
<path d="M38.3052 91.2186C37.5278 90.966 37.1024 90.1311 37.355 89.3537C37.6076 88.5763 38.4425 88.1509 39.2199 88.4035C39.9973 88.6561 40.4227 89.491 40.1701 90.2684C39.9175 91.0458 39.0826 91.4712 38.3052 91.2186Z" fill="#FCEE21"/>
<path d="M39.7053 99.5653C38.9105 99.3745 38.4209 98.5755 38.6117 97.7807C38.8025 96.9859 39.6015 96.4963 40.3963 96.6871C41.1911 96.8779 41.6808 97.6769 41.4899 98.4717C41.2991 99.2665 40.5001 99.7561 39.7053 99.5653Z" fill="#FCEE21"/>
<path d="M40.6028 95.7799C39.808 95.5891 39.3184 94.7901 39.5092 93.9953C39.7 93.2005 40.499 92.7109 41.2938 92.9017C42.0886 93.0925 42.5782 93.8915 42.3874 94.6863C42.1966 95.4811 41.3976 95.9707 40.6028 95.7799Z" fill="#FCEE21"/>
<path d="M41.51 91.9967C40.7152 91.8059 40.2256 91.0069 40.4164 90.2121C40.6072 89.4173 41.4062 88.9277 42.201 89.1185C42.9958 89.3093 43.4855 90.1083 43.2946 90.9031C43.1038 91.6979 42.3048 92.1875 41.51 91.9967Z" fill="#FCEE21"/>
<path d="M43.5508 100.215C42.7434 100.087 42.1926 99.3292 42.3205 98.5219C42.4484 97.7146 43.2065 97.1638 44.0138 97.2917C44.8211 97.4195 45.3719 98.1777 45.2441 98.985C45.1162 99.7923 44.3581 100.343 43.5508 100.215Z" fill="#FCEE21"/>
<path d="M44.1636 96.3679C43.3562 96.2401 42.8054 95.482 42.9333 94.6746C43.0612 93.8673 43.8193 93.3165 44.6266 93.4444C45.4339 93.5722 45.9847 94.3304 45.8569 95.1377C45.729 95.945 44.9709 96.4958 44.1636 96.3679Z" fill="#FCEE21"/>
<path d="M44.7783 92.5208C43.971 92.3929 43.4202 91.6348 43.548 90.8275C43.6759 90.0201 44.434 89.4693 45.2413 89.5972C46.0487 89.7251 46.5995 90.4832 46.4716 91.2905C46.3437 92.0978 45.5856 92.6486 44.7783 92.5208Z" fill="#FCEE21"/>
<path d="M47.4447 100.555C46.6298 100.49 46.0212 99.7779 46.0853 98.9631C46.1495 98.1482 46.862 97.5396 47.6769 97.6037C48.4918 97.6679 49.1004 98.3804 49.0362 99.1953C48.9721 100.01 48.2595 100.619 47.4447 100.555Z" fill="#FCEE21"/>
<path d="M47.4512 96.886C46.6338 96.8206 46.0242 96.105 46.0896 95.2876C46.155 94.4702 46.8706 93.8606 47.688 93.926C48.5054 93.9914 49.115 94.707 49.0496 95.5244C48.9842 96.3418 48.2686 96.9514 47.4512 96.886Z" fill="#FCEE21"/>
<path d="M48.0619 92.7964C47.247 92.7323 46.6384 92.0197 46.7025 91.2049C46.7667 90.39 47.4792 89.7814 48.2941 89.8456C49.109 89.9097 49.7175 90.6222 49.6534 91.4371C49.5893 92.252 48.8767 92.8606 48.0619 92.7964Z" fill="#FCEE21"/>
<path d="M51.3652 100.59C50.5478 100.59 49.8852 99.9274 49.8852 99.11C49.8852 98.2926 50.5478 97.63 51.3652 97.63C52.1826 97.63 52.8452 98.2926 52.8452 99.11C52.8452 99.9274 52.1826 100.59 51.3652 100.59Z" fill="#FCEE21"/>
<path d="M51.3652 96.7C50.5478 96.7 49.8852 96.0374 49.8852 95.22C49.8852 94.4026 50.5478 93.74 51.3652 93.74C52.1826 93.74 52.8452 94.4026 52.8452 95.22C52.8452 96.0374 52.1826 96.7 51.3652 96.7Z" fill="#FCEE21"/>
<path d="M51.3652 92.81C50.5478 92.81 49.8852 92.1474 49.8852 91.33C49.8852 90.5126 50.5478 89.85 51.3652 89.85C52.1826 89.85 52.8452 90.5126 52.8452 91.33C52.8452 92.1474 52.1826 92.81 51.3652 92.81Z" fill="#FCEE21"/>
<path d="M53.6679 98.9607C53.6037 98.1458 54.2123 97.4332 55.0272 97.3691C55.8421 97.305 56.5546 97.9136 56.6187 98.7284C56.6829 99.5433 56.0743 100.256 55.2594 100.32C54.4446 100.384 53.732 99.7755 53.6679 98.9607Z" fill="#FCEE21"/>
<path d="M53.3622 95.0871C53.2981 94.2723 53.9067 93.5597 54.7215 93.4956C55.5364 93.4314 56.2489 94.04 56.3131 94.8549C56.3772 95.6697 55.7686 96.3823 54.9538 96.4464C54.1389 96.5106 53.4263 95.902 53.3622 95.0871Z" fill="#FCEE21"/>
<path d="M53.0561 91.2037C52.9919 90.3888 53.6005 89.6763 54.4154 89.6121C55.2302 89.548 55.9428 90.1566 56.0069 90.9715C56.0711 91.7863 55.4625 92.4989 54.6476 92.563C53.8328 92.6271 53.1202 92.0186 53.0561 91.2037Z" fill="#FCEE21"/>
<path d="M57.4318 98.5131C57.304 97.7058 57.8548 96.9477 58.6621 96.8198C59.4694 96.6919 60.2275 97.2427 60.3554 98.0501C60.4833 98.8574 59.9325 99.6155 59.1251 99.7434C58.3178 99.8712 57.5597 99.3204 57.4318 98.5131Z" fill="#FCEE21"/>
<path d="M56.8308 94.6783C56.7029 93.871 57.2537 93.1128 58.061 92.985C58.8683 92.8571 59.6265 93.4079 59.7543 94.2152C59.8822 95.0225 59.3314 95.7807 58.5241 95.9085C57.7167 96.0364 56.9586 95.4856 56.8308 94.6783Z" fill="#FCEE21"/>
<path d="M56.218 90.835C56.0901 90.0277 56.6409 89.2696 57.4482 89.1417C58.2555 89.0138 59.0137 89.5646 59.1415 90.372C59.2694 91.1793 58.7186 91.9374 57.9113 92.0653C57.104 92.1931 56.3458 91.6423 56.218 90.835Z" fill="#FCEE21"/>
<path d="M61.1645 97.7712C60.9736 96.9764 61.4633 96.1774 62.2581 95.9866C63.0529 95.7958 63.8519 96.2854 64.0427 97.0802C64.2335 97.875 63.7439 98.674 62.9491 98.8648C62.1543 99.0556 61.3553 98.566 61.1645 97.7712Z" fill="#FCEE21"/>
<path d="M60.2475 93.9938C60.0567 93.199 60.5463 92.4 61.3411 92.2092C62.1359 92.0184 62.9349 92.508 63.1257 93.3028C63.3165 94.0976 62.8269 94.8966 62.0321 95.0874C61.2373 95.2783 60.4383 94.7886 60.2475 93.9938Z" fill="#FCEE21"/>
<path d="M59.3427 90.214C59.1519 89.4193 59.6415 88.6203 60.4363 88.4294C61.2311 88.2386 62.0301 88.7283 62.2209 89.5231C62.4117 90.3178 61.9221 91.1168 61.1273 91.3077C60.3325 91.4985 59.5335 91.0088 59.3427 90.214Z" fill="#FCEE21"/>
<path d="M64.812 96.7413C64.5594 95.9639 64.9848 95.1289 65.7622 94.8764C66.5396 94.6238 67.3745 95.0492 67.6271 95.8266C67.8797 96.6039 67.4543 97.4389 66.6769 97.6915C65.8995 97.9441 65.0646 97.5186 64.812 96.7413Z" fill="#FCEE21"/>
<path d="M63.6099 93.0466C63.3573 92.2692 63.7827 91.4342 64.5601 91.1816C65.3375 90.9291 66.1724 91.3545 66.425 92.1319C66.6776 92.9092 66.2521 93.7442 65.4748 93.9968C64.6974 94.2494 63.8624 93.8239 63.6099 93.0466Z" fill="#FCEE21"/>
<path d="M62.4082 89.352C62.1556 88.5746 62.581 87.7397 63.3584 87.4871C64.1358 87.2345 64.9707 87.6599 65.2233 88.4373C65.4759 89.2147 65.0505 90.0496 64.2731 90.3022C63.4957 90.5548 62.6608 90.1294 62.4082 89.352Z" fill="#FCEE21"/>
<path d="M68.3659 95.4379C68.0531 94.6827 68.4117 93.817 69.1669 93.5042C69.9221 93.1914 70.7878 93.55 71.1006 94.3051C71.4134 95.0603 71.0548 95.9261 70.2996 96.2389C69.5445 96.5517 68.6787 96.193 68.3659 95.4379Z" fill="#FCEE21"/>
<path d="M66.8816 91.8336C66.5688 91.0785 66.9274 90.2127 67.6825 89.8999C68.4377 89.5871 69.3034 89.9457 69.6162 90.7009C69.929 91.4561 69.5704 92.3218 68.8153 92.6346C68.0601 92.9474 67.1944 92.5888 66.8816 91.8336Z" fill="#FCEE21"/>
<path d="M65.3884 88.2433C65.0756 87.4881 65.4342 86.6224 66.1894 86.3096C66.9445 85.9968 67.8103 86.3554 68.1231 87.1106C68.4359 87.8657 68.0773 88.7315 67.3221 89.0443C66.5669 89.3571 65.7012 88.9985 65.3884 88.2433Z" fill="#FCEE21"/>
<path d="M71.8235 93.8489C71.4524 93.1206 71.742 92.2293 72.4703 91.8583C73.1986 91.4872 74.0898 91.7767 74.4609 92.505C74.832 93.2333 74.5424 94.1246 73.8141 94.4956C73.0858 94.8667 72.1946 94.5771 71.8235 93.8489Z" fill="#FCEE21"/>
<path d="M70.0433 90.381C69.6722 89.6527 69.9617 88.7614 70.69 88.3904C71.4183 88.0193 72.3095 88.3089 72.6806 89.0371C73.0517 89.7654 72.7621 90.6567 72.0339 91.0277C71.3056 91.3988 70.4143 91.1092 70.0433 90.381Z" fill="#FCEE21"/>
<path d="M68.2815 86.9085C67.9105 86.1803 68.2 85.289 68.9283 84.9179C69.6566 84.5469 70.5478 84.8364 70.9189 85.5647C71.29 86.293 71.0004 87.1842 70.2721 87.5553C69.5438 87.9264 68.6526 87.6368 68.2815 86.9085Z" fill="#FCEE21"/>
<path d="M75.1194 91.9951C74.6923 91.2982 74.9111 90.387 75.608 89.9599C76.3049 89.5329 77.2161 89.7516 77.6432 90.4485C78.0703 91.1455 77.8515 92.0567 77.1546 92.4837C76.4577 92.9108 75.5465 92.6921 75.1194 91.9951Z" fill="#FCEE21"/>
<path d="M73.0896 88.6796C72.6625 87.9827 72.8813 87.0715 73.5782 86.6444C74.2751 86.2173 75.1863 86.4361 75.6134 87.133C76.0405 87.8299 75.8217 88.7411 75.1248 89.1682C74.4279 89.5953 73.5167 89.3765 73.0896 88.6796Z" fill="#FCEE21"/>
<path d="M71.0544 85.3555C70.6274 84.6586 70.8461 83.7474 71.5431 83.3203C72.24 82.8932 73.1512 83.112 73.5783 83.8089C74.0053 84.5058 73.7866 85.417 73.0897 85.8441C72.3927 86.2712 71.4815 86.0524 71.0544 85.3555Z" fill="#FCEE21"/>
<path d="M78.2832 89.8788C77.8028 89.2175 77.9494 88.292 78.6107 87.8115C79.2719 87.3311 80.1975 87.4777 80.6779 88.139C81.1584 88.8002 81.0118 89.7258 80.3505 90.2062C79.6892 90.6867 78.7637 90.5401 78.2832 89.8788Z" fill="#FCEE21"/>
<path d="M75.9873 86.7405C75.5069 86.0792 75.6535 85.1537 76.3148 84.6732C76.976 84.1928 77.9016 84.3394 78.382 85.0007C78.8625 85.6619 78.7159 86.5875 78.0546 87.0679C77.3933 87.5484 76.4678 87.4018 75.9873 86.7405Z" fill="#FCEE21"/>
<path d="M73.7056 83.5944C73.2252 82.9331 73.3717 82.0076 74.033 81.5271C74.6943 81.0467 75.6198 81.1933 76.1003 81.8545C76.5807 82.5158 76.4341 83.4414 75.7729 83.9218C75.1116 84.4022 74.186 84.2557 73.7056 83.5944Z" fill="#FCEE21"/>
<path d="M81.2631 87.5371C80.7323 86.9155 80.8058 85.9813 81.4273 85.4505C82.0489 84.9196 82.9831 84.9932 83.5139 85.6147C84.0448 86.2363 83.9712 87.1705 83.3497 87.7013C82.7282 88.2321 81.794 88.1586 81.2631 87.5371Z" fill="#FCEE21"/>
<path d="M78.7309 84.5709C78.2 83.9493 78.2736 83.0152 78.8951 82.4843C79.5166 81.9535 80.4508 82.027 80.9817 82.6485C81.5125 83.2701 81.439 84.2043 80.8175 84.7351C80.1959 85.266 79.2617 85.1924 78.7309 84.5709Z" fill="#FCEE21"/>
<path d="M76.2011 81.6212C75.6703 80.9996 75.7438 80.0654 76.3653 79.5346C76.9869 79.0038 77.9211 79.0773 78.4519 79.6988C78.9827 80.3204 78.9092 81.2546 78.2877 81.7854C77.6661 82.3163 76.7319 82.2427 76.2011 81.6212Z" fill="#FCEE21"/>
<path d="M84.046 84.9561C83.468 84.3781 83.468 83.441 84.046 82.863C84.624 82.2851 85.5611 82.2851 86.139 82.863C86.717 83.441 86.717 84.3781 86.139 84.9561C85.5611 85.534 84.624 85.534 84.046 84.9561Z" fill="#FCEE21"/>
<path d="M81.2862 82.2069C80.7083 81.6289 80.7082 80.6919 81.2862 80.1139C81.8642 79.5359 82.8013 79.5359 83.3793 80.1139C83.9572 80.6919 83.9572 81.6289 83.3793 82.2069C82.8013 82.7849 81.8642 82.7849 81.2862 82.2069Z" fill="#FCEE21"/>
<path d="M78.5362 79.4579C77.9583 78.8799 77.9582 77.9428 78.5362 77.3649C79.1142 76.7869 80.0513 76.7869 80.6293 77.3649C81.2072 77.9428 81.2072 78.8799 80.6293 79.4579C80.0513 80.0359 79.1142 80.0359 78.5362 79.4579Z" fill="#FCEE21"/>
<path d="M86.6148 82.1675C85.9933 81.6367 85.9198 80.7025 86.4506 80.081C86.9815 79.4594 87.9157 79.3859 88.5372 79.9167C89.1587 80.4476 89.2323 81.3818 88.7014 82.0033C88.1706 82.6249 87.2364 82.6984 86.6148 82.1675Z" fill="#FCEE21"/>
<path d="M83.6197 79.601C82.9984 79.0697 82.9256 78.1354 83.4569 77.5142C83.9882 76.8929 84.9224 76.8201 85.5437 77.3514C86.1649 77.8827 86.2378 78.8169 85.7065 79.4382C85.1752 80.0594 84.2409 80.1323 83.6197 79.601Z" fill="#FCEE21"/>
<path d="M80.7071 77.1216C80.0856 76.5908 80.0121 75.6566 80.5429 75.0351C81.0737 74.4135 82.0079 74.34 82.6295 74.8708C83.251 75.4017 83.3245 76.3359 82.7937 76.9574C82.2629 77.579 81.3287 77.6525 80.7071 77.1216Z" fill="#FCEE21"/>
<path d="M88.9651 79.1979C88.3039 78.7174 88.1573 77.7919 88.6377 77.1306C89.1182 76.4693 90.0437 76.3227 90.705 76.8032C91.3663 77.2836 91.5129 78.2092 91.0324 78.8704C90.552 79.5317 89.6264 79.6783 88.9651 79.1979Z" fill="#FCEE21"/>
<path d="M85.8128 76.9037C85.1515 76.4232 85.0049 75.4977 85.4854 74.8364C85.9658 74.1751 86.8914 74.0285 87.5527 74.509C88.2139 74.9894 88.3605 75.915 87.8801 76.5762C87.3996 77.2375 86.4741 77.3841 85.8128 76.9037Z" fill="#FCEE21"/>
<path d="M82.6707 74.6195C82.0094 74.139 81.8629 73.2135 82.3433 72.5522C82.8237 71.8909 83.7493 71.7444 84.4106 72.2248C85.0718 72.7052 85.2184 73.6308 84.738 74.2921C84.2575 74.9533 83.332 75.0999 82.6707 74.6195Z" fill="#FCEE21"/>
<path d="M91.0758 76.0385C90.3788 75.6114 90.1601 74.7002 90.5872 74.0033C91.0142 73.3063 91.9254 73.0876 92.6224 73.5147C93.3193 73.9417 93.5381 74.8529 93.111 75.5499C92.6839 76.2468 91.7727 76.4656 91.0758 76.0385Z" fill="#FCEE21"/>
<path d="M87.9635 73.8391C87.2688 73.414 87.0501 72.5062 87.4751 71.8114C87.9002 71.1167 88.808 70.898 89.5027 71.3231C90.1975 71.7481 90.4162 72.6559 89.9911 73.3506C89.5661 74.0454 88.6583 74.2641 87.9635 73.8391Z" fill="#FCEE21"/>
<path d="M84.4395 71.9741C83.7426 71.5471 83.5239 70.6359 83.9509 69.9389C84.378 69.242 85.2892 69.0233 85.9861 69.4503C86.6831 69.8774 86.9018 70.7886 86.4748 71.4855C86.0477 72.1825 85.1365 72.4012 84.4395 71.9741Z" fill="#FCEE21"/>
<path d="M92.9205 72.7241C92.1922 72.3531 91.9026 71.4618 92.2737 70.7335C92.6448 70.0053 93.536 69.7157 94.2643 70.0868C94.9926 70.4578 95.2822 71.3491 94.9111 72.0774C94.54 72.8057 93.6488 73.0952 92.9205 72.7241Z" fill="#FCEE21"/>
<path d="M89.4615 70.9563C88.7332 70.5852 88.4437 69.694 88.8147 68.9657C89.1858 68.2374 90.077 67.9479 90.8053 68.3189C91.5336 68.69 91.8232 69.5812 91.4521 70.3095C91.081 71.0378 90.1898 71.3274 89.4615 70.9563Z" fill="#FCEE21"/>
<path d="M85.9889 69.2028C85.2606 68.8317 84.971 67.9405 85.3421 67.2122C85.7132 66.4839 86.6044 66.1943 87.3327 66.5654C88.061 66.9365 88.3505 67.8277 87.9795 68.556C87.6084 69.2843 86.7172 69.5739 85.9889 69.2028Z" fill="#FCEE21"/>
<path d="M94.5194 69.2868C93.7643 68.974 93.4057 68.1083 93.7185 67.3531C94.0313 66.598 94.897 66.2394 95.6522 66.5522C96.4074 66.865 96.766 67.7307 96.4532 68.4859C96.1404 69.241 95.2746 69.5996 94.5194 69.2868Z" fill="#FCEE21"/>
<path d="M90.9135 67.7926C90.1583 67.4798 89.7997 66.614 90.1125 65.8589C90.4253 65.1037 91.2911 64.7451 92.0462 65.0579C92.8014 65.3707 93.16 66.2364 92.8472 66.9916C92.5344 67.7468 91.6687 68.1054 90.9135 67.7926Z" fill="#FCEE21"/>
<path d="M87.3271 66.3122C86.5719 65.9994 86.2133 65.1337 86.5261 64.3785C86.8389 63.6234 87.7046 63.2648 88.4598 63.5775C89.215 63.8903 89.5736 64.7561 89.2608 65.5113C88.948 66.2664 88.0822 66.625 87.3271 66.3122Z" fill="#FCEE21"/>
<path d="M95.8272 65.731C95.0498 65.4784 94.6244 64.6434 94.8769 63.866C95.1295 63.0887 95.9645 62.6632 96.7419 62.9158C97.5192 63.1684 97.9447 64.0034 97.6921 64.7807C97.4395 65.5581 96.6045 65.9835 95.8272 65.731Z" fill="#FCEE21"/>
<path d="M92.1289 64.5262C91.3515 64.2737 90.9261 63.4387 91.1787 62.6613C91.4313 61.884 92.2662 61.4585 93.0436 61.7111C93.821 61.9637 94.2464 62.7986 93.9938 63.576C93.7412 64.3534 92.9063 64.7788 92.1289 64.5262Z" fill="#FCEE21"/>
<path d="M88.4238 63.3221C87.6465 63.0696 87.221 62.2346 87.4736 61.4572C87.7262 60.6799 88.5612 60.2544 89.3385 60.507C90.1159 60.7596 90.5413 61.5945 90.2887 62.3719C90.0362 63.1493 89.2012 63.5747 88.4238 63.3221Z" fill="#FCEE21"/>
<path d="M96.8577 62.0649C96.0629 61.8741 95.5733 61.0751 95.7641 60.2803C95.9549 59.4855 96.7539 58.9959 97.5487 59.1867C98.3435 59.3775 98.8331 60.1765 98.6423 60.9713C98.4515 61.7661 97.6525 62.2558 96.8577 62.0649Z" fill="#FCEE21"/>
<path d="M93.0725 61.165C92.2777 60.9742 91.7881 60.1752 91.9789 59.3804C92.1697 58.5856 92.9687 58.096 93.7635 58.2868C94.5583 58.4776 95.048 59.2766 94.8571 60.0714C94.6663 60.8662 93.8673 61.3559 93.0725 61.165Z" fill="#FCEE21"/>
<path d="M89.2893 60.2577C88.4945 60.0669 88.0049 59.2679 88.1957 58.4731C88.3865 57.6783 89.1855 57.1887 89.9803 57.3795C90.7751 57.5703 91.2647 58.3693 91.0739 59.1641C90.8831 59.9589 90.0841 60.4485 89.2893 60.2577Z" fill="#FCEE21"/>
<path d="M97.5937 58.3543C96.7864 58.2264 96.2356 57.4683 96.3635 56.661C96.4913 55.8536 97.2495 55.3028 98.0568 55.4307C98.8641 55.5586 99.4149 56.3167 99.287 57.124C99.1592 57.9313 98.401 58.4821 97.5937 58.3543Z" fill="#FCEE21"/>
<path d="M93.5407 57.852C92.7315 57.7213 92.1815 56.9593 92.3123 56.15C92.4431 55.3408 93.2051 54.7909 94.0143 54.9216C94.8235 55.0524 95.3735 55.8144 95.2427 56.6236C95.1119 57.4329 94.3499 57.9828 93.5407 57.852Z" fill="#FCEE21"/>
<path d="M89.6969 57.2238C88.8877 57.093 88.3378 56.331 88.4685 55.5218C88.5993 54.7125 89.3613 54.1626 90.1705 54.2934C90.9798 54.4241 91.5297 55.1861 91.3989 55.9954C91.2682 56.8046 90.5061 57.3545 89.6969 57.2238Z" fill="#FCEE21"/>
<path d="M98.0355 54.5855C97.2206 54.5214 96.612 53.8088 96.6762 52.9939C96.7403 52.1791 97.4529 51.5705 98.2677 51.6346C99.0826 51.6987 99.6912 52.4113 99.627 53.2262C99.5629 54.041 98.8503 54.6496 98.0355 54.5855Z" fill="#FCEE21"/>
<path d="M94.162 54.2721C93.3471 54.208 92.7385 53.4954 92.8026 52.6806C92.8668 51.8657 93.5793 51.2571 94.3942 51.3213C95.2091 51.3854 95.8176 52.098 95.7535 52.9128C95.6894 53.7277 94.9768 54.3363 94.162 54.2721Z" fill="#FCEE21"/>
<path d="M90.2874 53.9794C89.4726 53.9153 88.864 53.2027 88.9281 52.3879C88.9923 51.573 89.7048 50.9644 90.5197 51.0285C91.3345 51.0927 91.9431 51.8052 91.879 52.6201C91.8149 53.435 91.1023 54.0435 90.2874 53.9794Z" fill="#FCEE21"/>
<path d="M98.1953 50.79C97.3779 50.79 96.7153 50.1273 96.7153 49.31C96.7153 48.4926 97.3779 47.83 98.1953 47.83C99.0127 47.83 99.6753 48.4926 99.6753 49.31C99.6753 50.1273 99.0127 50.79 98.1953 50.79Z" fill="#FCEE21"/>
<path d="M94.3056 50.79C93.4883 50.79 92.8256 50.1273 92.8256 49.31C92.8256 48.4926 93.4883 47.83 94.3056 47.83C95.123 47.83 95.7856 48.4926 95.7856 49.31C95.7856 50.1273 95.123 50.79 94.3056 50.79Z" fill="#FCEE21"/>
<path d="M90.4053 50.79C89.5879 50.79 88.9253 50.1273 88.9253 49.31C88.9253 48.4926 89.5879 47.83 90.4053 47.83C91.2226 47.83 91.8853 48.4926 91.8853 49.31C91.8853 50.1273 91.2226 50.79 90.4053 50.79Z" fill="#FCEE21"/>
<path d="M96.4501 45.6454C96.386 44.8305 96.9946 44.1179 97.8094 44.0538C98.6243 43.9897 99.3368 44.5983 99.401 45.4131C99.4651 46.228 98.8565 46.9405 98.0417 47.0047C97.2268 47.0688 96.5142 46.4602 96.4501 45.6454Z" fill="#FCEE21"/>
<path d="M92.5766 45.9508C92.5124 45.1359 93.121 44.4233 93.9359 44.3592C94.7507 44.2951 95.4633 44.9037 95.5274 45.7185C95.5916 46.5334 94.983 47.246 94.1681 47.3101C93.3533 47.3742 92.6407 46.7656 92.5766 45.9508Z" fill="#FCEE21"/>
<path d="M88.6928 46.257C88.6286 45.4422 89.2372 44.7296 90.0521 44.6655C90.867 44.6014 91.5795 45.2099 91.6436 46.0248C91.7078 46.8397 91.0992 47.5522 90.2843 47.6164C89.4695 47.6805 88.7569 47.0719 88.6928 46.257Z" fill="#FCEE21"/>
<path d="M95.8942 42.0093C95.7664 41.202 96.3172 40.4439 97.1245 40.316C97.9318 40.1882 98.6899 40.739 98.8178 41.5463C98.9457 42.3536 98.3949 43.1117 97.5875 43.2396C96.7802 43.3674 96.0221 42.8166 95.8942 42.0093Z" fill="#FCEE21"/>
<path d="M92.0612 42.6205C91.9334 41.8132 92.4842 41.0551 93.2915 40.9272C94.0988 40.7994 94.8569 41.3502 94.9848 42.1575C95.1127 42.9648 94.5618 43.7229 93.7545 43.8508C92.9472 43.9787 92.1891 43.4278 92.0612 42.6205Z" fill="#FCEE21"/>
<path d="M88.2165 43.2233C88.0886 42.416 88.6394 41.6579 89.4468 41.53C90.2541 41.4021 91.0122 41.9529 91.1401 42.7603C91.2679 43.5676 90.7171 44.3257 89.9098 44.4536C89.1025 44.5814 88.3444 44.0306 88.2165 43.2233Z" fill="#FCEE21"/>
<path d="M95.0732 38.429C94.8823 37.6342 95.372 36.8352 96.1668 36.6444C96.9616 36.4536 97.7606 36.9432 97.9514 37.738C98.1422 38.5328 97.6526 39.3318 96.8578 39.5226C96.063 39.7134 95.264 39.2238 95.0732 38.429Z" fill="#CCCCCC"/>
<path d="M91.2836 39.3261C91.0928 38.5313 91.5824 37.7323 92.3772 37.5415C93.172 37.3507 93.971 37.8403 94.1618 38.6351C94.3526 39.4299 93.863 40.2289 93.0682 40.4197C92.2734 40.6105 91.4744 40.1209 91.2836 39.3261Z" fill="#CCCCCC"/>
<path d="M87.5058 40.2407C87.315 39.4459 87.8046 38.6469 88.5994 38.4561C89.3942 38.2652 90.1932 38.7549 90.384 39.5497C90.5748 40.3445 90.0852 41.1435 89.2904 41.3343C88.4956 41.5251 87.6966 41.0355 87.5058 40.2407Z" fill="#CCCCCC"/>
<path d="M93.9536 34.908C93.701 34.1306 94.1264 33.2957 94.9038 33.0431C95.6812 32.7905 96.5161 33.2159 96.7687 33.9933C97.0213 34.7707 96.5959 35.6056 95.8185 35.8582C95.0411 36.1108 94.2062 35.6854 93.9536 34.908Z" fill="#CCCCCC"/>
<path d="M90.2588 36.1199C90.0062 35.3425 90.4316 34.5076 91.209 34.255C91.9864 34.0024 92.8213 34.4279 93.0739 35.2052C93.3265 35.9826 92.9011 36.8176 92.1237 37.0701C91.3463 37.3227 90.5114 36.8973 90.2588 36.1199Z" fill="#CCCCCC"/>
<path d="M86.5644 37.3218C86.3119 36.5444 86.7373 35.7095 87.5147 35.4569C88.292 35.2043 89.127 35.6298 89.3796 36.4071C89.6322 37.1845 89.2067 38.0195 88.4294 38.272C87.652 38.5246 86.817 38.0992 86.5644 37.3218Z" fill="#CCCCCC"/>
<path d="M92.5744 31.5001C92.2616 30.745 92.6202 29.8792 93.3754 29.5664C94.1306 29.2536 94.9963 29.6122 95.3091 30.3674C95.6219 31.1226 95.2633 31.9883 94.5081 32.3011C93.753 32.6139 92.8872 32.2553 92.5744 31.5001Z" fill="#CCCCCC"/>
<path d="M88.9841 33.0036C88.6713 32.2484 89.0299 31.3826 89.7851 31.0698C90.5402 30.757 91.406 31.1157 91.7188 31.8708C92.0316 32.626 91.673 33.4917 90.9178 33.8045C90.1627 34.1173 89.2969 33.7587 88.9841 33.0036Z" fill="#CCCCCC"/>
<path d="M85.3899 34.4878C85.0771 33.7327 85.4357 32.8669 86.1908 32.5541C86.946 32.2413 87.8117 32.5999 88.1245 33.3551C88.4373 34.1102 88.0787 34.976 87.3236 35.2888C86.5684 35.6016 85.7027 35.243 85.3899 34.4878Z" fill="#CCCCCC"/>
<path d="M90.9407 28.2196C90.5696 27.4913 90.8592 26.6001 91.5875 26.229C92.3158 25.8579 93.207 26.1475 93.5781 26.8758C93.9492 27.6041 93.6596 28.4953 92.9313 28.8664C92.203 29.2374 91.3118 28.9479 90.9407 28.2196Z" fill="#CCCCCC"/>
<path d="M87.4685 29.9813C87.0975 29.253 87.387 28.3618 88.1153 27.9907C88.8436 27.6196 89.7348 27.9092 90.1059 28.6375C90.477 29.3658 90.1874 30.257 89.4591 30.6281C88.7309 30.9992 87.8396 30.7096 87.4685 29.9813Z" fill="#CCCCCC"/>
<path d="M83.9959 31.7431C83.6248 31.0148 83.9144 30.1236 84.6427 29.7525C85.371 29.3815 86.2622 29.671 86.6333 30.3993C87.0044 31.1276 86.7148 32.0188 85.9865 32.3899C85.2582 32.761 84.367 32.4714 83.9959 31.7431Z" fill="#CCCCCC"/>
<path d="M89.0344 25.0645C88.6073 24.3675 88.8261 23.4563 89.523 23.0293C90.22 22.6022 91.1312 22.8209 91.5582 23.5179C91.9853 24.2148 91.7666 25.126 91.0696 25.5531C90.3727 25.9802 89.4615 25.7614 89.0344 25.0645Z" fill="#CCCCCC"/>
<path d="M85.719 27.0944C85.2919 26.3974 85.5107 25.4863 86.2076 25.0592C86.9045 24.6321 87.8157 24.8509 88.2428 25.5478C88.6699 26.2447 88.4511 27.1559 87.7542 27.583C87.0573 28.0101 86.1461 27.7913 85.719 27.0944Z" fill="#CCCCCC"/>
<path d="M82.4002 29.1381C81.9731 28.4411 82.1918 27.53 82.8888 27.1029C83.5857 26.6758 84.4969 26.8946 84.924 27.5915C85.351 28.2884 85.1323 29.1996 84.4354 29.6267C83.7384 30.0538 82.8272 29.835 82.4002 29.1381Z" fill="#CCCCCC"/>
<path d="M86.8994 22.0747C86.419 21.4135 86.5656 20.4879 87.2269 20.0075C87.8881 19.527 88.8137 19.6736 89.2941 20.3349C89.7746 20.9962 89.628 21.9217 88.9667 22.4021C88.3054 22.8826 87.3799 22.736 86.8994 22.0747Z" fill="#CCCCCC"/>
<path d="M83.7452 24.3624C83.2647 23.7012 83.4113 22.7756 84.0726 22.2952C84.7339 21.8147 85.6594 21.9613 86.1398 22.6226C86.6203 23.2839 86.4737 24.2094 85.8124 24.6899C85.1511 25.1703 84.2256 25.0237 83.7452 24.3624Z" fill="#CCCCCC"/>
<path d="M80.5992 26.6442C80.1187 25.9829 80.2653 25.0574 80.9266 24.5769C81.5879 24.0965 82.5134 24.2431 82.9938 24.9043C83.4743 25.5656 83.3277 26.4912 82.6664 26.9716C82.0051 27.4521 81.0796 27.3055 80.5992 26.6442Z" fill="#CCCCCC"/>
<path d="M84.5273 19.2592C83.9964 18.6377 84.0699 17.7035 84.6915 17.1727C85.313 16.6418 86.2472 16.7153 86.7781 17.3369C87.3089 17.9584 87.2354 18.8926 86.6139 19.4235C85.9923 19.9543 85.0581 19.8808 84.5273 19.2592Z" fill="#CCCCCC"/>
<path d="M81.5712 21.7816C81.0404 21.16 81.1139 20.2258 81.7354 19.695C82.357 19.1642 83.2912 19.2377 83.822 19.8592C84.3529 20.4808 84.2793 21.415 83.6578 21.9458C83.0363 22.4766 82.1021 22.4031 81.5712 21.7816Z" fill="#CCCCCC"/>
<path d="M78.6049 24.3138C78.0741 23.6923 78.1476 22.7581 78.7691 22.2272C79.3907 21.6964 80.3249 21.7699 80.8557 22.3914C81.3866 23.013 81.313 23.9472 80.6915 24.478C80.07 25.0089 79.1358 24.9354 78.6049 24.3138Z" fill="#CCCCCC"/>
<path d="M81.9478 16.6387C81.3699 16.0607 81.3699 15.1236 81.9478 14.5456C82.5258 13.9677 83.4629 13.9677 84.0409 14.5456C84.6189 15.1236 84.6189 16.0607 84.0409 16.6387C83.4629 17.2167 82.5258 17.2167 81.9478 16.6387Z" fill="#CCCCCC"/>
<path d="M79.1915 19.3816C78.6135 18.8036 78.6135 17.8665 79.1915 17.2886C79.7695 16.7106 80.7066 16.7106 81.2845 17.2886C81.8625 17.8665 81.8625 18.8036 81.2845 19.3816C80.7066 19.9596 79.7695 19.9596 79.1915 19.3816Z" fill="#CCCCCC"/>
<path d="M76.4425 22.1316C75.8645 21.5536 75.8645 20.6165 76.4425 20.0386C77.0205 19.4606 77.9575 19.4606 78.5355 20.0386C79.1135 20.6165 79.1135 21.5536 78.5355 22.1316C77.9575 22.7096 77.0205 22.7096 76.4425 22.1316Z" fill="#CCCCCC"/>
<path d="M79.1598 14.2196C78.5382 13.6887 78.4647 12.7545 78.9955 12.133C79.5264 11.5114 80.4606 11.4379 81.0821 11.9687C81.7037 12.4996 81.7772 13.4338 81.2463 14.0553C80.7155 14.6769 79.7813 14.7504 79.1598 14.2196Z" fill="#CCCCCC"/>
<path d="M76.6339 17.1773C76.0123 16.6465 75.9388 15.7123 76.4697 15.0907C77.0005 14.4692 77.9347 14.3957 78.5562 14.9265C79.1778 15.4574 79.2513 16.3916 78.7205 17.0131C78.1896 17.6346 77.2554 17.7082 76.6339 17.1773Z" fill="#CCCCCC"/>
<path d="M74.1119 20.1339C73.4904 19.603 73.4168 18.6688 73.9477 18.0473C74.4785 17.4257 75.4127 17.3522 76.0343 17.8831C76.6558 18.4139 76.7293 19.3481 76.1985 19.9696C75.6676 20.5912 74.7334 20.6647 74.1119 20.1339Z" fill="#CCCCCC"/>
<path d="M76.2078 12.0342C75.5466 11.5537 75.4 10.6282 75.8804 9.9669C76.3609 9.30563 77.2864 9.15903 77.9477 9.63948C78.609 10.1199 78.7555 11.0455 78.2751 11.7067C77.7947 12.368 76.8691 12.5146 76.2078 12.0342Z" fill="#CCCCCC"/>
<path d="M73.9139 15.1865C73.2526 14.7061 73.106 13.7805 73.5865 13.1192C74.0669 12.458 74.9925 12.3114 75.6537 12.7918C76.315 13.2723 76.4616 14.1978 75.9812 14.8591C75.5007 15.5204 74.5752 15.667 73.9139 15.1865Z" fill="#CCCCCC"/>
<path d="M71.6278 18.3347C70.9665 17.8543 70.8199 16.9287 71.3003 16.2674C71.7808 15.6062 72.7063 15.4596 73.3676 15.94C74.0289 16.4205 74.1755 17.346 73.695 18.0073C73.2146 18.6686 72.289 18.8152 71.6278 18.3347Z" fill="#CCCCCC"/>
<path d="M73.086 10.0872C72.3891 9.66011 72.1703 8.74891 72.5974 8.05198C73.0245 7.35505 73.9357 7.13629 74.6326 7.56337C75.3296 7.99045 75.5483 8.90165 75.1212 9.59858C74.6942 10.2955 73.783 10.5143 73.086 10.0872Z" fill="#CCCCCC"/>
<path d="M71.0504 13.4173C70.3535 12.9902 70.1347 12.079 70.5618 11.3821C70.9889 10.6851 71.9 10.4664 72.597 10.8935C73.2939 11.3205 73.5127 12.2317 73.0856 12.9287C72.6585 13.6256 71.7473 13.8443 71.0504 13.4173Z" fill="#CCCCCC"/>
<path d="M69.0113 16.7237C68.3144 16.2966 68.0956 15.3854 68.5227 14.6885C68.9498 13.9915 69.861 13.7728 70.5579 14.1998C71.2548 14.6269 71.4736 15.5381 71.0465 16.2351C70.6194 16.932 69.7083 17.1507 69.0113 16.7237Z" fill="#CCCCCC"/>
<path d="M69.8145 8.39406C69.0863 8.02298 68.7967 7.13176 69.1678 6.40347C69.5388 5.67517 70.4301 5.3856 71.1584 5.75668C71.8867 6.12777 72.1762 7.01899 71.8051 7.74728C71.4341 8.47557 70.5428 8.76515 69.8145 8.39406Z" fill="#CCCCCC"/>
<path d="M68.0558 11.8579C67.3275 11.4868 67.0379 10.5956 67.409 9.86733C67.7801 9.13904 68.6713 8.84947 69.3996 9.22055C70.1279 9.59163 70.4174 10.4829 70.0464 11.2111C69.6753 11.9394 68.7841 12.229 68.0558 11.8579Z" fill="#CCCCCC"/>
<path d="M66.2833 15.3261C65.555 14.955 65.2654 14.0638 65.6365 13.3355C66.0076 12.6072 66.8988 12.3176 67.6271 12.6887C68.3554 13.0598 68.645 13.951 68.2739 14.6793C67.9028 15.4076 67.0116 15.6972 66.2833 15.3261Z" fill="#CCCCCC"/>
<path d="M66.4301 6.96189C65.6749 6.64909 65.3163 5.78334 65.6291 5.02818C65.9419 4.27302 66.8077 3.91441 67.5628 4.22721C68.318 4.54001 68.6766 5.40576 68.3638 6.16092C68.051 6.91608 67.1853 7.27469 66.4301 6.96189Z" fill="#CCCCCC"/>
<path d="M64.936 10.5576C64.1808 10.2448 63.8222 9.37904 64.135 8.62388C64.4478 7.86872 65.3135 7.51011 66.0687 7.82291C66.8239 8.13571 67.1825 9.00146 66.8697 9.75662C66.5569 10.5118 65.6911 10.8704 64.936 10.5576Z" fill="#CCCCCC"/>
<path d="M63.4555 14.1441C62.7003 13.8313 62.3417 12.9656 62.6545 12.2104C62.9673 11.4553 63.8331 11.0967 64.5882 11.4095C65.3434 11.7223 65.702 12.588 65.3892 13.3432C65.0764 14.0983 64.2106 14.4569 63.4555 14.1441Z" fill="#CCCCCC"/>
<path d="M62.9699 5.75969C62.1933 5.50631 61.7693 4.67141 62.0227 3.89489C62.276 3.11838 63.1109 2.69431 63.8875 2.94769C64.664 3.20108 65.088 4.03598 64.8347 4.81249C64.5813 5.58901 63.7464 6.01308 62.9699 5.75969Z" fill="#CCCCCC"/>
<path d="M61.7417 9.49865C60.9643 9.24607 60.5389 8.41112 60.7915 7.63374C61.0441 6.85637 61.879 6.43094 62.6564 6.68352C63.4338 6.93611 63.8592 7.77106 63.6066 8.54843C63.354 9.32581 62.5191 9.75124 61.7417 9.49865Z" fill="#CCCCCC"/>
<path d="M60.5371 13.1966C59.7597 12.9441 59.3343 12.1091 59.5869 11.3317C59.8395 10.5544 60.6744 10.1289 61.4518 10.3815C62.2292 10.6341 62.6546 11.4691 62.402 12.2464C62.1494 13.0238 61.3145 13.4492 60.5371 13.1966Z" fill="#CCCCCC"/>
<path d="M59.3675 4.91235C58.5727 4.72154 58.083 3.92255 58.2738 3.12775C58.4647 2.33295 59.2637 1.84333 60.0585 2.03414C60.8532 2.22495 61.3429 3.02395 61.1521 3.81875C60.9612 4.61354 60.1623 5.10317 59.3675 4.91235Z" fill="#CCCCCC"/>
<path d="M58.4578 8.69519C57.663 8.50438 57.1734 7.70538 57.3642 6.91059C57.555 6.11579 58.354 5.62616 59.1488 5.81698C59.9436 6.00779 60.4332 6.80679 60.2424 7.60158C60.0516 8.39638 59.2526 8.886 58.4578 8.69519Z" fill="#CCCCCC"/>
<path d="M57.5506 12.4784C56.7558 12.2876 56.2661 11.4886 56.457 10.6938C56.6478 9.89899 57.4468 9.40937 58.2416 9.60018C59.0364 9.79099 59.526 10.59 59.3352 11.3848C59.1444 12.1796 58.3454 12.6692 57.5506 12.4784Z" fill="#CCCCCC"/>
<path d="M55.7324 4.3113C54.9251 4.18343 54.3743 3.42531 54.5021 2.618C54.63 1.81068 55.3881 1.25987 56.1954 1.38774C57.0028 1.51561 57.5536 2.27372 57.4257 3.08104C57.2978 3.88836 56.5397 4.43916 55.7324 4.3113Z" fill="#CCCCCC"/>
<path d="M55.1294 8.15016C54.3221 8.0223 53.7713 7.26418 53.8991 6.45686C54.027 5.64954 54.7851 5.09874 55.5924 5.22661C56.3997 5.35447 56.9505 6.11259 56.8227 6.91991C56.6948 7.72723 55.9367 8.27803 55.1294 8.15016Z" fill="#CCCCCC"/>
<path d="M54.5263 11.9874C53.719 11.8596 53.1682 11.1015 53.2961 10.2941C53.424 9.48682 54.1821 8.93602 54.9894 9.06389C55.7967 9.19175 56.3475 9.94987 56.2196 10.7572C56.0918 11.5645 55.3337 12.1153 54.5263 11.9874Z" fill="#CCCCCC"/>
<path d="M52.0662 3.99479C51.2514 3.93066 50.6428 3.21809 50.7069 2.40323C50.7711 1.58837 51.4836 0.979783 52.2985 1.04391C53.1133 1.10805 53.7219 1.82061 53.6578 2.63547C53.5937 3.45033 52.8811 4.05892 52.0662 3.99479Z" fill="#FCEE21"/>
<path d="M51.7728 7.87919C50.9579 7.81506 50.3493 7.10249 50.4135 6.28763C50.4776 5.47277 51.1902 4.86418 52.005 4.92831C52.8199 4.99245 53.4285 5.70501 53.3643 6.51987C53.3002 7.33473 52.5877 7.94332 51.7728 7.87919Z" fill="#FCEE21"/>
<path d="M51.4603 11.743C50.6454 11.6788 50.0368 10.9663 50.101 10.1514C50.1651 9.33654 50.8777 8.72795 51.6925 8.79208C52.5074 8.85621 53.116 9.56878 53.0518 10.3836C52.9877 11.1985 52.2752 11.8071 51.4603 11.743Z" fill="#FCEE21"/>
<path d="M48.3955 3.96C47.5781 3.96 46.9155 3.29738 46.9155 2.48C46.9155 1.66262 47.5781 1 48.3955 1C49.2129 1 49.8755 1.66262 49.8755 2.48C49.8755 3.29738 49.2129 3.96 48.3955 3.96Z" fill="#FCEE21"/>
<path d="M48.3955 7.86002C47.5781 7.86002 46.9155 7.19741 46.9155 6.38002C46.9155 5.56264 47.5781 4.90002 48.3955 4.90002C49.2129 4.90002 49.8755 5.56264 49.8755 6.38002C49.8755 7.19741 49.2129 7.86002 48.3955 7.86002Z" fill="#FCEE21"/>
<path d="M48.3955 11.75C47.5781 11.75 46.9155 11.0874 46.9155 10.27C46.9155 9.45266 47.5781 8.79004 48.3955 8.79004C49.2129 8.79004 49.8755 9.45266 49.8755 10.27C49.8755 11.0874 49.2129 11.75 48.3955 11.75Z" fill="#FCEE21"/>
<path d="M39.7637 55.3C37.5637 55.3 36.0037 54.63 35.0837 53.29C34.1637 51.95 33.7037 50.12 33.7037 47.8C33.7037 45.04 34.1337 42.48 34.9937 40.12C35.8537 37.76 37.0537 35.88 38.5937 34.48C40.1537 33.06 41.9237 32.35 43.9037 32.35C45.8237 32.35 47.2637 32.99 48.2237 34.27C49.2037 35.55 49.6937 37.31 49.6937 39.55C49.6937 41.77 49.3537 44.1 48.6737 46.54C47.9937 48.96 46.9037 51.03 45.4037 52.75C43.9237 54.45 42.0437 55.3 39.7637 55.3ZM40.1537 53.05C41.0937 53.05 41.9837 52.33 42.8237 50.89C43.6637 49.45 44.3337 47.6 44.8337 45.34C45.3537 43.08 45.6137 40.8 45.6137 38.5C45.6137 37.24 45.4637 36.2 45.1637 35.38C44.8637 34.54 44.4337 34.12 43.8737 34.12C42.9537 34.12 42.0537 34.85 41.1737 36.31C40.2937 37.77 39.5737 39.63 39.0137 41.89C38.4537 44.15 38.1737 46.37 38.1737 48.55C38.1737 51.55 38.8337 53.05 40.1537 53.05ZM54.9817 55.09C53.6617 55.09 52.6017 54.78 51.8017 54.16C51.0217 53.54 50.6317 52.72 50.6317 51.7C50.6317 50.92 50.8417 50.26 51.2617 49.72C51.6817 49.18 52.1917 48.91 52.7917 48.91C53.1517 48.91 53.4717 49 53.7517 49.18C54.0517 49.36 54.2417 49.59 54.3217 49.87C54.0217 50.05 53.7817 50.3 53.6017 50.62C53.4417 50.92 53.3617 51.24 53.3617 51.58C53.3617 52 53.4817 52.35 53.7217 52.63C53.9817 52.91 54.3617 53.05 54.8617 53.05C55.6817 53.05 56.4717 52.62 57.2317 51.76C57.9917 50.9 58.6517 49.71 59.2117 48.19C59.7717 46.67 60.1717 44.98 60.4117 43.12L60.3217 43.15C59.9617 44.07 59.3717 44.77 58.5517 45.25C57.7517 45.73 56.7917 45.97 55.6717 45.97C54.2717 45.97 53.1517 45.51 52.3117 44.59C51.4717 43.65 51.0517 42.38 51.0517 40.78C51.0517 39.32 51.4317 37.96 52.1917 36.7C52.9717 35.42 54.0017 34.4 55.2817 33.64C56.5617 32.88 57.9417 32.5 59.4217 32.5C61.2617 32.5 62.6517 33.17 63.5917 34.51C64.5317 35.83 65.0017 37.79 65.0017 40.39C65.0017 43.09 64.5617 45.56 63.6817 47.8C62.8017 50.04 61.5917 51.82 60.0517 53.14C58.5117 54.44 56.8217 55.09 54.9817 55.09ZM56.9617 43.78C58.2617 43.78 59.2117 43.29 59.8117 42.31C60.4117 41.33 60.7117 39.98 60.7117 38.26C60.7117 35.72 59.9817 34.45 58.5217 34.45C57.8617 34.45 57.2517 34.76 56.6917 35.38C56.1317 35.98 55.6817 36.76 55.3417 37.72C55.0217 38.68 54.8617 39.67 54.8617 40.69C54.8617 41.75 55.0517 42.53 55.4317 43.03C55.8117 43.53 56.3217 43.78 56.9617 43.78Z" fill="white"/>
</svg>
