<svg width="100" height="100" viewBox="0 0 100 100" fill="none" xmlns="http://www.w3.org/2000/svg">
<g clip-path="url(#clip0)">
<path d="M1.55422 49.79C2.3716 49.79 3.03422 49.1273 3.03422 48.31C3.03422 47.4926 2.3716 46.83 1.55422 46.83C0.736837 46.83 0.0742188 47.4926 0.0742188 48.31C0.0742188 49.1273 0.736837 49.79 1.55422 49.79Z" fill="#FCEE21"/>
<path d="M5.44387 49.79C6.26125 49.79 6.92387 49.1273 6.92387 48.31C6.92387 47.4926 6.26125 46.83 5.44387 46.83C4.62649 46.83 3.96387 47.4926 3.96387 48.31C3.96387 49.1273 4.62649 49.79 5.44387 49.79Z" fill="#FCEE21"/>
<path d="M9.34426 49.79C10.1616 49.79 10.8243 49.1273 10.8243 48.31C10.8243 47.4926 10.1616 46.83 9.34426 46.83C8.52688 46.83 7.86426 47.4926 7.86426 48.31C7.86426 49.1273 8.52688 49.79 9.34426 49.79Z" fill="#FCEE21"/>
<path d="M3.44412 44.7108C3.50951 43.8934 2.8999 43.1778 2.08252 43.1124C1.26514 43.047 0.549513 43.6566 0.484123 44.474C0.418732 45.2914 1.02834 46.007 1.84572 46.0724C2.6631 46.1378 3.37873 45.5282 3.44412 44.7108Z" fill="#FCEE21"/>
<path d="M7.17295 44.9508C7.23709 44.1359 6.6285 43.4233 5.81364 43.3592C4.99878 43.2951 4.28621 43.9037 4.22208 44.7185C4.15795 45.5334 4.76654 46.246 5.5814 46.3101C6.39626 46.3742 7.10882 45.7656 7.17295 44.9508Z" fill="#FCEE21"/>
<path d="M11.2151 45.2996C11.2805 44.4823 10.6709 43.7666 9.85352 43.7012C9.03614 43.6359 8.32051 44.2455 8.25512 45.0628C8.18973 45.8802 8.79934 46.5959 9.61672 46.6612C10.4341 46.7266 11.1497 46.117 11.2151 45.2996Z" fill="#FCEE21"/>
<path d="M3.85527 41.0093C3.98314 40.202 3.43234 39.4439 2.62502 39.316C1.8177 39.1882 1.05958 39.739 0.931718 40.5463C0.803852 41.3536 1.35466 42.1117 2.16197 42.2396C2.96929 42.3674 3.72741 41.8166 3.85527 41.0093Z" fill="#FCEE21"/>
<path d="M7.68828 41.6205C7.81615 40.8132 7.26535 40.0551 6.45803 39.9272C5.65071 39.7994 4.89259 40.3502 4.76473 41.1575C4.63686 41.9648 5.18766 42.7229 5.99498 42.8508C6.8023 42.9787 7.56042 42.4278 7.68828 41.6205Z" fill="#FCEE21"/>
<path d="M11.533 42.2233C11.6609 41.416 11.1101 40.6579 10.3028 40.53C9.49544 40.4021 8.73732 40.9529 8.60945 41.7603C8.48159 42.5676 9.03239 43.3257 9.83971 43.4536C10.647 43.5814 11.4051 43.0306 11.533 42.2233Z" fill="#FCEE21"/>
<path d="M4.67635 37.429C4.86717 36.6342 4.37754 35.8352 3.58275 35.6444C2.78795 35.4536 1.98895 35.9432 1.79814 36.738C1.60732 37.5328 2.09695 38.3318 2.89175 38.5226C3.68654 38.7134 4.48554 38.2238 4.67635 37.429Z" fill="#FCEE21"/>
<path d="M8.4659 38.3261C8.65672 37.5313 8.16709 36.7323 7.3723 36.5415C6.5775 36.3507 5.7785 36.8403 5.58769 37.6351C5.39687 38.4299 5.8865 39.2289 6.6813 39.4197C7.4761 39.6105 8.27509 39.1209 8.4659 38.3261Z" fill="#FCEE21"/>
<path d="M12.2437 39.2407C12.4345 38.4459 11.9449 37.6469 11.1501 37.4561C10.3553 37.2652 9.55633 37.7549 9.36552 38.5497C9.1747 39.3445 9.66433 40.1435 10.4591 40.3343C11.2539 40.5251 12.0529 40.0355 12.2437 39.2407Z" fill="#FCEE21"/>
<path d="M5.79591 33.908C6.04849 33.1306 5.62307 32.2957 4.84569 32.0431C4.06832 31.7905 3.23337 32.2159 2.98078 32.9933C2.7282 33.7707 3.15362 34.6056 3.931 34.8582C4.70838 35.1108 5.54332 34.6854 5.79591 33.908Z" fill="#FCEE21"/>
<path d="M9.49073 35.1199C9.74332 34.3425 9.31789 33.5076 8.54052 33.255C7.76314 33.0024 6.92819 33.4279 6.67561 34.2052C6.42302 34.9826 6.84845 35.8176 7.62582 36.0701C8.4032 36.3227 9.23815 35.8973 9.49073 35.1199Z" fill="#FCEE21"/>
<path d="M13.1851 36.3218C13.4377 35.5444 13.0122 34.7095 12.2349 34.4569C11.4575 34.2043 10.6225 34.6298 10.3699 35.4071C10.1174 36.1845 10.5428 37.0195 11.3202 37.272C12.0975 37.5246 12.9325 37.0992 13.1851 36.3218Z" fill="#FCEE21"/>
<path d="M7.17508 30.5001C7.48788 29.745 7.12927 28.8792 6.37411 28.5664C5.61895 28.2536 4.75319 28.6122 4.44039 29.3674C4.1276 30.1226 4.4862 30.9883 5.24137 31.3011C5.99653 31.6139 6.86228 31.2553 7.17508 30.5001Z" fill="#FCEE21"/>
<path d="M10.7654 32.0036C11.0782 31.2484 10.7196 30.3826 9.96444 30.0698C9.20928 29.757 8.34353 30.1157 8.03073 30.8708C7.71793 31.626 8.07653 32.4917 8.8317 32.8045C9.58686 33.1173 10.4526 32.7587 10.7654 32.0036Z" fill="#FCEE21"/>
<path d="M14.3596 33.4878C14.6724 32.7327 14.3138 31.8669 13.5587 31.5541C12.8035 31.2413 11.9378 31.5999 11.625 32.3551C11.3122 33.1102 11.6708 33.976 12.4259 34.2888C13.1811 34.6016 14.0469 34.243 14.3596 33.4878Z" fill="#FCEE21"/>
<path d="M8.8088 27.2196C9.17988 26.4913 8.89031 25.6001 8.16201 25.229C7.43372 24.8579 6.5425 25.1475 6.17142 25.8758C5.80033 26.6041 6.08991 27.4953 6.8182 27.8664C7.54649 28.2374 8.43771 27.9479 8.8088 27.2196Z" fill="#FCEE21"/>
<path d="M12.281 28.9813C12.652 28.253 12.3625 27.3618 11.6342 26.9907C10.9059 26.6196 10.0147 26.9092 9.64359 27.6375C9.2725 28.3658 9.56208 29.257 10.2904 29.6281C11.0187 29.9992 11.9099 29.7096 12.281 28.9813Z" fill="#FCEE21"/>
<path d="M15.7536 30.7431C16.1247 30.0148 15.8351 29.1236 15.1068 28.7525C14.3785 28.3815 13.4873 28.671 13.1162 29.3993C12.7452 30.1276 13.0347 31.0188 13.763 31.3899C14.4913 31.761 15.3825 31.4714 15.7536 30.7431Z" fill="#FCEE21"/>
<path d="M10.7151 24.0645C11.1422 23.3675 10.9234 22.4563 10.2265 22.0293C9.52954 21.6022 8.61835 21.8209 8.19127 22.5179C7.76419 23.2148 7.98295 24.126 8.67988 24.5531C9.37681 24.9802 10.288 24.7614 10.7151 24.0645Z" fill="#FCEE21"/>
<path d="M14.0305 26.0944C14.4576 25.3974 14.2388 24.4863 13.5419 24.0592C12.845 23.6321 11.9338 23.8509 11.5067 24.5478C11.0796 25.2447 11.2984 26.1559 11.9953 26.583C12.6922 27.0101 13.6034 26.7913 14.0305 26.0944Z" fill="#FCEE21"/>
<path d="M17.3494 28.1381C17.7764 27.4411 17.5577 26.53 16.8608 26.1029C16.1638 25.6758 15.2526 25.8946 14.8255 26.5915C14.3985 27.2884 14.6172 28.1996 15.3142 28.6267C16.0111 29.0538 16.9223 28.835 17.3494 28.1381Z" fill="#FCEE21"/>
<path d="M12.8501 21.0747C13.3305 20.4135 13.1839 19.4879 12.5226 19.0075C11.8614 18.527 10.9358 18.6736 10.4554 19.3349C9.97493 19.9962 10.1215 20.9217 10.7828 21.4021C11.4441 21.8826 12.3696 21.736 12.8501 21.0747Z" fill="#FCEE21"/>
<path d="M16.0044 23.3624C16.4848 22.7012 16.3382 21.7756 15.6769 21.2952C15.0157 20.8147 14.0901 20.9613 13.6097 21.6226C13.1292 22.2839 13.2758 23.2094 13.9371 23.6899C14.5984 24.1703 15.5239 24.0237 16.0044 23.3624Z" fill="#FCEE21"/>
<path d="M19.2156 25.6847C19.6979 25.0226 19.5521 24.0949 18.89 23.6127C18.2279 23.1304 17.3003 23.2762 16.818 23.9383C16.3358 24.6004 16.4815 25.528 17.1436 26.0103C17.8057 26.4925 18.7334 26.3468 19.2156 25.6847Z" fill="#FCEE21"/>
<path d="M15.2222 18.2592C15.7531 17.6377 15.6796 16.7035 15.058 16.1727C14.4365 15.6418 13.5023 15.7153 12.9714 16.3369C12.4406 16.9584 12.5141 17.8926 13.1357 18.4235C13.7572 18.9543 14.6914 18.8808 15.2222 18.2592Z" fill="#FCEE21"/>
<path d="M18.1783 20.7816C18.7091 20.16 18.6356 19.2258 18.0141 18.695C17.3925 18.1642 16.4583 18.2377 15.9275 18.8592C15.3966 19.4808 15.4702 20.415 16.0917 20.9458C16.7133 21.4766 17.6474 21.4031 18.1783 20.7816Z" fill="#FCEE21"/>
<path d="M21.1446 23.3138C21.6754 22.6923 21.6019 21.7581 20.9804 21.2272C20.3588 20.6964 19.4246 20.7699 18.8938 21.3914C18.363 22.013 18.4365 22.9472 19.058 23.478C19.6796 24.0089 20.6138 23.9354 21.1446 23.3138Z" fill="#FCEE21"/>
<path d="M17.8017 15.6387C18.3796 15.0607 18.3796 14.1236 17.8017 13.5456C17.2237 12.9677 16.2866 12.9677 15.7086 13.5456C15.1307 14.1236 15.1307 15.0607 15.7086 15.6387C16.2866 16.2167 17.2237 16.2167 17.8017 15.6387Z" fill="#FCEE21"/>
<path d="M20.558 18.3816C21.136 17.8036 21.136 16.8665 20.558 16.2886C19.98 15.7106 19.043 15.7106 18.465 16.2886C17.887 16.8665 17.887 17.8036 18.465 18.3816C19.043 18.9596 19.98 18.9596 20.558 18.3816Z" fill="#FCEE21"/>
<path d="M23.307 21.1316C23.885 20.5536 23.885 19.6165 23.307 19.0386C22.7291 18.4606 21.792 18.4606 21.214 19.0386C20.636 19.6165 20.636 20.5536 21.214 21.1316C21.792 21.7096 22.7291 21.7096 23.307 21.1316Z" fill="#FCEE21"/>
<path d="M20.5898 13.2196C21.2113 12.6887 21.2848 11.7545 20.754 11.133C20.2231 10.5114 19.2889 10.4379 18.6674 10.9687C18.0459 11.4996 17.9723 12.4338 18.5032 13.0553C19.034 13.6769 19.9682 13.7504 20.5898 13.2196Z" fill="#FCEE21"/>
<path d="M23.1156 16.1773C23.7372 15.6465 23.8107 14.7123 23.2799 14.0907C22.749 13.4692 21.8148 13.3957 21.1933 13.9265C20.5717 14.4574 20.4982 15.3916 21.0291 16.0131C21.5599 16.6346 22.4941 16.7082 23.1156 16.1773Z" fill="#FCEE21"/>
<path d="M25.6376 19.1339C26.2592 18.603 26.3327 17.6688 25.8018 17.0473C25.271 16.4257 24.3368 16.3522 23.7152 16.8831C23.0937 17.4139 23.0202 18.3481 23.551 18.9696C24.0819 19.5912 25.0161 19.6647 25.6376 19.1339Z" fill="#FCEE21"/>
<path d="M23.5417 11.0342C24.203 10.5537 24.3495 9.62818 23.8691 8.9669C23.3887 8.30563 22.4631 8.15903 21.8018 8.63948C21.1406 9.11992 20.994 10.0455 21.4744 10.7067C21.9549 11.368 22.8804 11.5146 23.5417 11.0342Z" fill="#FCEE21"/>
<path d="M25.8925 14.1456C26.5545 13.6634 26.7003 12.7357 26.2181 12.0736C25.7358 11.4115 24.8081 11.2658 24.1461 11.748C23.484 12.2303 23.3382 13.1579 23.8205 13.82C24.3027 14.4821 25.2304 14.6279 25.8925 14.1456Z" fill="#FCEE21"/>
<path d="M28.1218 17.3347C28.783 16.8543 28.9296 15.9287 28.4492 15.2674C27.9687 14.6062 27.0432 14.4596 26.3819 14.94C25.7206 15.4205 25.574 16.346 26.0545 17.0073C26.5349 17.6686 27.4605 17.8152 28.1218 17.3347Z" fill="#FCEE21"/>
<path d="M26.6635 9.08719C27.3604 8.66011 27.5792 7.74891 27.1521 7.05198C26.725 6.35505 25.8138 6.13629 25.1169 6.56337C24.42 6.99045 24.2012 7.90165 24.6283 8.59858C25.0554 9.29551 25.9666 9.51427 26.6635 9.08719Z" fill="#FCEE21"/>
<path d="M28.6991 12.4173C29.3961 11.9902 29.6148 11.079 29.1877 10.3821C28.7607 9.68513 27.8495 9.46637 27.1525 9.89345C26.4556 10.3205 26.2368 11.2317 26.6639 11.9287C27.091 12.6256 28.0022 12.8443 28.6991 12.4173Z" fill="#FCEE21"/>
<path d="M30.7382 15.7237C31.4351 15.2966 31.6539 14.3854 31.2268 13.6885C30.7997 12.9915 29.8885 12.7728 29.1916 13.1998C28.4947 13.6269 28.2759 14.5381 28.703 15.2351C29.1301 15.932 30.0413 16.1507 30.7382 15.7237Z" fill="#FCEE21"/>
<path d="M29.935 7.39406C30.6633 7.02298 30.9528 6.13176 30.5817 5.40347C30.2107 4.67517 29.3194 4.3856 28.5912 4.75668C27.8629 5.12777 27.5733 6.01899 27.9444 6.74728C28.3155 7.47557 29.2067 7.76515 29.935 7.39406Z" fill="#FCEE21"/>
<path d="M31.6938 10.8579C32.422 10.4868 32.7116 9.59563 32.3405 8.86733C31.9695 8.13904 31.0782 7.84947 30.3499 8.22055C29.6216 8.59163 29.3321 9.48285 29.7032 10.2111C30.0742 10.9394 30.9655 11.229 31.6938 10.8579Z" fill="#FCEE21"/>
<path d="M33.4662 14.3261C34.1945 13.955 34.4841 13.0638 34.113 12.3355C33.7419 11.6072 32.8507 11.3176 32.1224 11.6887C31.3941 12.0598 31.1045 12.951 31.4756 13.6793C31.8467 14.4076 32.7379 14.6972 33.4662 14.3261Z" fill="#FCEE21"/>
<path d="M33.3194 5.96189C34.0746 5.64909 34.4332 4.78334 34.1204 4.02818C33.8076 3.27302 32.9418 2.91441 32.1867 3.22721C31.4315 3.54001 31.0729 4.40576 31.3857 5.16092C31.6985 5.91608 32.5643 6.27469 33.3194 5.96189Z" fill="#FCEE21"/>
<path d="M34.8136 9.55759C35.5687 9.2448 35.9273 8.37904 35.6145 7.62388C35.3017 6.86872 34.436 6.51011 33.6808 6.82291C32.9257 7.13571 32.567 8.00146 32.8798 8.75662C33.1926 9.51179 34.0584 9.87039 34.8136 9.55759Z" fill="#CCCCCC"/>
<path d="M36.294 13.1441C37.0492 12.8313 37.4078 11.9656 37.095 11.2104C36.7822 10.4553 35.9164 10.0967 35.1613 10.4095C34.4061 10.7223 34.0475 11.588 34.3603 12.3432C34.6731 13.0983 35.5389 13.4569 36.294 13.1441Z" fill="#CCCCCC"/>
<path d="M36.8135 4.80053C37.5908 4.54795 38.0163 3.713 37.7637 2.93562C37.5111 2.15825 36.6762 1.73282 35.8988 1.9854C35.1214 2.23799 34.696 3.07294 34.9486 3.85031C35.2011 4.62769 36.0361 5.05312 36.8135 4.80053Z" fill="#CCCCCC"/>
<path d="M38.0078 8.49865C38.7852 8.24607 39.2106 7.41112 38.958 6.63374C38.7054 5.85637 37.8705 5.43094 37.0931 5.68352C36.3157 5.93611 35.8903 6.77106 36.1429 7.54843C36.3955 8.32581 37.2304 8.75124 38.0078 8.49865Z" fill="#CCCCCC"/>
<path d="M39.2124 12.1966C39.9898 11.9441 40.4152 11.1091 40.1626 10.3317C39.91 9.55436 39.0751 9.12894 38.2977 9.38152C37.5203 9.63411 37.0949 10.4691 37.3475 11.2464C37.6001 12.0238 38.435 12.4492 39.2124 12.1966Z" fill="#CCCCCC"/>
<path d="M40.3821 3.91235C41.1769 3.72154 41.6665 2.92255 41.4757 2.12775C41.2849 1.33295 40.4859 0.843326 39.6911 1.03414C38.8963 1.22495 38.4066 2.02395 38.5975 2.81875C38.7883 3.61354 39.5873 4.10317 40.3821 3.91235Z" fill="#CCCCCC"/>
<path d="M41.2917 7.69519C42.0865 7.50438 42.5761 6.70538 42.3853 5.91059C42.1945 5.11579 41.3955 4.62616 40.6007 4.81698C39.8059 5.00779 39.3163 5.80679 39.5071 6.60158C39.6979 7.39638 40.4969 7.886 41.2917 7.69519Z" fill="#CCCCCC"/>
<path d="M42.199 11.4784C42.9938 11.2876 43.4834 10.4886 43.2926 9.69379C43.1017 8.89899 42.3028 8.40937 41.508 8.60018C40.7132 8.79099 40.2235 9.58999 40.4143 10.3848C40.6052 11.1796 41.4042 11.6692 42.199 11.4784Z" fill="#CCCCCC"/>
<path d="M44.0171 3.3113C44.8244 3.18343 45.3752 2.42531 45.2474 1.618C45.1195 0.810677 44.3614 0.259873 43.5541 0.38774C42.7467 0.515606 42.1959 1.27372 42.3238 2.08104C42.4517 2.88836 43.2098 3.43916 44.0171 3.3113Z" fill="#CCCCCC"/>
<path d="M44.6201 7.15016C45.4275 7.0223 45.9783 6.26418 45.8504 5.45686C45.7225 4.64954 44.9644 4.09874 44.1571 4.22661C43.3498 4.35447 42.799 5.11259 42.9268 5.91991C43.0547 6.72723 43.8128 7.27803 44.6201 7.15016Z" fill="#CCCCCC"/>
<path d="M45.2232 10.9874C46.0305 10.8596 46.5813 10.1015 46.4534 9.29414C46.3256 8.48682 45.5674 7.93602 44.7601 8.06389C43.9528 8.19175 43.402 8.94987 43.5299 9.75719C43.6577 10.5645 44.4158 11.1153 45.2232 10.9874Z" fill="#CCCCCC"/>
<path d="M47.6833 2.99479C48.4981 2.93066 49.1067 2.21809 49.0426 1.40323C48.9785 0.588371 48.2659 -0.0202166 47.451 0.0439144C46.6362 0.108045 46.0276 0.82061 46.0917 1.63547C46.1558 2.45033 46.8684 3.05892 47.6833 2.99479Z" fill="#FCEE21"/>
<path d="M47.9767 6.87919C48.7916 6.81506 49.4002 6.10249 49.336 5.28763C49.2719 4.47277 48.5593 3.86418 47.7445 3.92831C46.9296 3.99245 46.321 4.70501 46.3852 5.51987C46.4493 6.33473 47.1619 6.94332 47.9767 6.87919Z" fill="#FCEE21"/>
<path d="M48.2892 10.743C49.1041 10.6788 49.7127 9.96626 49.6485 9.1514C49.5844 8.33654 48.8718 7.72795 48.057 7.79208C47.2421 7.85621 46.6335 8.56878 46.6977 9.38364C46.7618 10.1985 47.4744 10.8071 48.2892 10.743Z" fill="#FCEE21"/>
<path d="M51.354 2.96C52.1714 2.96 52.834 2.29738 52.834 1.48C52.834 0.662619 52.1714 0 51.354 0C50.5366 0 49.874 0.662619 49.874 1.48C49.874 2.29738 50.5366 2.96 51.354 2.96Z" fill="#FCEE21"/>
<path d="M51.354 6.85001C52.1714 6.85001 52.834 6.1874 52.834 5.37001C52.834 4.55263 52.1714 3.89001 51.354 3.89001C50.5366 3.89001 49.874 4.55263 49.874 5.37001C49.874 6.1874 50.5366 6.85001 51.354 6.85001Z" fill="#FCEE21"/>
<path d="M51.354 10.75C52.1714 10.75 52.834 10.0874 52.834 9.27004C52.834 8.45266 52.1714 7.79004 51.354 7.79004C50.5366 7.79004 49.874 8.45266 49.874 9.27004C49.874 10.0874 50.5366 10.75 51.354 10.75Z" fill="#FCEE21"/>
<path d="M56.6148 1.86313C56.679 1.04826 56.0704 0.335699 55.2555 0.271568C54.4407 0.207437 53.7281 0.816024 53.664 1.63089C53.5998 2.44575 54.2084 3.15831 55.0233 3.22244C55.8382 3.28657 56.5507 2.67799 56.6148 1.86313Z" fill="#FCEE21"/>
<path d="M56.3185 5.74667C56.3826 4.93181 55.774 4.21924 54.9591 4.15511C54.1443 4.09098 53.4317 4.69957 53.3676 5.51443C53.3035 6.32929 53.912 7.04186 54.7269 7.10599C55.5418 7.17012 56.2543 6.56153 56.3185 5.74667Z" fill="#FCEE21"/>
<path d="M56.0133 9.62021C56.0774 8.80534 55.4688 8.09278 54.654 8.02865C53.8391 7.96452 53.1265 8.5731 53.0624 9.38797C52.9983 10.2028 53.6069 10.9154 54.4217 10.9795C55.2366 11.0437 55.9492 10.4351 56.0133 9.62021Z" fill="#FCEE21"/>
<path d="M60.3587 2.54704C60.4866 1.73973 59.9358 0.981609 59.1284 0.853743C58.3211 0.725876 57.563 1.27668 57.4351 2.084C57.3073 2.89132 57.8581 3.64943 58.6654 3.7773C59.4727 3.90517 60.2308 3.35436 60.3587 2.54704Z" fill="#FCEE21"/>
<path d="M59.7464 6.39031C59.8743 5.58299 59.3235 4.82487 58.5161 4.697C57.7088 4.56914 56.9507 5.11994 56.8228 5.92726C56.695 6.73458 57.2458 7.49269 58.0531 7.62056C58.8604 7.74843 59.6185 7.19762 59.7464 6.39031Z" fill="#FCEE21"/>
<path d="M59.1434 10.235C59.2712 9.42771 58.7204 8.66959 57.9131 8.54173C57.1058 8.41386 56.3477 8.96467 56.2198 9.77199C56.0919 10.5793 56.6427 11.3374 57.4501 11.4653C58.2574 11.5932 59.0155 11.0424 59.1434 10.235Z" fill="#FCEE21"/>
<path d="M64.0308 3.51056C64.2217 2.71576 63.732 1.91677 62.9372 1.72595C62.1424 1.53514 61.3434 2.02476 61.1526 2.81956C60.9618 3.61436 61.4514 4.41335 62.2462 4.60417C63.041 4.79498 63.84 4.30536 64.0308 3.51056Z" fill="#FCEE21"/>
<path d="M63.1236 7.30023C63.3144 6.50543 62.8248 5.70644 62.03 5.51562C61.2352 5.32481 60.4362 5.81444 60.2454 6.60923C60.0546 7.40403 60.5442 8.20303 61.339 8.39384C62.1338 8.58465 62.9328 8.09503 63.1236 7.30023Z" fill="#FCEE21"/>
<path d="M62.2169 11.0775C62.4077 10.2827 61.9181 9.48366 61.1233 9.29285C60.3285 9.10203 59.5295 9.59166 59.3387 10.3865C59.1478 11.1813 59.6375 11.9802 60.4323 12.1711C61.2271 12.3619 62.0261 11.8722 62.2169 11.0775Z" fill="#FCEE21"/>
<path d="M67.6289 4.76629C67.8815 3.98891 67.4561 3.15396 66.6787 2.90137C65.9013 2.64879 65.0664 3.07422 64.8138 3.8516C64.5612 4.62897 64.9866 5.46392 65.764 5.7165C66.5414 5.96909 67.3763 5.54366 67.6289 4.76629Z" fill="#FCEE21"/>
<path d="M66.417 8.46098C66.6696 7.6836 66.2442 6.84866 65.4668 6.59608C64.6894 6.34349 63.8545 6.76891 63.6019 7.54629C63.3493 8.32367 63.7747 9.15862 64.5521 9.4112C65.3295 9.66379 66.1644 9.23836 66.417 8.46098Z" fill="#FCEE21"/>
<path d="M65.2124 12.1751C65.465 11.3977 65.0396 10.5628 64.2622 10.3102C63.4848 10.0576 62.6499 10.483 62.3973 11.2604C62.1447 12.0378 62.5701 12.8727 63.3475 13.1253C64.1249 13.3779 64.9598 12.9525 65.2124 12.1751Z" fill="#FCEE21"/>
<path d="M71.1028 6.29164C71.4156 5.53648 71.057 4.67073 70.3018 4.35793C69.5467 4.04514 68.6809 4.40374 68.3681 5.1589C68.0553 5.91406 68.4139 6.77982 69.1691 7.09262C69.9243 7.40541 70.79 7.04681 71.1028 6.29164Z" fill="#FCEE21"/>
<path d="M69.6096 9.89211C69.9224 9.13695 69.5638 8.2712 68.8087 7.9584C68.0535 7.6456 67.1878 8.00421 66.875 8.75937C66.5622 9.51453 66.9208 10.3803 67.6759 10.6931C68.4311 11.0059 69.2968 10.6473 69.6096 9.89211Z" fill="#FCEE21"/>
<path d="M68.1253 13.4863C68.4381 12.7312 68.0795 11.8654 67.3243 11.5526C66.5691 11.2398 65.7034 11.5984 65.3906 12.3536C65.0778 13.1088 65.4364 13.9745 66.1916 14.2873C66.9467 14.6001 67.8125 14.2415 68.1253 13.4863Z" fill="#FCEE21"/>
<path d="M74.4382 8.10251C74.8093 7.37422 74.5197 6.483 73.7914 6.11192C73.0631 5.74084 72.1719 6.03041 71.8008 6.7587C71.4297 7.48699 71.7193 8.37822 72.4476 8.7493C73.1759 9.12038 74.0671 8.8308 74.4382 8.10251Z" fill="#FCEE21"/>
<path d="M72.6809 11.556C73.052 10.8277 72.7624 9.93649 72.0341 9.56541C71.3058 9.19433 70.4146 9.4839 70.0435 10.2122C69.6724 10.9405 69.962 11.8317 70.6903 12.2028C71.4186 12.5739 72.3098 12.2843 72.6809 11.556Z" fill="#FCEE21"/>
<path d="M70.9191 15.0284C71.2902 14.3001 71.0007 13.4089 70.2724 13.0378C69.5441 12.6667 68.6529 12.9563 68.2818 13.6846C67.9107 14.4129 68.2003 15.3041 68.9286 15.6752C69.6568 16.0463 70.5481 15.7567 70.9191 15.0284Z" fill="#FCEE21"/>
<path d="M77.6457 10.1493C78.0728 9.45238 77.8541 8.54119 77.1571 8.11411C76.4602 7.68703 75.549 7.90579 75.1219 8.60272C74.6948 9.29965 74.9136 10.2108 75.6105 10.6379C76.3075 11.065 77.2187 10.8462 77.6457 10.1493Z" fill="#FCEE21"/>
<path d="M75.6106 13.4734C76.0377 12.7765 75.8189 11.8653 75.122 11.4382C74.425 11.0111 73.5139 11.2299 73.0868 11.9268C72.6597 12.6237 72.8785 13.5349 73.5754 13.962C74.2723 14.3891 75.1835 14.1703 75.6106 13.4734Z" fill="#FCEE21"/>
<path d="M73.572 16.7837C73.9991 16.0868 73.7803 15.1756 73.0834 14.7485C72.3865 14.3214 71.4753 14.5402 71.0482 15.2371C70.6211 15.9341 70.8399 16.8452 71.5368 17.2723C72.2337 17.6994 73.1449 17.4806 73.572 16.7837Z" fill="#FCEE21"/>
<path d="M80.6699 12.4506C81.1503 11.7893 81.0037 10.8638 80.3425 10.3833C79.6812 9.90287 78.7556 10.0495 78.2752 10.7107C77.7948 11.372 77.9413 12.2976 78.6026 12.778C79.2639 13.2584 80.1894 13.1119 80.6699 12.4506Z" fill="#FCEE21"/>
<path d="M78.3823 15.6048C78.8627 14.9435 78.7161 14.0179 78.0549 13.5375C77.3936 13.057 76.468 13.2036 75.9876 13.8649C75.5072 14.5262 75.6537 15.4517 76.315 15.9322C76.9763 16.4126 77.9018 16.266 78.3823 15.6048Z" fill="#FCEE21"/>
<path d="M76.0947 18.7489C76.5751 18.0876 76.4285 17.1621 75.7673 16.6816C75.106 16.2012 74.1804 16.3478 73.7 17.0091C73.2196 17.6703 73.3661 18.5959 74.0274 19.0763C74.6887 19.5568 75.6142 19.4102 76.0947 18.7489Z" fill="#FCEE21"/>
<path d="M83.5001 14.9851C84.0309 14.3635 83.9574 13.4293 83.3359 12.8985C82.7143 12.3676 81.7801 12.4412 81.2493 13.0627C80.7184 13.6842 80.7919 14.6184 81.4135 15.1493C82.035 15.6801 82.9692 15.6066 83.5001 14.9851Z" fill="#FCEE21"/>
<path d="M80.9742 17.9436C81.505 17.322 81.4315 16.3878 80.81 15.857C80.1884 15.3261 79.2542 15.3997 78.7234 16.0212C78.1925 16.6428 78.2661 17.5769 78.8876 18.1078C79.5091 18.6386 80.4433 18.5651 80.9742 17.9436Z" fill="#FCEE21"/>
<path d="M78.4517 20.8999C78.9826 20.2783 78.9091 19.3441 78.2875 18.8133C77.666 18.2824 76.7318 18.356 76.2009 18.9775C75.6701 19.599 75.7436 20.5332 76.3651 21.0641C76.9867 21.5949 77.9209 21.5214 78.4517 20.8999Z" fill="#FCEE21"/>
<path d="M86.1264 17.7299C86.7043 17.1519 86.7043 16.2148 86.1264 15.6368C85.5484 15.0589 84.6113 15.0589 84.0333 15.6368C83.4554 16.2148 83.4554 17.1519 84.0333 17.7299C84.6113 18.3078 85.5484 18.3078 86.1264 17.7299Z" fill="#FCEE21"/>
<path d="M83.3832 20.4861C83.9612 19.9081 83.9612 18.971 83.3832 18.3931C82.8052 17.8151 81.8681 17.8151 81.2902 18.3931C80.7122 18.971 80.7122 19.9081 81.2902 20.4861C81.8681 21.0641 82.8052 21.0641 83.3832 20.4861Z" fill="#FCEE21"/>
<path d="M80.6332 23.2351C81.2112 22.6571 81.2112 21.7201 80.6332 21.1421C80.0552 20.5641 79.1181 20.5641 78.5402 21.1421C77.9622 21.7201 77.9622 22.6571 78.5402 23.2351C79.1181 23.8131 80.0552 23.8131 80.6332 23.2351Z" fill="#FCEE21"/>
<path d="M88.5375 20.6746C89.1591 20.1438 89.2326 19.2096 88.7017 18.588C88.1709 17.9665 87.2367 17.893 86.6151 18.4238C85.9936 18.9547 85.9201 19.8889 86.4509 20.5104C86.9818 21.132 87.916 21.2055 88.5375 20.6746Z" fill="#FCEE21"/>
<path d="M85.58 23.2009C86.2015 22.67 86.2751 21.7358 85.7442 21.1143C85.2134 20.4927 84.2792 20.4192 83.6576 20.9501C83.0361 21.4809 82.9626 22.4151 83.4934 23.0367C84.0243 23.6582 84.9585 23.7317 85.58 23.2009Z" fill="#FCEE21"/>
<path d="M82.6156 25.7294C83.2372 25.1986 83.3107 24.2644 82.7799 23.6429C82.249 23.0213 81.3148 22.9478 80.6933 23.4786C80.0717 24.0095 79.9982 24.9437 80.5291 25.5652C81.0599 26.1868 81.9941 26.2603 82.6156 25.7294Z" fill="#FCEE21"/>
<path d="M90.7053 23.7915C91.3665 23.311 91.5131 22.3855 91.0327 21.7242C90.5522 21.0629 89.6267 20.9164 88.9654 21.3968C88.3041 21.8772 88.1575 22.8028 88.638 23.4641C89.1184 24.1253 90.044 24.2719 90.7053 23.7915Z" fill="#FCEE21"/>
<path d="M87.5529 26.0857C88.2142 25.6052 88.3608 24.6797 87.8803 24.0184C87.3999 23.3571 86.4743 23.2105 85.8131 23.691C85.1518 24.1714 85.0052 25.097 85.4856 25.7583C85.9661 26.4195 86.8916 26.5661 87.5529 26.0857Z" fill="#FCEE21"/>
<path d="M84.4045 28.3718C85.0657 27.8914 85.2123 26.9658 84.7319 26.3045C84.2515 25.6433 83.3259 25.4967 82.6646 25.9771C82.0034 26.4576 81.8568 27.3831 82.3372 28.0444C82.8177 28.7057 83.7432 28.8523 84.4045 28.3718Z" fill="#FCEE21"/>
<path d="M92.6151 27.0774C93.3121 26.6503 93.5308 25.7391 93.1038 25.0422C92.6767 24.3453 91.7655 24.1265 91.0685 24.5536C90.3716 24.9807 90.1529 25.8919 90.5799 26.5888C91.007 27.2857 91.9182 27.5045 92.6151 27.0774Z" fill="#FCEE21"/>
<path d="M89.2948 29.1129C89.9918 28.6859 90.2105 27.7747 89.7834 27.0777C89.3564 26.3808 88.4452 26.1621 87.7482 26.5891C87.0513 27.0162 86.8325 27.9274 87.2596 28.6243C87.6867 29.3213 88.5979 29.54 89.2948 29.1129Z" fill="#FCEE21"/>
<path d="M85.9799 31.157C86.6768 30.7299 86.8956 29.8187 86.4685 29.1218C86.0414 28.4249 85.1302 28.2061 84.4333 28.6332C83.7364 29.0603 83.5176 29.9715 83.9447 30.6684C84.3718 31.3653 85.283 31.5841 85.9799 31.157Z" fill="#FCEE21"/>
<path d="M94.265 30.51C94.9933 30.1389 95.2829 29.2477 94.9118 28.5194C94.5407 27.7911 93.6495 27.5016 92.9212 27.8727C92.1929 28.2437 91.9034 29.135 92.2744 29.8632C92.6455 30.5915 93.5367 30.8811 94.265 30.51Z" fill="#FCEE21"/>
<path d="M90.7924 32.2735C91.5207 31.9024 91.8103 31.0112 91.4392 30.2829C91.0681 29.5546 90.1769 29.265 89.4486 29.6361C88.7203 30.0072 88.4307 30.8984 88.8018 31.6267C89.1729 32.355 90.0641 32.6445 90.7924 32.2735Z" fill="#FCEE21"/>
<path d="M87.3329 34.0414C88.0612 33.6703 88.3508 32.7791 87.9797 32.0508C87.6086 31.3225 86.7174 31.0329 85.9891 31.404C85.2608 31.7751 84.9712 32.6663 85.3423 33.3946C85.7134 34.1229 86.6046 34.4125 87.3329 34.0414Z" fill="#FCEE21"/>
<path d="M95.6451 34.0448C96.4003 33.732 96.7589 32.8662 96.4461 32.1111C96.1333 31.3559 95.2675 30.9973 94.5124 31.3101C93.7572 31.6229 93.3986 32.4886 93.7114 33.2438C94.0242 33.999 94.8899 34.3576 95.6451 34.0448Z" fill="#FCEE21"/>
<path d="M92.0484 35.5353C92.8036 35.2225 93.1622 34.3567 92.8494 33.6015C92.5366 32.8464 91.6708 32.4878 90.9157 32.8006C90.1605 33.1134 89.8019 33.9791 90.1147 34.7343C90.4275 35.4894 91.2933 35.8481 92.0484 35.5353Z" fill="#FCEE21"/>
<path d="M88.4527 37.0294C89.2079 36.7166 89.5665 35.8508 89.2537 35.0957C88.9409 34.3405 88.0751 33.9819 87.32 34.2947C86.5648 34.6075 86.2062 35.4733 86.519 36.2284C86.8318 36.9836 87.6976 37.3422 88.4527 37.0294Z" fill="#FCEE21"/>
<path d="M96.7436 37.6914C97.521 37.4388 97.9464 36.6039 97.6939 35.8265C97.4413 35.0491 96.6063 34.6237 95.8289 34.8763C95.0516 35.1289 94.6261 35.9638 94.8787 36.7412C95.1313 37.5186 95.9663 37.944 96.7436 37.6914Z" fill="#FCEE21"/>
<path d="M93.0454 38.886C93.8228 38.6334 94.2482 37.7984 93.9956 37.0211C93.743 36.2437 92.9081 35.8183 92.1307 36.0709C91.3533 36.3234 90.9279 37.1584 91.1805 37.9358C91.4331 38.7131 92.268 39.1386 93.0454 38.886Z" fill="#FCEE21"/>
<path d="M89.3374 40.0907C90.1148 39.8381 90.5402 39.0032 90.2876 38.2258C90.035 37.4484 89.2001 37.023 88.4227 37.2756C87.6453 37.5282 87.2199 38.3631 87.4725 39.1405C87.7251 39.9178 88.56 40.3433 89.3374 40.0907Z" fill="#FCEE21"/>
<path d="M97.5344 41.4028C98.3292 41.212 98.8188 40.413 98.628 39.6182C98.4372 38.8234 97.6382 38.3338 96.8434 38.5246C96.0486 38.7154 95.559 39.5144 95.7498 40.3092C95.9406 41.104 96.7396 41.5936 97.5344 41.4028Z" fill="#FCEE21"/>
<path d="M93.7614 42.3101C94.5562 42.1192 95.0459 41.3202 94.8551 40.5255C94.6642 39.7307 93.8652 39.241 93.0705 39.4318C92.2757 39.6227 91.786 40.4217 91.9768 41.2165C92.1677 42.0112 92.9667 42.5009 93.7614 42.3101Z" fill="#FCEE21"/>
<path d="M89.9782 43.2174C90.773 43.0266 91.2627 42.2276 91.0719 41.4328C90.881 40.638 90.082 40.1484 89.2872 40.3392C88.4925 40.53 88.0028 41.329 88.1936 42.1238C88.3845 42.9186 89.1834 43.4082 89.9782 43.2174Z" fill="#FCEE21"/>
<path d="M98.0601 45.1721C98.8674 45.0443 99.4182 44.2862 99.2903 43.4788C99.1625 42.6715 98.4044 42.1207 97.597 42.2486C96.7897 42.3764 96.2389 43.1346 96.3668 43.9419C96.4946 44.7492 97.2528 45.3 98.0601 45.1721Z" fill="#FCEE21"/>
<path d="M94.211 45.7755C95.0183 45.6477 95.5691 44.8895 95.4412 44.0822C95.3133 43.2749 94.5552 42.7241 93.7479 42.852C92.9406 42.9798 92.3898 43.738 92.5177 44.5453C92.6455 45.3526 93.4036 45.9034 94.211 45.7755Z" fill="#FCEE21"/>
<path d="M90.3638 46.3803C91.1711 46.2524 91.7219 45.4943 91.594 44.687C91.4662 43.8796 90.7081 43.3288 89.9007 43.4567C89.0934 43.5846 88.5426 44.3427 88.6705 45.15C88.7984 45.9573 89.5565 46.5081 90.3638 46.3803Z" fill="#FCEE21"/>
<path d="M98.2741 48.9638C99.0889 48.8997 99.6975 48.1871 99.6334 47.3722C99.5693 46.5574 98.8567 45.9488 98.0418 46.0129C97.227 46.077 96.6184 46.7896 96.6825 47.6045C96.7467 48.4193 97.4592 49.0279 98.2741 48.9638Z" fill="#FCEE21"/>
<path d="M94.7559 49.274C95.5732 49.2086 96.1829 48.493 96.1175 47.6756C96.0521 46.8582 95.3364 46.2486 94.5191 46.314C93.7017 46.3794 93.0921 47.095 93.1575 47.9124C93.2229 48.7298 93.9385 49.3394 94.7559 49.274Z" fill="#FCEE21"/>
<path d="M90.5055 49.5707C91.3204 49.5066 91.929 48.794 91.8649 47.9792C91.8007 47.1643 91.0882 46.5557 90.2733 46.6198C89.4584 46.684 88.8498 47.3965 88.914 48.2114C88.9781 49.0263 89.6907 49.6349 90.5055 49.5707Z" fill="#FCEE21"/>
<path d="M98.1841 52.76C99.0015 52.76 99.6641 52.0974 99.6641 51.28C99.6641 50.4627 99.0015 49.8 98.1841 49.8C97.3667 49.8 96.7041 50.4627 96.7041 51.28C96.7041 52.0974 97.3667 52.76 98.1841 52.76Z" fill="#FCEE21"/>
<path d="M94.294 52.76C95.1113 52.76 95.774 52.0974 95.774 51.28C95.774 50.4627 95.1113 49.8 94.294 49.8C93.4766 49.8 92.814 50.4627 92.814 51.28C92.814 52.0974 93.4766 52.76 94.294 52.76Z" fill="#FCEE21"/>
<path d="M90.4043 52.76C91.2217 52.76 91.8843 52.0974 91.8843 51.28C91.8843 50.4627 91.2217 49.8 90.4043 49.8C89.5869 49.8 88.9243 50.4627 88.9243 51.28C88.9243 52.0974 89.5869 52.76 90.4043 52.76Z" fill="#FCEE21"/>
<path d="M99.3971 55.1786C99.4612 54.3637 98.8526 53.6511 98.0378 53.587C97.2229 53.5229 96.5103 54.1315 96.4462 54.9463C96.3821 55.7612 96.9907 56.4737 97.8055 56.5379C98.6204 56.602 99.3329 55.9934 99.3971 55.1786Z" fill="#FCEE21"/>
<path d="M95.5133 54.8822C95.5774 54.0673 94.9688 53.3547 94.154 53.2906C93.3391 53.2265 92.6265 53.8351 92.5624 54.6499C92.4983 55.4648 93.1069 56.1774 93.9217 56.2415C94.7366 56.3056 95.4492 55.697 95.5133 54.8822Z" fill="#FCEE21"/>
<path d="M91.6402 54.5768C91.7044 53.7619 91.0958 53.0493 90.2809 52.9852C89.4661 52.9211 88.7535 53.5297 88.6894 54.3445C88.6252 55.1594 89.2338 55.8719 90.0487 55.9361C90.8635 56.0002 91.5761 55.3916 91.6402 54.5768Z" fill="#FCEE21"/>
<path d="M98.8211 59.0508C98.949 58.2435 98.3982 57.4854 97.5908 57.3575C96.7835 57.2297 96.0254 57.7805 95.8975 58.5878C95.7697 59.3951 96.3205 60.1532 97.1278 60.2811C97.9351 60.409 98.6932 59.8581 98.8211 59.0508Z" fill="#FCEE21"/>
<path d="M94.9764 58.4479C95.1042 57.6406 94.5534 56.8825 93.7461 56.7546C92.9388 56.6268 92.1807 57.1776 92.0528 57.9849C91.9249 58.7922 92.4757 59.5503 93.2831 59.6782C94.0904 59.806 94.8485 59.2552 94.9764 58.4479Z" fill="#FCEE21"/>
<path d="M91.1331 57.8353C91.261 57.0279 90.7102 56.2698 89.9029 56.142C89.0955 56.0141 88.3374 56.5649 88.2095 57.3722C88.0817 58.1795 88.6325 58.9376 89.4398 59.0655C90.2471 59.1934 91.0052 58.6426 91.1331 57.8353Z" fill="#FCEE21"/>
<path d="M97.9469 62.8649C98.1377 62.0701 97.648 61.2711 96.8533 61.0803C96.0585 60.8895 95.2595 61.3791 95.0686 62.1739C94.8778 62.9687 95.3675 63.7677 96.1623 63.9585C96.957 64.1494 97.756 63.6597 97.9469 62.8649Z" fill="#FCEE21"/>
<path d="M94.1597 61.9579C94.3506 61.1631 93.8609 60.3642 93.0661 60.1733C92.2713 59.9825 91.4723 60.4721 91.2815 61.2669C91.0907 62.0617 91.5803 62.8607 92.3751 63.0516C93.1699 63.2424 93.9689 62.7527 94.1597 61.9579Z" fill="#FCEE21"/>
<path d="M90.3702 61.0508C90.561 60.256 90.0714 59.457 89.2766 59.2662C88.4818 59.0754 87.6828 59.565 87.492 60.3598C87.3012 61.1546 87.7908 61.9536 88.5856 62.1444C89.3804 62.3353 90.1794 61.8456 90.3702 61.0508Z" fill="#FCEE21"/>
<path d="M96.7705 66.5995C97.0231 65.8222 96.5977 64.9872 95.8203 64.7346C95.0429 64.482 94.208 64.9075 93.9554 65.6848C93.7028 66.4622 94.1282 67.2972 94.9056 67.5498C95.683 67.8023 96.5179 67.3769 96.7705 66.5995Z" fill="#FCEE21"/>
<path d="M93.0762 65.3976C93.3288 64.6203 92.9033 63.7853 92.126 63.5327C91.3486 63.2801 90.5136 63.7056 90.2611 64.4829C90.0085 65.2603 90.4339 66.0953 91.2113 66.3478C91.9887 66.6004 92.8236 66.175 93.0762 65.3976Z" fill="#FCEE21"/>
<path d="M89.3618 64.1927C89.6144 63.4153 89.189 62.5804 88.4116 62.3278C87.6342 62.0752 86.7993 62.5006 86.5467 63.278C86.2941 64.0554 86.7195 64.8903 87.4969 65.1429C88.2743 65.3955 89.1092 64.9701 89.3618 64.1927Z" fill="#FCEE21"/>
<path d="M95.3113 70.2195C95.6241 69.4643 95.2655 68.5986 94.5103 68.2858C93.7552 67.973 92.8894 68.3316 92.5766 69.0868C92.2638 69.8419 92.6224 70.7077 93.3776 71.0205C94.1328 71.3333 94.9985 70.9747 95.3113 70.2195Z" fill="#FCEE21"/>
<path d="M91.7171 68.7353C92.0299 67.9801 91.6713 67.1143 90.9161 66.8015C90.1609 66.4887 89.2952 66.8473 88.9824 67.6025C88.6696 68.3577 89.0282 69.2234 89.7834 69.5362C90.5385 69.849 91.4043 69.4904 91.7171 68.7353Z" fill="#FCEE21"/>
<path d="M88.1165 67.2418C88.4293 66.4867 88.0707 65.6209 87.3155 65.3081C86.5604 64.9953 85.6946 65.3539 85.3818 66.1091C85.069 66.8643 85.4276 67.73 86.1828 68.0428C86.9379 68.3556 87.8037 67.997 88.1165 67.2418Z" fill="#FCEE21"/>
<path d="M93.5651 73.7318C93.9362 73.0035 93.6467 72.1123 92.9184 71.7412C92.1901 71.3701 91.2988 71.6597 90.9278 72.388C90.5567 73.1163 90.8463 74.0075 91.5746 74.3786C92.3028 74.7497 93.1941 74.4601 93.5651 73.7318Z" fill="#FCEE21"/>
<path d="M90.1062 71.9557C90.4772 71.2274 90.1877 70.3362 89.4594 69.9651C88.7311 69.594 87.8399 69.8836 87.4688 70.6119C87.0977 71.3401 87.3873 72.2314 88.1156 72.6024C88.8439 72.9735 89.7351 72.684 90.1062 71.9557Z" fill="#FCEE21"/>
<path d="M86.6335 70.1939C87.0046 69.4657 86.715 68.5744 85.9867 68.2033C85.2584 67.8323 84.3672 68.1218 83.9961 68.8501C83.625 69.5784 83.9146 70.4696 84.6429 70.8407C85.3712 71.2118 86.2624 70.9222 86.6335 70.1939Z" fill="#FCEE21"/>
<path d="M91.1298 77.1238C91.5549 76.4291 91.3362 75.5213 90.6414 75.0962C89.9467 74.6712 89.0389 74.8899 88.6138 75.5846C88.1888 76.2794 88.4075 77.1872 89.1022 77.6122C89.797 78.0373 90.7048 77.8186 91.1298 77.1238Z" fill="#FCEE21"/>
<path d="M88.2366 75.0448C88.6636 74.3479 88.4449 73.4367 87.748 73.0096C87.051 72.5825 86.1398 72.8013 85.7128 73.4982C85.2857 74.1952 85.5044 75.1063 86.2014 75.5334C86.8983 75.9605 87.8095 75.7417 88.2366 75.0448Z" fill="#FCEE21"/>
<path d="M84.9114 73.0149C85.3385 72.318 85.1197 71.4068 84.4228 70.9797C83.7258 70.5526 82.8146 70.7714 82.3876 71.4683C81.9605 72.1652 82.1792 73.0764 82.8762 73.5035C83.5731 73.9306 84.4843 73.7118 84.9114 73.0149Z" fill="#FCEE21"/>
<path d="M89.2885 80.2684C89.769 79.6072 89.6224 78.6816 88.9611 78.2012C88.2998 77.7207 87.3743 77.8673 86.8938 78.5286C86.4134 79.1899 86.56 80.1154 87.2213 80.5959C87.8825 81.0763 88.8081 80.9297 89.2885 80.2684Z" fill="#FCEE21"/>
<path d="M86.1401 77.9728C86.6205 77.3115 86.474 76.386 85.8127 75.9055C85.1514 75.4251 84.2259 75.5717 83.7454 76.2329C83.265 76.8942 83.4116 77.8198 84.0728 78.3002C84.7341 78.7807 85.6597 78.6341 86.1401 77.9728Z" fill="#FCEE21"/>
<path d="M82.9858 75.6852C83.4663 75.0239 83.3197 74.0984 82.6584 73.6179C81.9971 73.1375 81.0716 73.2841 80.5911 73.9454C80.1107 74.6066 80.2573 75.5322 80.9185 76.0126C81.5798 76.4931 82.5054 76.3465 82.9858 75.6852Z" fill="#FCEE21"/>
<path d="M86.7642 83.2628C87.2951 82.6412 87.2216 81.707 86.6 81.1762C85.9785 80.6454 85.0443 80.7189 84.5134 81.3404C83.9826 81.962 84.0561 82.8962 84.6776 83.427C85.2992 83.9579 86.2334 83.8843 86.7642 83.2628Z" fill="#FCEE21"/>
<path d="M83.8155 80.747C84.3463 80.1255 84.2728 79.1913 83.6513 78.6605C83.0297 78.1296 82.0955 78.2031 81.5647 78.8247C81.0339 79.4462 81.1074 80.3804 81.7289 80.9113C82.3505 81.4421 83.2847 81.3686 83.8155 80.747Z" fill="#FCEE21"/>
<path d="M80.856 78.2071C81.3869 77.5856 81.3134 76.6514 80.6918 76.1205C80.0703 75.5897 79.1361 75.6632 78.6052 76.2848C78.0744 76.9063 78.1479 77.8405 78.7694 78.3713C79.391 78.9022 80.3252 78.8287 80.856 78.2071Z" fill="#FCEE21"/>
<path d="M84.0277 86.0614C84.6057 85.4834 84.6057 84.5464 84.0277 83.9684C83.4498 83.3904 82.5127 83.3904 81.9347 83.9684C81.3567 84.5463 81.3567 85.4834 81.9347 86.0614C82.5127 86.6394 83.4498 86.6394 84.0277 86.0614Z" fill="#FCEE21"/>
<path d="M81.2787 83.3114C81.8567 82.7334 81.8567 81.7964 81.2787 81.2184C80.7007 80.6404 79.7637 80.6404 79.1857 81.2184C78.6077 81.7963 78.6077 82.7334 79.1857 83.3114C79.7637 83.8894 80.7007 83.8894 81.2787 83.3114Z" fill="#FCEE21"/>
<path d="M78.5297 80.5514C79.1077 79.9734 79.1077 79.0363 78.5297 78.4584C77.9517 77.8804 77.0146 77.8804 76.4367 78.4584C75.8587 79.0363 75.8587 79.9734 76.4367 80.5514C77.0146 81.1294 77.9517 81.1294 78.5297 80.5514Z" fill="#FCEE21"/>
<path d="M81.0824 88.6226C81.704 88.0918 81.7775 87.1576 81.2467 86.536C80.7158 85.9145 79.7816 85.841 79.1601 86.3718C78.5385 86.9027 78.465 87.8369 78.9959 88.4584C79.5267 89.08 80.4609 89.1535 81.0824 88.6226Z" fill="#FCEE21"/>
<path d="M78.5561 85.6649C79.1776 85.134 79.2511 84.1998 78.7203 83.5783C78.1894 82.9567 77.2552 82.8832 76.6337 83.4141C76.0122 83.9449 75.9386 84.8791 76.4695 85.5006C77.0003 86.1222 77.9345 86.1957 78.5561 85.6649Z" fill="#FCEE21"/>
<path d="M76.0199 82.7072C76.6415 82.1764 76.715 81.2422 76.1842 80.6206C75.6533 79.9991 74.7191 79.9256 74.0976 80.4564C73.476 80.9873 73.4025 81.9215 73.9334 82.543C74.4642 83.1645 75.3984 83.2381 76.0199 82.7072Z" fill="#FCEE21"/>
<path d="M77.9479 90.9552C78.6092 90.4747 78.7558 89.5492 78.2754 88.8879C77.7949 88.2266 76.8694 88.0801 76.2081 88.5605C75.5468 89.0409 75.4002 89.9665 75.8807 90.6278C76.3611 91.289 77.2867 91.4356 77.9479 90.9552Z" fill="#FCEE21"/>
<path d="M75.654 87.8028C76.3153 87.3224 76.4619 86.3969 75.9814 85.7356C75.501 85.0743 74.5754 84.9277 73.9141 85.4082C73.2529 85.8886 73.1063 86.8141 73.5867 87.4754C74.0672 88.1367 74.9927 88.2833 75.654 87.8028Z" fill="#FCEE21"/>
<path d="M73.3595 84.6605C74.0208 84.1801 74.1674 83.2545 73.687 82.5932C73.2065 81.932 72.281 81.7854 71.6197 82.2658C70.9584 82.7463 70.8118 83.6718 71.2923 84.3331C71.7727 84.9944 72.6983 85.141 73.3595 84.6605Z" fill="#FCEE21"/>
<path d="M74.6249 93.0287C75.3218 92.6016 75.5406 91.6904 75.1135 90.9935C74.6864 90.2966 73.7752 90.0778 73.0783 90.5049C72.3814 90.932 72.1626 91.8432 72.5897 92.5401C73.0168 93.237 73.928 93.4558 74.6249 93.0287Z" fill="#FCEE21"/>
<path d="M72.5907 89.7139C73.2877 89.2868 73.5064 88.3756 73.0793 87.6787C72.6523 86.9818 71.7411 86.763 71.0441 87.1901C70.3472 87.6172 70.1284 88.5284 70.5555 89.2253C70.9826 89.9222 71.8938 90.141 72.5907 89.7139Z" fill="#FCEE21"/>
<path d="M70.5551 86.3938C71.252 85.9667 71.4708 85.0556 71.0437 84.3586C70.6166 83.6617 69.7054 83.4429 69.0085 83.87C68.3116 84.2971 68.0928 85.2083 68.5199 85.9052C68.947 86.6021 69.8581 86.8209 70.5551 86.3938Z" fill="#FCEE21"/>
<path d="M71.1591 94.8401C71.8874 94.469 72.1769 93.5778 71.8059 92.8495C71.4348 92.1212 70.5436 91.8316 69.8153 92.2027C69.087 92.5738 68.7974 93.465 69.1685 94.1933C69.5396 94.9216 70.4308 95.2112 71.1591 94.8401Z" fill="#FCEE21"/>
<path d="M69.3866 91.372C70.1149 91.0009 70.4045 90.1097 70.0334 89.3814C69.6623 88.6531 68.7711 88.3635 68.0428 88.7346C67.3145 89.1057 67.0249 89.9969 67.396 90.7252C67.7671 91.4535 68.6583 91.7431 69.3866 91.372Z" fill="#FCEE21"/>
<path d="M67.6273 87.9081C68.3556 87.537 68.6452 86.6458 68.2741 85.9175C67.903 85.1892 67.0118 84.8996 66.2835 85.2707C65.5552 85.6418 65.2657 86.533 65.6367 87.2613C66.0078 87.9896 66.899 88.2792 67.6273 87.9081Z" fill="#FCEE21"/>
<path d="M67.5616 96.3667C68.3168 96.0539 68.6754 95.1881 68.3626 94.433C68.0498 93.6778 67.184 93.3192 66.4289 93.632C65.6737 93.9448 65.3151 94.8105 65.6279 95.5657C65.9407 96.3209 66.8064 96.6795 67.5616 96.3667Z" fill="#FCEE21"/>
<path d="M66.0709 92.7801C66.826 92.4673 67.1847 91.6016 66.8719 90.8464C66.5591 90.0913 65.6933 89.7326 64.9381 90.0454C64.183 90.3582 63.8244 91.224 64.1372 91.9792C64.45 92.7343 65.3157 93.0929 66.0709 92.7801Z" fill="#FCEE21"/>
<path d="M64.5767 89.1744C65.3319 88.8616 65.6905 87.9959 65.3777 87.2407C65.0649 86.4855 64.1992 86.1269 63.444 86.4397C62.6888 86.7525 62.3302 87.6183 62.643 88.3734C62.9558 89.1286 63.8216 89.4872 64.5767 89.1744Z" fill="#FCEE21"/>
<path d="M63.853 97.6118C64.6304 97.3592 65.0558 96.5243 64.8032 95.7469C64.5507 94.9695 63.7157 94.5441 62.9383 94.7967C62.1609 95.0493 61.7355 95.8842 61.9881 96.6616C62.2407 97.439 63.0756 97.8644 63.853 97.6118Z" fill="#FCEE21"/>
<path d="M62.6484 93.9137C63.4258 93.6611 63.8512 92.8262 63.5986 92.0488C63.3461 91.2714 62.5111 90.846 61.7337 91.0986C60.9564 91.3511 60.5309 92.1861 60.7835 92.9635C61.0361 93.7409 61.871 94.1663 62.6484 93.9137Z" fill="#FCEE21"/>
<path d="M61.4443 90.2186C62.2217 89.966 62.6471 89.1311 62.3945 88.3537C62.142 87.5763 61.307 87.1509 60.5296 87.4035C59.7523 87.6561 59.3268 88.491 59.5794 89.2684C59.832 90.0458 60.6669 90.4712 61.4443 90.2186Z" fill="#FCEE21"/>
<path d="M60.0442 98.5653C60.839 98.3745 61.3286 97.5755 61.1378 96.7807C60.947 95.9859 60.148 95.4963 59.3532 95.6871C58.5584 95.8779 58.0687 96.6769 58.2596 97.4717C58.4504 98.2665 59.2494 98.7561 60.0442 98.5653Z" fill="#FCEE21"/>
<path d="M59.1467 94.7799C59.9415 94.5891 60.4311 93.7901 60.2403 92.9953C60.0495 92.2005 59.2505 91.7109 58.4557 91.9017C57.6609 92.0925 57.1713 92.8915 57.3621 93.6863C57.5529 94.4811 58.3519 94.9707 59.1467 94.7799Z" fill="#FCEE21"/>
<path d="M58.2395 90.9967C59.0343 90.8059 59.5239 90.0069 59.3331 89.2121C59.1423 88.4173 58.3433 87.9277 57.5485 88.1185C56.7537 88.3093 56.2641 89.1083 56.4549 89.9031C56.6457 90.6979 57.4447 91.1875 58.2395 90.9967Z" fill="#FCEE21"/>
<path d="M56.1988 99.2152C57.0061 99.0874 57.5569 98.3292 57.429 97.5219C57.3011 96.7146 56.543 96.1638 55.7357 96.2917C54.9284 96.4195 54.3776 97.1777 54.5054 97.985C54.6333 98.7923 55.3914 99.3431 56.1988 99.2152Z" fill="#FCEE21"/>
<path d="M55.586 95.3679C56.3933 95.2401 56.9441 94.482 56.8162 93.6746C56.6883 92.8673 55.9302 92.3165 55.1229 92.4444C54.3156 92.5722 53.7648 93.3304 53.8927 94.1377C54.0205 94.945 54.7786 95.4958 55.586 95.3679Z" fill="#FCEE21"/>
<path d="M54.9712 91.5208C55.7785 91.3929 56.3293 90.6348 56.2015 89.8275C56.0736 89.0201 55.3155 88.4693 54.5082 88.5972C53.7008 88.7251 53.15 89.4832 53.2779 90.2905C53.4058 91.0978 54.1639 91.6486 54.9712 91.5208Z" fill="#FCEE21"/>
<path d="M52.3048 99.5546C53.1197 99.4905 53.7283 98.7779 53.6642 97.9631C53.6 97.1482 52.8875 96.5396 52.0726 96.6037C51.2577 96.6679 50.6492 97.3804 50.7133 98.1953C50.7774 99.0102 51.49 99.6187 52.3048 99.5546Z" fill="#FCEE21"/>
<path d="M52.2983 95.886C53.1157 95.8206 53.7253 95.105 53.6599 94.2876C53.5946 93.4702 52.8789 92.8606 52.0615 92.926C51.2442 92.9914 50.6346 93.707 50.6999 94.5244C50.7653 95.3418 51.481 95.9514 52.2983 95.886Z" fill="#FCEE21"/>
<path d="M51.6877 91.7964C52.5025 91.7323 53.1111 91.0197 53.047 90.2049C52.9828 89.39 52.2703 88.7814 51.4554 88.8456C50.6406 88.9097 50.032 89.6222 50.0961 90.4371C50.1602 91.252 50.8728 91.8606 51.6877 91.7964Z" fill="#FCEE21"/>
<path d="M48.3843 99.59C49.2017 99.59 49.8643 98.9274 49.8643 98.11C49.8643 97.2926 49.2017 96.63 48.3843 96.63C47.5669 96.63 46.9043 97.2926 46.9043 98.11C46.9043 98.9274 47.5669 99.59 48.3843 99.59Z" fill="#FCEE21"/>
<path d="M48.3843 95.7C49.2017 95.7 49.8643 95.0374 49.8643 94.22C49.8643 93.4026 49.2017 92.74 48.3843 92.74C47.5669 92.74 46.9043 93.4026 46.9043 94.22C46.9043 95.0374 47.5669 95.7 48.3843 95.7Z" fill="#FCEE21"/>
<path d="M48.3843 91.81C49.2017 91.81 49.8643 91.1474 49.8643 90.33C49.8643 89.5126 49.2017 88.85 48.3843 88.85C47.5669 88.85 46.9043 89.5126 46.9043 90.33C46.9043 91.1474 47.5669 91.81 48.3843 91.81Z" fill="#FCEE21"/>
<path d="M46.0816 97.9607C46.1458 97.1458 45.5372 96.4332 44.7223 96.3691C43.9075 96.305 43.1949 96.9136 43.1308 97.7284C43.0666 98.5433 43.6752 99.2558 44.4901 99.32C45.3049 99.3841 46.0175 98.7755 46.0816 97.9607Z" fill="#FCEE21"/>
<path d="M46.3873 94.0871C46.4514 93.2723 45.8429 92.5597 45.028 92.4956C44.2131 92.4314 43.5006 93.04 43.4364 93.8549C43.3723 94.6697 43.9809 95.3823 44.7958 95.4464C45.6106 95.5106 46.3232 94.902 46.3873 94.0871Z" fill="#FCEE21"/>
<path d="M46.6935 90.2037C46.7576 89.3888 46.149 88.6763 45.3341 88.6121C44.5193 88.548 43.8067 89.1566 43.7426 89.9715C43.6785 90.7863 44.287 91.4989 45.1019 91.563C45.9168 91.6271 46.6293 91.0186 46.6935 90.2037Z" fill="#FCEE21"/>
<path d="M42.3177 97.5131C42.4455 96.7058 41.8947 95.9477 41.0874 95.8198C40.2801 95.6919 39.522 96.2427 39.3941 97.0501C39.2663 97.8574 39.8171 98.6155 40.6244 98.7434C41.4317 98.8712 42.1898 98.3204 42.3177 97.5131Z" fill="#FCEE21"/>
<path d="M42.9188 93.6783C43.0466 92.871 42.4958 92.1128 41.6885 91.985C40.8812 91.8571 40.1231 92.4079 39.9952 93.2152C39.8673 94.0225 40.4181 94.7807 41.2255 94.9085C42.0328 95.0364 42.7909 94.4856 42.9188 93.6783Z" fill="#FCEE21"/>
<path d="M43.5315 89.835C43.6594 89.0277 43.1086 88.2696 42.3013 88.1417C41.494 88.0138 40.7359 88.5646 40.608 89.372C40.4801 90.1793 41.0309 90.9374 41.8382 91.0653C42.6456 91.1931 43.4037 90.6423 43.5315 89.835Z" fill="#FCEE21"/>
<path d="M38.585 96.7712C38.7759 95.9764 38.2862 95.1774 37.4914 94.9866C36.6966 94.7958 35.8976 95.2854 35.7068 96.0802C35.516 96.875 36.0056 97.674 36.8004 97.8648C37.5952 98.0556 38.3942 97.566 38.585 96.7712Z" fill="#FCEE21"/>
<path d="M39.502 92.9938C39.6928 92.199 39.2032 91.4 38.4084 91.2092C37.6136 91.0184 36.8146 91.508 36.6238 92.3028C36.433 93.0976 36.9226 93.8966 37.7174 94.0874C38.5122 94.2783 39.3112 93.7886 39.502 92.9938Z" fill="#FCEE21"/>
<path d="M40.4068 89.214C40.5976 88.4193 40.108 87.6203 39.3132 87.4294C38.5184 87.2386 37.7194 87.7283 37.5286 88.5231C37.3378 89.3178 37.8274 90.1168 38.6222 90.3077C39.417 90.4985 40.216 90.0088 40.4068 89.214Z" fill="#FCEE21"/>
<path d="M34.9375 95.7413C35.1901 94.9639 34.7647 94.1289 33.9873 93.8764C33.2099 93.6238 32.375 94.0492 32.1224 94.8266C31.8698 95.6039 32.2952 96.4389 33.0726 96.6915C33.85 96.9441 34.6849 96.5186 34.9375 95.7413Z" fill="#FCEE21"/>
<path d="M36.1397 92.0466C36.3922 91.2692 35.9668 90.4342 35.1894 90.1816C34.4121 89.9291 33.5771 90.3545 33.3245 91.1319C33.0719 91.9092 33.4974 92.7442 34.2747 92.9968C35.0521 93.2494 35.8871 92.8239 36.1397 92.0466Z" fill="#FCEE21"/>
<path d="M37.3413 88.352C37.5939 87.5746 37.1685 86.7397 36.3911 86.4871C35.6137 86.2345 34.7788 86.6599 34.5262 87.4373C34.2736 88.2147 34.699 89.0496 35.4764 89.3022C36.2538 89.5548 37.0887 89.1294 37.3413 88.352Z" fill="#FCEE21"/>
<path d="M31.3836 94.4379C31.6964 93.6827 31.3378 92.817 30.5826 92.5042C29.8274 92.1914 28.9617 92.55 28.6489 93.3051C28.3361 94.0603 28.6947 94.9261 29.4499 95.2389C30.205 95.5517 31.0708 95.193 31.3836 94.4379Z" fill="#FCEE21"/>
<path d="M32.8679 90.8336C33.1807 90.0785 32.8221 89.2127 32.067 88.8999C31.3118 88.5871 30.4461 88.9457 30.1333 89.7009C29.8205 90.4561 30.1791 91.3218 30.9342 91.6346C31.6894 91.9474 32.5551 91.5888 32.8679 90.8336Z" fill="#FCEE21"/>
<path d="M34.3611 87.2433C34.6739 86.4881 34.3153 85.6224 33.5601 85.3096C32.805 84.9968 31.9392 85.3554 31.6264 86.1106C31.3136 86.8657 31.6722 87.7315 32.4274 88.0443C33.1826 88.3571 34.0483 87.9985 34.3611 87.2433Z" fill="#FCEE21"/>
<path d="M27.926 92.8489C28.2971 92.1206 28.0075 91.2293 27.2792 90.8583C26.5509 90.4872 25.6597 90.7767 25.2886 91.505C24.9175 92.2333 25.2071 93.1246 25.9354 93.4956C26.6637 93.8667 27.5549 93.5771 27.926 92.8489Z" fill="#FCEE21"/>
<path d="M29.7063 89.381C30.0773 88.6527 29.7878 87.7614 29.0595 87.3904C28.3312 87.0193 27.44 87.3089 27.0689 88.0371C26.6978 88.7654 26.9874 89.6567 27.7157 90.0277C28.444 90.3988 29.3352 90.1092 29.7063 89.381Z" fill="#FCEE21"/>
<path d="M31.468 85.9085C31.8391 85.1803 31.5495 84.289 30.8212 83.9179C30.0929 83.5469 29.2017 83.8364 28.8306 84.5647C28.4595 85.293 28.7491 86.1842 29.4774 86.5553C30.2057 86.9264 31.0969 86.6368 31.468 85.9085Z" fill="#FCEE21"/>
<path d="M24.6301 90.9951C25.0572 90.2982 24.8384 89.387 24.1415 88.9599C23.4446 88.5329 22.5334 88.7516 22.1063 89.4485C21.6792 90.1455 21.898 91.0567 22.5949 91.4837C23.2919 91.9108 24.203 91.6921 24.6301 90.9951Z" fill="#FCEE21"/>
<path d="M26.6599 87.6796C27.087 86.9827 26.8682 86.0715 26.1713 85.6444C25.4744 85.2173 24.5632 85.4361 24.1361 86.133C23.709 86.8299 23.9278 87.7411 24.6247 88.1682C25.3216 88.5953 26.2328 88.3765 26.6599 87.6796Z" fill="#FCEE21"/>
<path d="M28.6951 84.3555C29.1221 83.6586 28.9034 82.7474 28.2065 82.3203C27.5095 81.8932 26.5983 82.112 26.1712 82.8089C25.7442 83.5058 25.9629 84.417 26.6599 84.8441C27.3568 85.2712 28.268 85.0524 28.6951 84.3555Z" fill="#FCEE21"/>
<path d="M21.4663 88.8788C21.9467 88.2175 21.8001 87.292 21.1389 86.8115C20.4776 86.3311 19.552 86.4777 19.0716 87.139C18.5911 87.8002 18.7377 88.7258 19.399 89.2062C20.0603 89.6867 20.9858 89.5401 21.4663 88.8788Z" fill="#FCEE21"/>
<path d="M23.7622 85.7405C24.2426 85.0792 24.096 84.1537 23.4348 83.6732C22.7735 83.1928 21.8479 83.3394 21.3675 84.0007C20.887 84.6619 21.0336 85.5875 21.6949 86.0679C22.3562 86.5484 23.2817 86.4018 23.7622 85.7405Z" fill="#FCEE21"/>
<path d="M26.0439 82.5944C26.5244 81.9331 26.3778 81.0076 25.7165 80.5271C25.0552 80.0467 24.1297 80.1933 23.6492 80.8545C23.1688 81.5158 23.3154 82.4414 23.9766 82.9218C24.6379 83.4022 25.5635 83.2557 26.0439 82.5944Z" fill="#FCEE21"/>
<path d="M18.4864 86.5371C19.0173 85.9155 18.9437 84.9813 18.3222 84.4505C17.7006 83.9196 16.7664 83.9932 16.2356 84.6147C15.7048 85.2363 15.7783 86.1705 16.3998 86.7013C17.0214 87.2321 17.9556 87.1586 18.4864 86.5371Z" fill="#FCEE21"/>
<path d="M21.0186 83.5709C21.5495 82.9493 21.476 82.0152 20.8544 81.4843C20.2329 80.9535 19.2987 81.027 18.7678 81.6485C18.237 82.2701 18.3105 83.2043 18.932 83.7351C19.5536 84.266 20.4878 84.1924 21.0186 83.5709Z" fill="#FCEE21"/>
<path d="M23.5484 80.6212C24.0793 79.9996 24.0057 79.0654 23.3842 78.5346C22.7627 78.0038 21.8285 78.0773 21.2976 78.6988C20.7668 79.3204 20.8403 80.2546 21.4618 80.7854C22.0834 81.3163 23.0176 81.2427 23.5484 80.6212Z" fill="#FCEE21"/>
<path d="M15.7035 83.9561C16.2815 83.3781 16.2815 82.441 15.7035 81.863C15.1255 81.2851 14.1885 81.2851 13.6105 81.863C13.0325 82.441 13.0325 83.3781 13.6105 83.9561C14.1885 84.534 15.1255 84.534 15.7035 83.9561Z" fill="#FCEE21"/>
<path d="M18.4633 81.2069C19.0413 80.6289 19.0413 79.6919 18.4633 79.1139C17.8853 78.5359 16.9482 78.5359 16.3702 79.1139C15.7923 79.6919 15.7923 80.6289 16.3703 81.2069C16.9482 81.7849 17.8853 81.7849 18.4633 81.2069Z" fill="#FCEE21"/>
<path d="M21.2133 78.4579C21.7913 77.8799 21.7913 76.9428 21.2133 76.3649C20.6353 75.7869 19.6982 75.7869 19.1202 76.3649C18.5423 76.9428 18.5423 77.8799 19.1203 78.4579C19.6982 79.0359 20.6353 79.0359 21.2133 78.4579Z" fill="#FCEE21"/>
<path d="M13.1347 81.1675C13.7562 80.6367 13.8297 79.7025 13.2989 79.081C12.7681 78.4594 11.8339 78.3859 11.2123 78.9167C10.5908 79.4476 10.5173 80.3818 11.0481 81.0033C11.5789 81.6249 12.5131 81.6984 13.1347 81.1675Z" fill="#FCEE21"/>
<path d="M16.1299 78.601C16.7511 78.0697 16.824 77.1354 16.2927 76.5142C15.7614 75.8929 14.8271 75.8201 14.2059 76.3514C13.5846 76.8827 13.5118 77.8169 14.0431 78.4382C14.5743 79.0594 15.5086 79.1323 16.1299 78.601Z" fill="#FCEE21"/>
<path d="M19.0424 76.1216C19.6639 75.5908 19.7375 74.6566 19.2066 74.0351C18.6758 73.4135 17.7416 73.34 17.12 73.8708C16.4985 74.4017 16.425 75.3359 16.9558 75.9574C17.4867 76.579 18.4209 76.6525 19.0424 76.1216Z" fill="#FCEE21"/>
<path d="M10.7844 78.1979C11.4456 77.7174 11.5922 76.7919 11.1118 76.1306C10.6313 75.4693 9.70579 75.3227 9.04451 75.8032C8.38324 76.2836 8.23665 77.2092 8.71709 77.8704C9.19754 78.5317 10.1231 78.6783 10.7844 78.1979Z" fill="#FCEE21"/>
<path d="M13.9367 75.9037C14.598 75.4232 14.7446 74.4977 14.2641 73.8364C13.7837 73.1751 12.8581 73.0285 12.1969 73.509C11.5356 73.9894 11.389 74.915 11.8694 75.5762C12.3499 76.2375 13.2754 76.3841 13.9367 75.9037Z" fill="#FCEE21"/>
<path d="M17.0788 73.6195C17.7401 73.139 17.8867 72.2135 17.4062 71.5522C16.9258 70.8909 16.0002 70.7444 15.3389 71.2248C14.6777 71.7052 14.5311 72.6308 15.0115 73.2921C15.492 73.9533 16.4175 74.0999 17.0788 73.6195Z" fill="#FCEE21"/>
<path d="M8.67374 75.0385C9.37067 74.6114 9.58943 73.7002 9.16235 73.0033C8.73526 72.3063 7.82407 72.0876 7.12714 72.5147C6.43021 72.9417 6.21145 73.8529 6.63853 74.5499C7.06561 75.2468 7.9768 75.4656 8.67374 75.0385Z" fill="#FCEE21"/>
<path d="M11.9984 73.0044C12.6954 72.5773 12.9141 71.6661 12.4871 70.9692C12.06 70.2723 11.1488 70.0535 10.4518 70.4806C9.75492 70.9077 9.53616 71.8189 9.96324 72.5158C10.3903 73.2127 11.3015 73.4315 11.9984 73.0044Z" fill="#FCEE21"/>
<path d="M15.31 70.9741C16.0069 70.5471 16.2257 69.6359 15.7986 68.9389C15.3715 68.242 14.4603 68.0233 13.7634 68.4503C13.0664 68.8774 12.8477 69.7886 13.2748 70.4855C13.7018 71.1825 14.613 71.4012 15.31 70.9741Z" fill="#FCEE21"/>
<path d="M6.82901 71.7241C7.5573 71.3531 7.84687 70.4618 7.47579 69.7335C7.10471 69.0053 6.21349 68.7157 5.48519 69.0868C4.7569 69.4578 4.46733 70.3491 4.83841 71.0774C5.20949 71.8057 6.10071 72.0952 6.82901 71.7241Z" fill="#FCEE21"/>
<path d="M10.288 69.9563C11.0163 69.5852 11.3059 68.694 10.9348 67.9657C10.5637 67.2374 9.67247 66.9479 8.94418 67.3189C8.21589 67.69 7.92631 68.5812 8.29739 69.3095C8.66848 70.0378 9.5597 70.3274 10.288 69.9563Z" fill="#FCEE21"/>
<path d="M13.7606 68.2028C14.4889 67.8317 14.7785 66.9405 14.4074 66.2122C14.0363 65.4839 13.1451 65.1943 12.4168 65.5654C11.6885 65.9365 11.399 66.8277 11.77 67.556C12.1411 68.2843 13.0324 68.5739 13.7606 68.2028Z" fill="#FCEE21"/>
<path d="M5.23006 68.2868C5.98523 67.974 6.34383 67.1083 6.03103 66.3531C5.71824 65.598 4.85248 65.2394 4.09732 65.5522C3.34216 65.865 2.98355 66.7307 3.29635 67.4859C3.60915 68.241 4.4749 68.5996 5.23006 68.2868Z" fill="#FCEE21"/>
<path d="M8.83602 66.7926C9.59118 66.4798 9.94979 65.614 9.63699 64.8589C9.32419 64.1037 8.45844 63.7451 7.70328 64.0579C6.94812 64.3707 6.58951 65.2364 6.90231 65.9916C7.21511 66.7468 8.08086 67.1054 8.83602 66.7926Z" fill="#FCEE21"/>
<path d="M12.4224 65.3122C13.1776 64.9994 13.5362 64.1337 13.2234 63.3785C12.9106 62.6234 12.0449 62.2648 11.2897 62.5775C10.5345 62.8903 10.1759 63.7561 10.4887 64.5113C10.8015 65.2664 11.6673 65.625 12.4224 65.3122Z" fill="#FCEE21"/>
<path d="M3.92235 64.731C4.69973 64.4784 5.12515 63.6434 4.87257 62.866C4.61999 62.0887 3.78504 61.6632 3.00766 61.9158C2.23029 62.1684 1.80486 63.0034 2.05744 63.7807C2.31003 64.5581 3.14498 64.9835 3.92235 64.731Z" fill="#FCEE21"/>
<path d="M7.62059 63.5262C8.39797 63.2737 8.8234 62.4387 8.57081 61.6613C8.31823 60.884 7.48328 60.4585 6.7059 60.7111C5.92853 60.9637 5.5031 61.7986 5.75568 62.576C6.00827 63.3534 6.84322 63.7788 7.62059 63.5262Z" fill="#FCEE21"/>
<path d="M11.3257 62.3221C12.103 62.0696 12.5285 61.2346 12.2759 60.4572C12.0233 59.6799 11.1884 59.2544 10.411 59.507C9.63361 59.7596 9.20818 60.5945 9.46076 61.3719C9.71335 62.1493 10.5483 62.5747 11.3257 62.3221Z" fill="#FCEE21"/>
<path d="M2.89182 61.0649C3.68662 60.8741 4.17625 60.0751 3.98543 59.2803C3.79462 58.4855 2.99562 57.9959 2.20083 58.1867C1.40603 58.3775 0.916404 59.1765 1.10722 59.9713C1.29803 60.7661 2.09703 61.2558 2.89182 61.0649Z" fill="#FCEE21"/>
<path d="M6.67698 60.165C7.47178 59.9742 7.9614 59.1752 7.77059 58.3804C7.57977 57.5856 6.78078 57.096 5.98598 57.2868C5.19119 57.4776 4.70156 58.2766 4.89237 59.0714C5.08319 59.8662 5.88218 60.3559 6.67698 60.165Z" fill="#FCEE21"/>
<path d="M10.4602 59.2577C11.255 59.0669 11.7446 58.2679 11.5538 57.4731C11.363 56.6783 10.564 56.1887 9.76919 56.3795C8.97439 56.5703 8.48476 57.3693 8.67558 58.1641C8.86639 58.9589 9.66539 59.4485 10.4602 59.2577Z" fill="#FCEE21"/>
<path d="M2.15578 57.3543C2.9631 57.2264 3.5139 56.4683 3.38604 55.661C3.25817 54.8536 2.50005 54.3028 1.69274 54.4307C0.885418 54.5586 0.334613 55.3167 0.46248 56.124C0.590347 56.9313 1.34846 57.4821 2.15578 57.3543Z" fill="#FCEE21"/>
<path d="M6.20882 56.852C7.01803 56.7213 7.568 55.9593 7.43722 55.15C7.30644 54.3408 6.54443 53.7909 5.73522 53.9216C4.92601 54.0524 4.37604 54.8144 4.50682 55.6236C4.6376 56.4329 5.39961 56.9828 6.20882 56.852Z" fill="#FCEE21"/>
<path d="M10.0526 56.2238C10.8618 56.093 11.4118 55.331 11.281 54.5218C11.1502 53.7125 10.3882 53.1626 9.57897 53.2934C8.76976 53.4241 8.21979 54.1861 8.35057 54.9954C8.48135 55.8046 9.24336 56.3545 10.0526 56.2238Z" fill="#FCEE21"/>
<path d="M1.71402 53.5855C2.52889 53.5214 3.13747 52.8088 3.07334 51.9939C3.00921 51.1791 2.29665 50.5705 1.48179 50.6346C0.666924 50.6987 0.0583361 51.4113 0.122467 52.2262C0.186598 53.041 0.899162 53.6496 1.71402 53.5855Z" fill="#FCEE21"/>
<path d="M5.58756 53.2721C6.40242 53.208 7.01101 52.4954 6.94688 51.6806C6.88275 50.8657 6.17018 50.2571 5.35532 50.3213C4.54046 50.3854 3.93187 51.098 3.996 51.9128C4.06013 52.7277 4.7727 53.3363 5.58756 53.2721Z" fill="#FCEE21"/>
<path d="M9.46207 52.9794C10.2769 52.9153 10.8855 52.2027 10.8214 51.3879C10.7573 50.573 10.0447 49.9644 9.22983 50.0285C8.41497 50.0927 7.80638 50.8052 7.87051 51.6201C7.93464 52.435 8.64721 53.0435 9.46207 52.9794Z" fill="#FCEE21"/>
<path d="M1.55422 49.79C2.3716 49.79 3.03422 49.1273 3.03422 48.31C3.03422 47.4926 2.3716 46.83 1.55422 46.83C0.736837 46.83 0.0742188 47.4926 0.0742188 48.31C0.0742188 49.1273 0.736837 49.79 1.55422 49.79Z" fill="#FCEE21"/>
<path d="M5.44387 49.79C6.26125 49.79 6.92387 49.1273 6.92387 48.31C6.92387 47.4926 6.26125 46.83 5.44387 46.83C4.62649 46.83 3.96387 47.4926 3.96387 48.31C3.96387 49.1273 4.62649 49.79 5.44387 49.79Z" fill="#FCEE21"/>
<path d="M9.34426 49.79C10.1616 49.79 10.8243 49.1273 10.8243 48.31C10.8243 47.4926 10.1616 46.83 9.34426 46.83C8.52688 46.83 7.86426 47.4926 7.86426 48.31C7.86426 49.1273 8.52688 49.79 9.34426 49.79Z" fill="#FCEE21"/>
<path d="M3.29942 44.6454C3.36355 43.8305 2.75496 43.1179 1.9401 43.0538C1.12524 42.9897 0.412672 43.5983 0.348541 44.4131C0.28441 45.228 0.892997 45.9405 1.70786 46.0047C2.52272 46.0688 3.23528 45.4602 3.29942 44.6454Z" fill="#FCEE21"/>
<path d="M7.17295 44.9508C7.23709 44.1359 6.6285 43.4233 5.81364 43.3592C4.99878 43.2951 4.28621 43.9037 4.22208 44.7185C4.15795 45.5334 4.76654 46.246 5.5814 46.3101C6.39626 46.3742 7.10882 45.7656 7.17295 44.9508Z" fill="#FCEE21"/>
<path d="M11.0567 45.257C11.1209 44.4422 10.5123 43.7296 9.69742 43.6655C8.88256 43.6014 8.17 44.2099 8.10587 45.0248C8.04173 45.8397 8.65032 46.5522 9.46518 46.6164C10.28 46.6805 10.9926 46.0719 11.0567 45.257Z" fill="#FCEE21"/>
<path d="M3.85527 41.0093C3.98314 40.202 3.43234 39.4439 2.62502 39.316C1.8177 39.1882 1.05958 39.739 0.931718 40.5463C0.803852 41.3536 1.35466 42.1117 2.16197 42.2396C2.96929 42.3674 3.72741 41.8166 3.85527 41.0093Z" fill="#FCEE21"/>
<path d="M7.68828 41.6205C7.81615 40.8132 7.26535 40.0551 6.45803 39.9272C5.65071 39.7994 4.89259 40.3502 4.76473 41.1575C4.63686 41.9648 5.18766 42.7229 5.99498 42.8508C6.8023 42.9787 7.56042 42.4278 7.68828 41.6205Z" fill="#FCEE21"/>
<path d="M11.533 42.2233C11.6609 41.416 11.1101 40.6579 10.3028 40.53C9.49544 40.4021 8.73732 40.9529 8.60945 41.7603C8.48159 42.5676 9.03239 43.3257 9.83971 43.4536C10.647 43.5814 11.4051 43.0306 11.533 42.2233Z" fill="#FCEE21"/>
<path d="M4.67635 37.429C4.86717 36.6342 4.37754 35.8352 3.58275 35.6444C2.78795 35.4536 1.98895 35.9432 1.79814 36.738C1.60732 37.5328 2.09695 38.3318 2.89175 38.5226C3.68654 38.7134 4.48554 38.2238 4.67635 37.429Z" fill="#FCEE21"/>
<path d="M8.4659 38.3261C8.65672 37.5313 8.16709 36.7323 7.3723 36.5415C6.5775 36.3507 5.7785 36.8403 5.58769 37.6351C5.39687 38.4299 5.8865 39.2289 6.6813 39.4197C7.4761 39.6105 8.27509 39.1209 8.4659 38.3261Z" fill="#FCEE21"/>
<path d="M12.2437 39.2407C12.4345 38.4459 11.9449 37.6469 11.1501 37.4561C10.3553 37.2652 9.55633 37.7549 9.36552 38.5497C9.1747 39.3445 9.66433 40.1435 10.4591 40.3343C11.2539 40.5251 12.0529 40.0355 12.2437 39.2407Z" fill="#FCEE21"/>
<path d="M5.79591 33.908C6.04849 33.1306 5.62307 32.2957 4.84569 32.0431C4.06832 31.7905 3.23337 32.2159 2.98078 32.9933C2.7282 33.7707 3.15362 34.6056 3.931 34.8582C4.70838 35.1108 5.54332 34.6854 5.79591 33.908Z" fill="#FCEE21"/>
<path d="M9.49073 35.1199C9.74332 34.3425 9.31789 33.5076 8.54052 33.255C7.76314 33.0024 6.92819 33.4279 6.67561 34.2052C6.42302 34.9826 6.84845 35.8176 7.62582 36.0701C8.4032 36.3227 9.23815 35.8973 9.49073 35.1199Z" fill="#FCEE21"/>
<path d="M13.1851 36.3218C13.4377 35.5444 13.0122 34.7095 12.2349 34.4569C11.4575 34.2043 10.6225 34.6298 10.3699 35.4071C10.1174 36.1845 10.5428 37.0195 11.3202 37.272C12.0975 37.5246 12.9325 37.0992 13.1851 36.3218Z" fill="#FCEE21"/>
<path d="M7.17508 30.5001C7.48788 29.745 7.12927 28.8792 6.37411 28.5664C5.61895 28.2536 4.75319 28.6122 4.44039 29.3674C4.1276 30.1226 4.4862 30.9883 5.24137 31.3011C5.99653 31.6139 6.86228 31.2553 7.17508 30.5001Z" fill="#FCEE21"/>
<path d="M10.7654 32.0036C11.0782 31.2484 10.7196 30.3826 9.96444 30.0698C9.20928 29.757 8.34353 30.1157 8.03073 30.8708C7.71793 31.626 8.07653 32.4917 8.8317 32.8045C9.58686 33.1173 10.4526 32.7587 10.7654 32.0036Z" fill="#FCEE21"/>
<path d="M14.3596 33.4878C14.6724 32.7327 14.3138 31.8669 13.5587 31.5541C12.8035 31.2413 11.9378 31.5999 11.625 32.3551C11.3122 33.1102 11.6708 33.976 12.4259 34.2888C13.1811 34.6016 14.0469 34.243 14.3596 33.4878Z" fill="#FCEE21"/>
<path d="M8.8088 27.2196C9.17988 26.4913 8.89031 25.6001 8.16201 25.229C7.43372 24.8579 6.5425 25.1475 6.17142 25.8758C5.80033 26.6041 6.08991 27.4953 6.8182 27.8664C7.54649 28.2374 8.43771 27.9479 8.8088 27.2196Z" fill="#FCEE21"/>
<path d="M12.281 28.9813C12.652 28.253 12.3625 27.3618 11.6342 26.9907C10.9059 26.6196 10.0147 26.9092 9.64359 27.6375C9.2725 28.3658 9.56208 29.257 10.2904 29.6281C11.0187 29.9992 11.9099 29.7096 12.281 28.9813Z" fill="#FCEE21"/>
<path d="M15.7536 30.7431C16.1247 30.0148 15.8351 29.1236 15.1068 28.7525C14.3785 28.3815 13.4873 28.671 13.1162 29.3993C12.7452 30.1276 13.0347 31.0188 13.763 31.3899C14.4913 31.761 15.3825 31.4714 15.7536 30.7431Z" fill="#FCEE21"/>
<path d="M10.7151 24.0645C11.1422 23.3675 10.9234 22.4563 10.2265 22.0293C9.52954 21.6022 8.61835 21.8209 8.19127 22.5179C7.76419 23.2148 7.98295 24.126 8.67988 24.5531C9.37681 24.9802 10.288 24.7614 10.7151 24.0645Z" fill="#FCEE21"/>
<path d="M14.0305 26.0944C14.4576 25.3974 14.2388 24.4863 13.5419 24.0592C12.845 23.6321 11.9338 23.8509 11.5067 24.5478C11.0796 25.2447 11.2984 26.1559 11.9953 26.583C12.6922 27.0101 13.6034 26.7913 14.0305 26.0944Z" fill="#FCEE21"/>
<path d="M17.3494 28.1381C17.7764 27.4411 17.5577 26.53 16.8608 26.1029C16.1638 25.6758 15.2526 25.8946 14.8255 26.5915C14.3985 27.2884 14.6172 28.1996 15.3142 28.6267C16.0111 29.0538 16.9223 28.835 17.3494 28.1381Z" fill="#FCEE21"/>
<path d="M12.8501 21.0747C13.3305 20.4135 13.1839 19.4879 12.5226 19.0075C11.8614 18.527 10.9358 18.6736 10.4554 19.3349C9.97493 19.9962 10.1215 20.9217 10.7828 21.4021C11.4441 21.8826 12.3696 21.736 12.8501 21.0747Z" fill="#FCEE21"/>
<path d="M16.0044 23.3624C16.4848 22.7012 16.3382 21.7756 15.6769 21.2952C15.0157 20.8147 14.0901 20.9613 13.6097 21.6226C13.1292 22.2839 13.2758 23.2094 13.9371 23.6899C14.5984 24.1703 15.5239 24.0237 16.0044 23.3624Z" fill="#FCEE21"/>
<path d="M19.1504 25.6442C19.6308 24.9829 19.4842 24.0574 18.8229 23.5769C18.1617 23.0965 17.2361 23.2431 16.7557 23.9043C16.2752 24.5656 16.4218 25.4912 17.0831 25.9716C17.7444 26.4521 18.6699 26.3055 19.1504 25.6442Z" fill="#FCEE21"/>
<path d="M15.2222 18.2592C15.7531 17.6377 15.6796 16.7035 15.058 16.1727C14.4365 15.6418 13.5023 15.7153 12.9714 16.3369C12.4406 16.9584 12.5141 17.8926 13.1357 18.4235C13.7572 18.9543 14.6914 18.8808 15.2222 18.2592Z" fill="#FCEE21"/>
<path d="M18.1783 20.7816C18.7091 20.16 18.6356 19.2258 18.0141 18.695C17.3925 18.1642 16.4583 18.2377 15.9275 18.8592C15.3966 19.4808 15.4702 20.415 16.0917 20.9458C16.7133 21.4766 17.6474 21.4031 18.1783 20.7816Z" fill="#FCEE21"/>
<path d="M21.1446 23.3138C21.6754 22.6923 21.6019 21.7581 20.9804 21.2272C20.3588 20.6964 19.4246 20.7699 18.8938 21.3914C18.363 22.013 18.4365 22.9472 19.058 23.478C19.6796 24.0089 20.6138 23.9354 21.1446 23.3138Z" fill="#FCEE21"/>
<path d="M17.8017 15.6387C18.3796 15.0607 18.3796 14.1236 17.8017 13.5456C17.2237 12.9677 16.2866 12.9677 15.7086 13.5456C15.1307 14.1236 15.1307 15.0607 15.7086 15.6387C16.2866 16.2167 17.2237 16.2167 17.8017 15.6387Z" fill="#FCEE21"/>
<path d="M20.558 18.3816C21.136 17.8036 21.136 16.8665 20.558 16.2886C19.98 15.7106 19.043 15.7106 18.465 16.2886C17.887 16.8665 17.887 17.8036 18.465 18.3816C19.043 18.9596 19.98 18.9596 20.558 18.3816Z" fill="#FCEE21"/>
<path d="M23.307 21.1316C23.885 20.5536 23.885 19.6165 23.307 19.0386C22.7291 18.4606 21.792 18.4606 21.214 19.0386C20.636 19.6165 20.636 20.5536 21.214 21.1316C21.792 21.7096 22.7291 21.7096 23.307 21.1316Z" fill="#FCEE21"/>
<path d="M20.5898 13.2196C21.2113 12.6887 21.2848 11.7545 20.754 11.133C20.2231 10.5114 19.2889 10.4379 18.6674 10.9687C18.0459 11.4996 17.9723 12.4338 18.5032 13.0553C19.034 13.6769 19.9682 13.7504 20.5898 13.2196Z" fill="#FCEE21"/>
<path d="M23.1156 16.1773C23.7372 15.6465 23.8107 14.7123 23.2799 14.0907C22.749 13.4692 21.8148 13.3957 21.1933 13.9265C20.5717 14.4574 20.4982 15.3916 21.0291 16.0131C21.5599 16.6346 22.4941 16.7082 23.1156 16.1773Z" fill="#FCEE21"/>
<path d="M25.6376 19.1339C26.2592 18.603 26.3327 17.6688 25.8018 17.0473C25.271 16.4257 24.3368 16.3522 23.7152 16.8831C23.0937 17.4139 23.0202 18.3481 23.551 18.9696C24.0819 19.5912 25.0161 19.6647 25.6376 19.1339Z" fill="#FCEE21"/>
<path d="M23.5417 11.0342C24.203 10.5537 24.3495 9.62818 23.8691 8.9669C23.3887 8.30563 22.4631 8.15903 21.8018 8.63948C21.1406 9.11992 20.994 10.0455 21.4744 10.7067C21.9549 11.368 22.8804 11.5146 23.5417 11.0342Z" fill="#FCEE21"/>
<path d="M25.8356 14.1865C26.4969 13.7061 26.6435 12.7805 26.1631 12.1192C25.6826 11.458 24.7571 11.3114 24.0958 11.7918C23.4345 12.2723 23.2879 13.1978 23.7684 13.8591C24.2488 14.5204 25.1744 14.667 25.8356 14.1865Z" fill="#FCEE21"/>
<path d="M28.1218 17.3347C28.783 16.8543 28.9296 15.9287 28.4492 15.2674C27.9687 14.6062 27.0432 14.4596 26.3819 14.94C25.7206 15.4205 25.574 16.346 26.0545 17.0073C26.5349 17.6686 27.4605 17.8152 28.1218 17.3347Z" fill="#FCEE21"/>
<path d="M26.6635 9.08719C27.3604 8.66011 27.5792 7.74891 27.1521 7.05198C26.725 6.35505 25.8138 6.13629 25.1169 6.56337C24.42 6.99045 24.2012 7.90165 24.6283 8.59858C25.0554 9.29551 25.9666 9.51427 26.6635 9.08719Z" fill="#FCEE21"/>
<path d="M28.6991 12.4173C29.3961 11.9902 29.6148 11.079 29.1877 10.3821C28.7607 9.68513 27.8495 9.46637 27.1525 9.89345C26.4556 10.3205 26.2368 11.2317 26.6639 11.9287C27.091 12.6256 28.0022 12.8443 28.6991 12.4173Z" fill="#FCEE21"/>
<path d="M30.7382 15.7237C31.4351 15.2966 31.6539 14.3854 31.2268 13.6885C30.7997 12.9915 29.8885 12.7728 29.1916 13.1998C28.4947 13.6269 28.2759 14.5381 28.703 15.2351C29.1301 15.932 30.0413 16.1507 30.7382 15.7237Z" fill="#FCEE21"/>
<path d="M29.935 7.39406C30.6633 7.02298 30.9528 6.13176 30.5817 5.40347C30.2107 4.67517 29.3194 4.3856 28.5912 4.75668C27.8629 5.12777 27.5733 6.01899 27.9444 6.74728C28.3155 7.47557 29.2067 7.76515 29.935 7.39406Z" fill="#FCEE21"/>
<path d="M31.6938 10.8579C32.422 10.4868 32.7116 9.59563 32.3405 8.86733C31.9695 8.13904 31.0782 7.84947 30.3499 8.22055C29.6216 8.59163 29.3321 9.48285 29.7032 10.2111C30.0742 10.9394 30.9655 11.229 31.6938 10.8579Z" fill="#FCEE21"/>
<path d="M33.4662 14.3261C34.1945 13.955 34.4841 13.0638 34.113 12.3355C33.7419 11.6072 32.8507 11.3176 32.1224 11.6887C31.3941 12.0598 31.1045 12.951 31.4756 13.6793C31.8467 14.4076 32.7379 14.6972 33.4662 14.3261Z" fill="#FCEE21"/>
<path d="M33.3194 5.96189C34.0746 5.64909 34.4332 4.78334 34.1204 4.02818C33.8076 3.27302 32.9418 2.91441 32.1867 3.22721C31.4315 3.54001 31.0729 4.40576 31.3857 5.16092C31.6985 5.91608 32.5643 6.27469 33.3194 5.96189Z" fill="#CCCCCC"/>
<path d="M34.8136 9.55759C35.5687 9.2448 35.9273 8.37904 35.6145 7.62388C35.3017 6.86872 34.436 6.51011 33.6808 6.82291C32.9257 7.13571 32.567 8.00146 32.8798 8.75662C33.1926 9.51179 34.0584 9.87039 34.8136 9.55759Z" fill="#CCCCCC"/>
<path d="M36.294 13.1441C37.0492 12.8313 37.4078 11.9656 37.095 11.2104C36.7822 10.4553 35.9164 10.0967 35.1613 10.4095C34.4061 10.7223 34.0475 11.588 34.3603 12.3432C34.6731 13.0983 35.5389 13.4569 36.294 13.1441Z" fill="#CCCCCC"/>
<path d="M36.7797 4.75969C37.5562 4.50631 37.9802 3.67141 37.7269 2.89489C37.4735 2.11838 36.6386 1.69431 35.8621 1.94769C35.0855 2.20108 34.6615 3.03598 34.9149 3.81249C35.1682 4.58901 36.0031 5.01308 36.7797 4.75969Z" fill="#CCCCCC"/>
<path d="M38.0078 8.49865C38.7852 8.24607 39.2106 7.41112 38.958 6.63374C38.7054 5.85637 37.8705 5.43094 37.0931 5.68352C36.3157 5.93611 35.8903 6.77106 36.1429 7.54843C36.3955 8.32581 37.2304 8.75124 38.0078 8.49865Z" fill="#CCCCCC"/>
<path d="M39.2124 12.1966C39.9898 11.9441 40.4152 11.1091 40.1626 10.3317C39.91 9.55436 39.0751 9.12894 38.2977 9.38152C37.5203 9.63411 37.0949 10.4691 37.3475 11.2464C37.6001 12.0238 38.435 12.4492 39.2124 12.1966Z" fill="#CCCCCC"/>
<path d="M40.3821 3.91235C41.1769 3.72154 41.6665 2.92255 41.4757 2.12775C41.2849 1.33295 40.4859 0.843326 39.6911 1.03414C38.8963 1.22495 38.4066 2.02395 38.5975 2.81875C38.7883 3.61354 39.5873 4.10317 40.3821 3.91235Z" fill="#CCCCCC"/>
<path d="M41.2917 7.69519C42.0865 7.50438 42.5761 6.70538 42.3853 5.91059C42.1945 5.11579 41.3955 4.62616 40.6007 4.81698C39.8059 5.00779 39.3163 5.80679 39.5071 6.60158C39.6979 7.39638 40.4969 7.886 41.2917 7.69519Z" fill="#CCCCCC"/>
<path d="M42.199 11.4784C42.9938 11.2876 43.4834 10.4886 43.2926 9.69379C43.1017 8.89899 42.3028 8.40937 41.508 8.60018C40.7132 8.79099 40.2235 9.58999 40.4143 10.3848C40.6052 11.1796 41.4042 11.6692 42.199 11.4784Z" fill="#CCCCCC"/>
<path d="M44.0171 3.3113C44.8244 3.18343 45.3752 2.42531 45.2474 1.618C45.1195 0.810677 44.3614 0.259873 43.5541 0.38774C42.7467 0.515606 42.1959 1.27372 42.3238 2.08104C42.4517 2.88836 43.2098 3.43916 44.0171 3.3113Z" fill="#CCCCCC"/>
<path d="M44.6201 7.15016C45.4275 7.0223 45.9783 6.26418 45.8504 5.45686C45.7225 4.64954 44.9644 4.09874 44.1571 4.22661C43.3498 4.35447 42.799 5.11259 42.9268 5.91991C43.0547 6.72723 43.8128 7.27803 44.6201 7.15016Z" fill="#CCCCCC"/>
<path d="M45.2232 10.9874C46.0305 10.8596 46.5813 10.1015 46.4534 9.29414C46.3256 8.48682 45.5674 7.93602 44.7601 8.06389C43.9528 8.19175 43.402 8.94987 43.5299 9.75719C43.6577 10.5645 44.4158 11.1153 45.2232 10.9874Z" fill="#CCCCCC"/>
<path d="M47.6833 2.99479C48.4981 2.93066 49.1067 2.21809 49.0426 1.40323C48.9785 0.588371 48.2659 -0.0202166 47.451 0.0439144C46.6362 0.108045 46.0276 0.82061 46.0917 1.63547C46.1558 2.45033 46.8684 3.05892 47.6833 2.99479Z" fill="#FCEE21"/>
<path d="M47.9767 6.87919C48.7916 6.81506 49.4002 6.10249 49.336 5.28763C49.2719 4.47277 48.5593 3.86418 47.7445 3.92831C46.9296 3.99245 46.321 4.70501 46.3852 5.51987C46.4493 6.33473 47.1619 6.94332 47.9767 6.87919Z" fill="#FCEE21"/>
<path d="M48.2892 10.743C49.1041 10.6788 49.7127 9.96626 49.6485 9.1514C49.5844 8.33654 48.8718 7.72795 48.057 7.79208C47.2421 7.85621 46.6335 8.56878 46.6977 9.38364C46.7618 10.1985 47.4744 10.8071 48.2892 10.743Z" fill="#FCEE21"/>
<path d="M51.354 2.96C52.1714 2.96 52.834 2.29738 52.834 1.48C52.834 0.662619 52.1714 0 51.354 0C50.5366 0 49.874 0.662619 49.874 1.48C49.874 2.29738 50.5366 2.96 51.354 2.96Z" fill="#FCEE21"/>
<path d="M51.354 6.86002C52.1714 6.86002 52.834 6.19741 52.834 5.38002C52.834 4.56264 52.1714 3.90002 51.354 3.90002C50.5366 3.90002 49.874 4.56264 49.874 5.38002C49.874 6.19741 50.5366 6.86002 51.354 6.86002Z" fill="#FCEE21"/>
<path d="M51.354 10.75C52.1714 10.75 52.834 10.0874 52.834 9.27004C52.834 8.45266 52.1714 7.79004 51.354 7.79004C50.5366 7.79004 49.874 8.45266 49.874 9.27004C49.874 10.0874 50.5366 10.75 51.354 10.75Z" fill="#FCEE21"/>
<path d="M41.7642 53.3C39.5642 53.3 38.0042 52.63 37.0842 51.29C36.1642 49.95 35.7042 48.12 35.7042 45.8C35.7042 43.04 36.1342 40.48 36.9942 38.12C37.8542 35.76 39.0542 33.88 40.5942 32.48C42.1542 31.06 43.9242 30.35 45.9042 30.35C47.8242 30.35 49.2642 30.99 50.2242 32.27C51.2042 33.55 51.6942 35.31 51.6942 37.55C51.6942 39.77 51.3542 42.1 50.6742 44.54C49.9942 46.96 48.9042 49.03 47.4042 50.75C45.9242 52.45 44.0442 53.3 41.7642 53.3ZM42.1542 51.05C43.0942 51.05 43.9842 50.33 44.8242 48.89C45.6642 47.45 46.3342 45.6 46.8342 43.34C47.3542 41.08 47.6142 38.8 47.6142 36.5C47.6142 35.24 47.4642 34.2 47.1642 33.38C46.8642 32.54 46.4342 32.12 45.8742 32.12C44.9542 32.12 44.0542 32.85 43.1742 34.31C42.2942 35.77 41.5742 37.63 41.0142 39.89C40.4542 42.15 40.1742 44.37 40.1742 46.55C40.1742 49.55 40.8342 51.05 42.1542 51.05ZM61.0755 53.36C60.6755 53.36 60.2555 53.31 59.8155 53.21C59.3955 53.11 58.8755 52.97 58.2555 52.79C57.5155 52.57 56.9055 52.41 56.4255 52.31C55.9455 52.21 55.4455 52.16 54.9255 52.16C53.8055 52.16 52.7055 52.45 51.6255 53.03H51.5055C51.3855 52.55 51.3255 52.08 51.3255 51.62C51.3255 50.78 51.5355 49.96 51.9555 49.16C52.3955 48.34 52.9255 47.59 53.5455 46.91C54.1655 46.23 55.0155 45.36 56.0955 44.3C57.2355 43.2 58.1555 42.26 58.8555 41.48C59.5555 40.68 60.1455 39.81 60.6255 38.87C61.1055 37.91 61.3455 36.91 61.3455 35.87C61.3455 34.73 61.1555 33.83 60.7755 33.17C60.4155 32.51 59.8555 32.18 59.0955 32.18C58.3955 32.18 57.8255 32.42 57.3855 32.9C56.9455 33.36 56.7255 33.93 56.7255 34.61C56.7255 35.29 56.8555 35.9 57.1155 36.44C57.3955 36.96 57.7455 37.34 58.1655 37.58V37.7C57.8255 38.02 57.4555 38.27 57.0555 38.45C56.6555 38.63 56.2655 38.72 55.8855 38.72C55.2655 38.72 54.7455 38.44 54.3255 37.88C53.9255 37.32 53.7255 36.56 53.7255 35.6C53.7255 34.76 53.9655 33.95 54.4455 33.17C54.9455 32.39 55.6755 31.75 56.6355 31.25C57.5955 30.75 58.7255 30.5 60.0255 30.5C61.7655 30.5 63.1655 30.99 64.2255 31.97C65.3055 32.93 65.8455 34.26 65.8455 35.96C65.8455 37.04 65.5655 38.04 65.0055 38.96C64.4655 39.88 63.7955 40.7 62.9955 41.42C62.1955 42.14 61.1255 43.01 59.7855 44.03C58.4655 45.03 57.4155 45.89 56.6355 46.61C55.8555 47.33 55.2555 48.09 54.8355 48.89C55.4155 48.73 56.0355 48.65 56.6955 48.65C57.1755 48.65 57.6755 48.69 58.1955 48.77C58.7155 48.85 59.2055 48.94 59.6655 49.04C59.7455 49.06 60.0055 49.12 60.4455 49.22C60.9055 49.3 61.3155 49.34 61.6755 49.34C62.2155 49.34 62.7155 49.23 63.1755 49.01C63.6355 48.77 64.1155 48.37 64.6155 47.81L64.7055 47.87C64.9655 48.61 65.0955 49.23 65.0955 49.73C65.0955 50.43 64.9055 51.06 64.5255 51.62C64.1655 52.16 63.6755 52.59 63.0555 52.91C62.4355 53.21 61.7755 53.36 61.0755 53.36Z" fill="white"/>
<path d="M30.8982 69.096C30.3862 69.096 29.9542 69 29.6022 68.808C29.2502 68.6053 28.9889 68.3493 28.8182 68.04C28.6476 67.72 28.5622 67.3893 28.5622 67.048C28.5622 66.696 28.6476 66.392 28.8182 66.136C28.9782 65.8693 29.1756 65.6773 29.4102 65.56C29.8262 64.8133 30.1889 64.0613 30.4982 63.304C30.8076 62.536 31.1009 61.7093 31.3782 60.824L33.7462 60.504C33.7996 61.8693 33.8902 63.3467 34.0182 64.936C34.0716 65.576 34.0982 66.04 34.0982 66.328C34.0982 66.5733 34.0769 66.776 34.0342 66.936C34.5356 66.648 34.9196 66.3813 35.1862 66.136H35.8582C35.1756 66.9253 34.3596 67.592 33.4102 68.136C33.1009 68.4667 32.7169 68.712 32.2582 68.872C31.8102 69.0213 31.3569 69.096 30.8982 69.096ZM30.3862 67.832C30.7809 67.832 31.1116 67.7147 31.3782 67.48C31.6449 67.2453 31.7782 66.8667 31.7782 66.344C31.7782 66.024 31.7462 65.576 31.6822 65C31.5756 63.784 31.5062 62.968 31.4742 62.552C31.2182 63.3947 30.7862 64.4027 30.1782 65.576C30.4236 65.704 30.5462 65.8907 30.5462 66.136C30.5462 66.3387 30.4769 66.52 30.3382 66.68C30.2102 66.84 30.0449 66.92 29.8422 66.92C29.6182 66.92 29.4742 66.8507 29.4102 66.712C29.4102 67.096 29.4849 67.3787 29.6342 67.56C29.7942 67.7413 30.0449 67.832 30.3862 67.832ZM37.4716 69.096C36.6823 69.096 36.0689 68.8933 35.6316 68.488C35.1943 68.072 34.9756 67.4267 34.9756 66.552C34.9756 65.816 35.1196 65.0053 35.4076 64.12C35.6956 63.2347 36.1649 62.472 36.8156 61.832C37.4663 61.1813 38.2929 60.856 39.2956 60.856C40.4689 60.856 41.0556 61.368 41.0556 62.392C41.0556 62.9893 40.8849 63.5387 40.5436 64.04C40.2023 64.5413 39.7489 64.9467 39.1836 65.256C38.6183 65.5547 38.0156 65.7253 37.3756 65.768C37.3543 66.088 37.3436 66.3013 37.3436 66.408C37.3436 66.9307 37.4343 67.288 37.6156 67.48C37.7969 67.6613 38.0903 67.752 38.4956 67.752C39.0716 67.752 39.5623 67.6187 39.9676 67.352C40.3836 67.0853 40.8369 66.68 41.3276 66.136H41.8716C40.6876 68.1093 39.2209 69.096 37.4716 69.096ZM37.5036 65C37.8983 64.9787 38.2716 64.84 38.6236 64.584C38.9863 64.328 39.2743 64.0027 39.4876 63.608C39.7116 63.2133 39.8236 62.7973 39.8236 62.36C39.8236 61.9227 39.6903 61.704 39.4236 61.704C39.0396 61.704 38.6609 62.04 38.2876 62.712C37.9249 63.384 37.6636 64.1467 37.5036 65ZM43.6122 69.096C42.8229 69.096 42.2096 68.8933 41.7722 68.488C41.3349 68.072 41.1162 67.4267 41.1162 66.552C41.1162 65.816 41.2602 65.0053 41.5482 64.12C41.8469 63.2347 42.3162 62.472 42.9562 61.832C43.6069 61.1813 44.4282 60.856 45.4202 60.856C46.0602 60.856 46.5136 60.9947 46.7802 61.272C47.0576 61.5493 47.1962 61.9013 47.1962 62.328C47.1962 62.7013 47.1162 62.9893 46.9562 63.192C46.7962 63.3947 46.5936 63.496 46.3482 63.496C46.1669 63.496 45.9802 63.432 45.7882 63.304C45.9162 62.952 45.9802 62.6373 45.9802 62.36C45.9802 62.1573 45.9429 61.9973 45.8682 61.88C45.7936 61.7627 45.6816 61.704 45.5322 61.704C45.2122 61.704 44.8922 61.9653 44.5722 62.488C44.2522 63.0107 43.9909 63.6453 43.7882 64.392C43.5856 65.1387 43.4842 65.8107 43.4842 66.408C43.4842 66.9307 43.5749 67.288 43.7562 67.48C43.9376 67.6613 44.2309 67.752 44.6362 67.752C45.2122 67.752 45.7029 67.6187 46.1082 67.352C46.5242 67.0853 46.9776 66.68 47.4682 66.136H48.0122C46.8282 68.1093 45.3616 69.096 43.6122 69.096ZM49.8008 69.064C49.0115 69.064 48.3875 68.8613 47.9288 68.456C47.4702 68.0507 47.2408 67.4107 47.2408 66.536C47.2408 65.8107 47.3902 65.0053 47.6888 64.12C47.9875 63.2347 48.4675 62.472 49.1288 61.832C49.7902 61.1813 50.6222 60.856 51.6248 60.856C52.9902 60.856 53.6728 61.7093 53.6728 63.416V63.432C53.7048 63.4427 53.7635 63.448 53.8488 63.448C54.2008 63.448 54.6062 63.3573 55.0648 63.176C55.5235 62.984 55.9395 62.7547 56.3128 62.488L56.4568 62.92C56.1475 63.2507 55.7422 63.5333 55.2408 63.768C54.7502 63.992 54.2115 64.152 53.6248 64.248C53.5395 65.2187 53.3208 66.0667 52.9688 66.792C52.6168 67.5173 52.1635 68.0773 51.6088 68.472C51.0542 68.8667 50.4515 69.064 49.8008 69.064ZM50.4408 67.624C50.6968 67.624 50.9528 67.48 51.2088 67.192C51.4648 66.8933 51.6888 66.4933 51.8808 65.992C52.0728 65.48 52.2115 64.9147 52.2968 64.296C52.0088 64.232 51.8648 64.008 51.8648 63.624C51.8648 63.1867 52.0302 62.8987 52.3608 62.76C52.3395 62.408 52.2862 62.168 52.2008 62.04C52.1155 61.9013 51.9662 61.832 51.7528 61.832C51.4008 61.832 51.0595 62.088 50.7288 62.6C50.3982 63.112 50.1315 63.7253 49.9288 64.44C49.7262 65.1547 49.6248 65.784 49.6248 66.328C49.6248 66.84 49.6835 67.1867 49.8008 67.368C49.9182 67.5387 50.1315 67.624 50.4408 67.624ZM60.2721 69.096C59.6214 69.096 59.1414 68.9253 58.8321 68.584C58.5334 68.232 58.3841 67.8 58.3841 67.288C58.3841 67.064 58.4108 66.8133 58.4641 66.536C58.5174 66.248 58.5708 65.9707 58.6241 65.704C58.6881 65.4373 58.7308 65.2667 58.7521 65.192C58.8374 64.8187 58.9174 64.4507 58.9921 64.088C59.0668 63.7253 59.1041 63.432 59.1041 63.208C59.1041 62.664 58.9121 62.392 58.5281 62.392C58.2508 62.392 58.0054 62.5307 57.7921 62.808C57.5788 63.0747 57.4081 63.4267 57.2801 63.864L56.1921 69H53.8881L55.5841 61H57.8881L57.7121 61.832C58.2454 61.2347 58.8694 60.936 59.5841 60.936C60.1281 60.936 60.5601 61.0853 60.8801 61.384C61.2001 61.6827 61.3601 62.136 61.3601 62.744C61.3601 63.0533 61.3228 63.4 61.2481 63.784C61.1734 64.1573 61.0668 64.616 60.9281 65.16C60.8428 65.4907 60.7628 65.816 60.6881 66.136C60.6241 66.4453 60.5921 66.6907 60.5921 66.872C60.5921 67.0853 60.6401 67.2507 60.7361 67.368C60.8321 67.4853 60.9974 67.544 61.2321 67.544C61.5521 67.544 61.8081 67.432 62.0001 67.208C62.1921 66.9733 62.3841 66.616 62.5761 66.136H63.2481C62.8534 67.3093 62.3948 68.0987 61.8721 68.504C61.3601 68.8987 60.8268 69.096 60.2721 69.096ZM64.4942 69.096C63.8862 69.096 63.3796 68.888 62.9742 68.472C62.5689 68.056 62.3662 67.4053 62.3662 66.52C62.3662 65.7307 62.5209 64.904 62.8302 64.04C63.1502 63.1653 63.6196 62.4293 64.2382 61.832C64.8676 61.224 65.6142 60.92 66.4782 60.92C66.9156 60.92 67.2409 60.9947 67.4542 61.144C67.6676 61.2933 67.7742 61.4907 67.7742 61.736V61.8L68.5582 58.12L70.9262 57.8L69.0862 66.44C69.0436 66.6 69.0222 66.7707 69.0222 66.952C69.0222 67.1653 69.0702 67.32 69.1662 67.416C69.2729 67.5013 69.4436 67.544 69.6782 67.544C69.9769 67.544 70.2329 67.416 70.4462 67.16C70.6702 66.904 70.8462 66.5627 70.9742 66.136H71.6462C70.9956 68.0453 69.9236 69 68.4302 69C67.9929 69 67.6356 68.8827 67.3582 68.648C67.0916 68.4133 66.9262 68.072 66.8622 67.624C66.5849 68.0507 66.2489 68.4027 65.8542 68.68C65.4702 68.9573 65.0169 69.096 64.4942 69.096ZM65.5342 67.544C65.7902 67.544 66.0462 67.4267 66.3022 67.192C66.5689 66.9573 66.7502 66.632 66.8462 66.216V66.136L67.6302 62.472C67.5342 62.0987 67.3156 61.912 66.9742 61.912C66.5476 61.912 66.1636 62.1627 65.8222 62.664C65.4809 63.1547 65.2142 63.752 65.0222 64.456C64.8302 65.1493 64.7342 65.7627 64.7342 66.296C64.7342 66.8293 64.8089 67.1707 64.9582 67.32C65.1182 67.4693 65.3102 67.544 65.5342 67.544ZM72.8045 69.096C72.2925 69.096 71.8605 69 71.5085 68.808C71.1565 68.6053 70.8951 68.3493 70.7245 68.04C70.5538 67.72 70.4685 67.3893 70.4685 67.048C70.4685 66.696 70.5538 66.392 70.7245 66.136C70.8845 65.8693 71.0818 65.6773 71.3165 65.56C71.7325 64.8133 72.0951 64.0613 72.4045 63.304C72.7138 62.536 73.0071 61.7093 73.2845 60.824L75.6525 60.504C75.7058 61.8693 75.7965 63.3467 75.9245 64.936C75.9778 65.576 76.0045 66.04 76.0045 66.328C76.0045 66.9787 75.8391 67.512 75.5085 67.928C75.1778 68.344 74.7671 68.6427 74.2765 68.824C73.7965 69.0053 73.3058 69.096 72.8045 69.096ZM72.2925 67.832C72.6871 67.832 73.0178 67.7147 73.2845 67.48C73.5511 67.2453 73.6845 66.8667 73.6845 66.344C73.6845 66.024 73.6525 65.576 73.5885 65C73.4818 63.784 73.4125 62.968 73.3805 62.552C73.1245 63.3947 72.6925 64.4027 72.0845 65.576C72.3298 65.704 72.4525 65.8907 72.4525 66.136C72.4525 66.3387 72.3831 66.52 72.2445 66.68C72.1165 66.84 71.9511 66.92 71.7485 66.92C71.5245 66.92 71.3805 66.8507 71.3165 66.712C71.3165 67.096 71.3911 67.3787 71.5405 67.56C71.7005 67.7413 71.9511 67.832 72.2925 67.832Z" fill="white"/>
</g>
<defs>
<clipPath id="clip0">
<rect width="99.6" height="99.6" fill="white" transform="translate(0.0742188)"/>
</clipPath>
</defs>
</svg>
