<svg width="1058" height="62" viewBox="0 0 1058 62" fill="none" xmlns="http://www.w3.org/2000/svg">
<path d="M0 48.0005H1016.16V58.0005H0V48.0005Z" fill="#FFFF00"/>
<path d="M1032.07 0.0315933C1031.54 0.121544 1031.54 0.121544 1031.85 0.287243C1032.19 0.476613 1032.51 0.774871 1032.7 1.07786C1032.79 1.20569 1032.87 1.31458 1032.9 1.31458C1032.99 1.31458 1033.17 1.17728 1033.46 0.883758C1033.75 0.594969 1034.03 0.438739 1034.35 0.386662C1034.46 0.367725 1034.53 0.334585 1034.51 0.315648C1034.49 0.291977 1034.26 0.216229 1034.01 0.14995C1033.51 0.0173906 1032.53 -0.0394204 1032.07 0.0315933Z" fill="#FFFF00"/>
<path d="M1029.46 0.116644C1029.35 0.126112 1029.09 0.163986 1028.86 0.206594C1028.4 0.291811 1028.21 0.362825 1028.45 0.367559C1028.68 0.367559 1028.82 0.443307 1029.08 0.698956L1029.33 0.935669L1029.55 0.675285C1029.69 0.495384 1029.86 0.35809 1030.07 0.249203L1030.37 0.0882382L1030.01 0.0929724C1029.81 0.0977067 1029.56 0.107175 1029.46 0.116644Z" fill="#FFFF00"/>
<path d="M1030.42 0.386229C1030.31 0.419369 1030.15 0.495115 1030.07 0.556662C1029.83 0.703423 1029.39 1.2668 1029.51 1.2668C1029.52 1.2668 1029.64 1.18158 1029.77 1.08216C1030.05 0.864388 1030.78 0.53299 1030.89 0.575598C1031.03 0.63241 1030.93 0.712893 1030.45 0.925932C1030.05 1.10583 1029.93 1.19105 1029.71 1.42303C1029.49 1.65501 1029.43 1.75443 1029.35 2.03375C1029.24 2.39355 1029.24 2.48824 1029.35 2.55925C1029.41 2.59712 1029.5 2.55925 1029.76 2.38408C1030.07 2.16631 1030.22 2.13317 1030.22 2.27993C1030.22 2.37935 1029.95 2.59239 1029.53 2.82437C1029.19 3.01374 1029.14 3.05634 1028.85 3.48243C1028.67 3.73334 1028.37 4.10262 1028.18 4.29672C1027.65 4.83169 1027.64 4.86483 1027.64 6.82954C1027.64 7.68644 1027.64 8.50073 1027.64 8.63803C1027.64 8.80372 1027.68 8.96942 1027.76 9.16826C1027.91 9.49019 1027.91 9.61328 1027.76 10.2477C1027.69 10.5601 1027.68 10.5933 1027.57 10.5933C1027.44 10.5933 1027.44 10.5507 1027.56 9.99676L1027.64 9.57541L1027.51 9.21087C1027.36 8.80372 1027.34 8.57175 1027.42 7.95629C1027.47 7.64383 1027.46 7.53968 1027.41 7.41185C1027.33 7.19881 1027.04 6.88635 1026.7 6.63544C1026.24 6.29457 1026.04 6.22829 1025.47 6.19989C1024.41 6.15254 1023.97 6.41766 1023.37 7.46393C1022.53 8.93155 1022.39 9.02623 1021.02 9.06411C1020.13 9.09251 1020.01 9.07358 1020.03 8.92208C1020.04 8.81793 1020.05 8.81793 1020.62 8.83686C1021.22 8.85107 1021.82 8.78479 1022.09 8.67117C1022.33 8.56701 1022.53 8.33977 1022.64 8.05098C1022.72 7.84267 1022.74 7.73378 1022.72 7.45446C1022.71 7.26036 1022.67 7.04258 1022.62 6.9479C1022.57 6.85795 1022.31 6.54549 1022.04 6.2567C1021.51 5.69806 1021.38 5.44714 1021.32 4.95004C1021.29 4.73227 1021.3 4.7228 1021.41 4.7228C1021.52 4.7228 1021.54 4.74647 1021.58 4.99265C1021.67 5.44714 1021.75 5.5797 1022.24 6.09573C1022.77 6.64491 1022.85 6.77747 1022.96 7.23195L1023.03 7.53968L1023.24 7.18461C1023.58 6.57863 1024 6.19042 1024.45 6.04839C1024.56 6.01999 1024.67 5.98685 1024.7 5.97264C1024.74 5.95844 1024.74 5.9253 1024.68 5.81641C1024.63 5.70753 1024.62 5.52762 1024.62 5.0684C1024.62 4.2257 1024.66 3.94638 1024.77 3.92745C1024.84 3.90851 1024.85 3.95112 1024.82 4.71807C1024.79 5.43294 1024.79 5.55129 1024.86 5.71226L1024.95 5.89216L1025.42 5.9253C1025.68 5.94424 1025.99 5.98685 1026.12 6.02472C1026.39 6.10994 1026.83 6.37979 1027.14 6.64964C1027.27 6.76326 1027.38 6.85321 1027.39 6.85321C1027.4 6.85321 1027.4 6.47447 1027.41 6.01052C1027.41 5.29564 1027.43 5.12521 1027.51 4.85063C1027.57 4.67072 1027.6 4.51449 1027.59 4.50503C1027.58 4.49082 1027.29 4.32512 1026.94 4.13575C1026.26 3.76648 1025.17 2.99953 1025.17 2.89538C1025.17 2.74862 1025.29 2.8007 1025.8 3.17944C1026.09 3.39721 1026.66 3.75228 1027.05 3.96532L1027.75 4.34879L1028.01 4.12155C1028.15 3.99373 1028.42 3.65759 1028.62 3.37354C1028.82 3.08949 1029.01 2.83857 1029.05 2.8149C1029.16 2.74862 1029.13 2.71074 1028.82 2.55451C1028.4 2.33674 1028.18 2.30833 1027.01 2.30833C1026.44 2.30833 1025.63 2.28466 1025.21 2.25626C1024.49 2.20418 1024.44 2.20418 1024.09 2.3036C1023.54 2.45983 1023.14 2.69654 1022.82 3.05634C1022.68 3.22678 1022.56 3.38301 1022.57 3.40668C1022.59 3.42562 1022.68 3.46823 1022.79 3.50137C1022.97 3.55818 1022.98 3.55344 1023.1 3.40668C1023.18 3.30253 1023.25 3.25992 1023.3 3.28359C1023.4 3.32146 1023.39 3.36407 1023.26 3.52977C1023.07 3.76648 1022.93 3.78542 1022.57 3.62919C1022.3 3.51083 1022.19 3.4919 1021.84 3.4919C1021.51 3.4919 1021.4 3.51083 1021.22 3.60552C1020.8 3.83276 1020.04 4.58551 1019.66 5.15835C1019.4 5.55603 1019.01 6.4366 1018.86 7.00471C1018.71 7.53021 1018.51 7.94209 1018.41 7.94209C1018.31 7.94209 1018.31 7.80006 1018.4 7.67224C1018.54 7.46867 1018.78 6.64964 1018.72 6.58336C1018.68 6.54549 1017.8 6.70172 1017.52 6.7964C1017.25 6.88635 1016.99 7.13727 1016.67 7.6249C1016.29 8.21194 1016.11 8.62382 1016.11 8.95049C1016.11 9.29609 1016.21 9.52333 1016.45 9.77898C1016.67 10.0062 1017.07 10.2619 1017.2 10.2619C1017.25 10.2619 1017.36 10.1767 1017.45 10.0678C1017.59 9.8784 1017.59 9.86893 1017.57 9.547C1017.53 9.22034 1017.53 9.22034 1017.65 9.22034C1017.75 9.22034 1017.77 9.24874 1017.81 9.45705C1017.91 9.92574 1017.88 9.99676 1017.35 10.5223C1017.15 10.7306 1016.94 10.9862 1016.89 11.0904C1016.79 11.3129 1016.77 11.952 1016.85 12.3402C1016.95 12.7852 1017.64 13.7226 1018.06 13.9783C1018.21 14.0682 1018.79 14.2386 1018.94 14.2386C1018.95 14.2386 1018.92 14.1534 1018.87 14.054C1018.7 13.7084 1018.71 13.5522 1018.91 12.9225C1019.07 12.4302 1019.1 12.2834 1019.1 11.9473C1019.1 11.5164 1019 11.0194 1018.8 10.5507C1018.67 10.2287 1018.68 10.1198 1018.82 10.1198C1018.88 10.1198 1018.94 10.2051 1019.05 10.4607C1019.28 11.0336 1019.35 11.3744 1019.35 11.9189C1019.35 12.3733 1019.34 12.4586 1019.18 12.9131C1018.97 13.5285 1018.96 13.7226 1019.15 14.0161C1019.39 14.4138 1019.66 14.57 1020.75 14.944C1021.75 15.2896 1021.72 15.2896 1022.13 14.9725C1022.32 14.8257 1022.78 14.4896 1023.14 14.2244C1023.51 13.9641 1023.83 13.7321 1023.85 13.7131C1023.88 13.6942 1023.78 13.6232 1023.65 13.5616C1023.32 13.4149 1022.62 12.8089 1022.32 12.416C1022.03 12.0467 1021.68 11.7579 1020.97 11.3034C1020.67 11.114 1020.3 10.8347 1020.14 10.6832C1019.88 10.4276 1019.86 10.4039 1019.94 10.3282C1020.01 10.2524 1020.03 10.2619 1020.25 10.4702C1020.48 10.6785 1020.65 10.8016 1021.51 11.365C1021.9 11.6253 1022.3 11.9851 1022.55 12.3071C1022.94 12.8184 1023.84 13.4812 1024.14 13.4812C1024.18 13.4812 1024.34 13.4007 1024.5 13.2965C1024.91 13.0267 1025.24 12.861 1025.58 12.7663C1025.74 12.7189 1025.88 12.6716 1025.89 12.6574C1025.9 12.6479 1025.87 12.4917 1025.81 12.3165C1025.67 11.8194 1025.49 10.6596 1025.44 9.88787C1025.37 8.8274 1025.33 8.59068 1025.09 8.06045C1024.73 7.25089 1024.73 7.23195 1024.8 7.17988C1024.91 7.10886 1024.93 7.1278 1025.11 7.50181C1025.53 8.36344 1025.6 8.65223 1025.67 9.78845C1025.72 10.527 1025.82 11.2371 1026 12.0514C1026.05 12.2929 1026.08 12.5248 1026.07 12.5627C1026.04 12.629 1026.08 12.6337 1026.32 12.6053C1026.78 12.5485 1027.27 12.5627 1027.79 12.6527C1028.2 12.7189 1028.36 12.7237 1028.81 12.6811C1029.52 12.6101 1029.72 12.539 1030.12 12.2029C1030.46 11.9331 1030.47 11.9094 1030.55 11.6017C1030.71 10.9767 1030.67 10.8679 1030.07 10.224C1029.73 9.85473 1029.67 9.77425 1029.72 9.7127C1029.77 9.65116 1029.79 9.66062 1029.93 9.79318C1030.01 9.8784 1030.09 9.93994 1030.1 9.92574C1030.11 9.91627 1030.07 9.78845 1030.01 9.64642C1029.89 9.36237 1029.88 9.26768 1029.95 9.26768C1030 9.26768 1030.18 9.63695 1030.29 9.96835C1030.33 10.1056 1030.41 10.2761 1030.47 10.3471C1030.75 10.6927 1030.82 10.8347 1030.82 11.114C1030.82 11.2608 1030.79 11.4786 1030.76 11.5922L1030.69 11.8005H1031.41C1032.1 11.8005 1032.14 11.7958 1032.39 11.6679C1032.76 11.4786 1033.23 11.0998 1033.44 10.8158C1033.65 10.5175 1033.76 10.2429 1033.79 9.85946C1033.82 9.52806 1033.93 9.173 1034 9.173C1034.14 9.17773 1034.19 9.25348 1034.14 9.39551C1034.11 9.46652 1034.06 9.70323 1034.04 9.92101C1033.98 10.4465 1033.8 10.8347 1033.43 11.204C1033.28 11.3602 1033.1 11.5259 1033.02 11.5733C1032.73 11.7484 1032.85 11.7437 1033.78 11.5259C1034.89 11.2655 1035.48 11.2466 1036.21 11.4502L1036.56 11.5496L1036.83 11.346C1037.24 11.0146 1037.89 10.3329 1038.39 9.69376C1038.84 9.11145 1039.32 8.60489 1039.41 8.60489C1039.55 8.60489 1039.48 8.74691 1039.17 9.07358C1038.98 9.27242 1038.7 9.60381 1038.53 9.81212C1038.03 10.4654 1037.71 10.8252 1037.24 11.2419C1037 11.4644 1036.79 11.6585 1036.79 11.6774C1036.79 11.6964 1037.02 11.8478 1037.3 12.0135L1037.82 12.3165L1037.91 12.1982C1037.96 12.1366 1038.04 12.0277 1038.09 11.9662C1038.16 11.8573 1038.17 11.8526 1038.24 11.9236C1038.29 11.9757 1038.31 12.0372 1038.29 12.0988C1038.25 12.2124 1037.88 12.5817 1037.79 12.5817C1037.76 12.5817 1037.44 12.4018 1037.07 12.184C1036.21 11.6632 1036.03 11.6111 1035.18 11.6159C1034.58 11.6159 1034.44 11.6348 1033.78 11.791C1033.38 11.8905 1032.86 11.9899 1032.63 12.0183C1032.03 12.094 1031.53 12.1934 1031.25 12.3023C1030.95 12.4207 1030.44 12.771 1030.07 13.1214L1029.79 13.3723L1029.86 13.5569C1029.99 13.8741 1030 14.1061 1029.92 14.4564C1029.84 14.8446 1029.79 14.9251 1029.7 14.8872C1029.64 14.8636 1029.64 14.8257 1029.69 14.5842C1029.8 14.1108 1029.78 13.8694 1029.6 13.4812C1029.46 13.2113 1029.44 13.1308 1029.49 13.0977C1029.53 13.074 1029.58 13.0882 1029.63 13.1308C1029.7 13.1924 1029.73 13.1734 1030 12.9273C1030.37 12.5817 1030.53 12.4586 1030.93 12.2408C1031.22 12.0846 1031.24 12.0609 1031.11 12.0609C1030.85 12.0609 1030.52 12.1934 1030.29 12.4065C1029.86 12.7947 1029.55 12.9036 1028.72 12.9462C1028.31 12.9651 1028.02 12.9509 1027.58 12.8894C1026.91 12.7947 1026.54 12.8089 1025.88 12.9651C1025.35 13.093 1025.01 13.2634 1024.02 13.9404C1022.74 14.802 1021.82 15.5264 1021.73 15.7252C1021.7 15.7867 1021.65 16.0661 1021.61 16.3501C1021.57 16.6342 1021.51 17.0082 1021.49 17.1833C1021.43 17.5574 1021.47 17.6804 1021.82 18.0592C1021.98 18.2344 1022.04 18.3432 1022.04 18.4427C1022.04 18.5184 1022.07 18.6746 1022.1 18.7883C1022.14 18.9019 1022.16 19.077 1022.14 19.1717C1022.12 19.4416 1022.21 19.6688 1022.5 19.9624C1022.76 20.2417 1023.39 20.663 1023.63 20.7293C1023.71 20.7482 1023.94 20.8477 1024.16 20.9471C1024.54 21.1222 1024.56 21.127 1025.07 21.127C1025.36 21.127 1025.64 21.1033 1025.69 21.0749C1025.76 21.0323 1025.74 21.0039 1025.52 20.8477C1024.79 20.3364 1024.71 19.5931 1025.21 18.3385C1025.31 18.0829 1025.39 17.8651 1025.38 17.8509C1025.37 17.8414 1025.27 17.9077 1025.17 18.0024C1025.04 18.1255 1024.9 18.3574 1024.7 18.7693C1024.36 19.4653 1024.08 19.7777 1024 19.5552C1023.98 19.4984 1024.01 19.4416 1024.11 19.3611C1024.2 19.2901 1024.35 19.0439 1024.52 18.6888C1024.85 18.0166 1025.01 17.8177 1025.36 17.6473L1025.62 17.5195L1025.42 17.4248C1025.32 17.3727 1025.16 17.2686 1025.08 17.1928C1024.99 17.1218 1024.79 16.9845 1024.62 16.8898C1023.37 16.2128 1023.28 16.1513 1023.42 16.0613C1023.45 16.0424 1023.71 16.1607 1023.99 16.317C1024.28 16.4779 1024.53 16.6058 1024.54 16.6058C1024.56 16.6058 1024.5 16.4685 1024.43 16.298C1024.35 16.1323 1024.3 15.9714 1024.32 15.943C1024.38 15.8341 1024.47 15.9146 1024.62 16.2318C1024.91 16.8709 1025.36 17.2544 1025.98 17.3869C1026.45 17.4911 1026.66 17.4721 1027.41 17.2828C1028.05 17.1171 1028.09 17.1029 1028.29 16.904C1028.4 16.7904 1028.54 16.6863 1028.6 16.672C1028.66 16.6531 1028.71 16.6389 1028.71 16.6294C1028.71 16.6247 1028.6 16.388 1028.48 16.1039C1028.22 15.5311 1028.21 15.4695 1028.33 15.4695C1028.39 15.4695 1028.47 15.6021 1028.63 15.9524C1028.96 16.6863 1028.9 16.6436 1029.65 16.7573C1030.67 16.904 1030.79 16.8851 1031.69 16.4211C1032.11 16.2034 1032.48 16.0045 1032.51 15.9808C1032.54 15.9524 1032.57 15.8625 1032.57 15.782C1032.57 15.5832 1032.89 14.9772 1033.38 14.2481C1033.61 13.9167 1033.83 13.5758 1033.88 13.4906C1033.96 13.3391 1034.05 13.2965 1034.1 13.3865C1034.14 13.4528 1034.05 13.6185 1033.6 14.286C1033.11 15.0103 1032.8 15.5358 1032.77 15.7394L1032.74 15.8909L1032.91 15.8436C1033.04 15.8057 1033.15 15.8104 1033.38 15.872C1033.81 15.9808 1034.28 16.0045 1035.14 15.9572C1035.86 15.9146 1035.92 15.9051 1036.2 15.7583C1036.55 15.5832 1036.67 15.4648 1036.84 15.1476C1036.9 15.0245 1036.99 14.9204 1037.04 14.9109C1037.24 14.8683 1037.02 15.3512 1036.66 15.6921C1036.52 15.8341 1036.44 15.943 1036.48 15.943C1036.52 15.943 1036.79 16.0708 1037.09 16.227L1037.62 16.5111H1038.21H1038.79L1039.37 15.9051C1039.85 15.3938 1040.01 15.2612 1040.38 15.0435C1041.17 14.5842 1041.63 14.2434 1042.12 13.7226C1042.64 13.1876 1042.71 13.074 1043.06 12.2029C1043.17 11.9283 1043.39 11.4691 1043.55 11.1851C1044.14 10.1719 1044.14 10.1435 1043.62 9.24401C1043.08 8.3161 1043 8.14093 1043.09 8.08412C1043.21 8.00364 1043.24 8.03204 1043.39 8.31136C1043.47 8.45812 1043.7 8.86527 1043.89 9.2156C1044.24 9.81685 1044.26 9.86893 1044.25 10.1151C1044.25 10.4276 1044.18 10.6075 1043.84 11.1993C1043.54 11.7106 1043.52 11.649 1044.12 11.9709C1044.49 12.165 1045.11 12.6479 1045.11 12.7284C1045.11 12.8562 1044.95 12.8136 1044.74 12.6337C1044.5 12.4207 1043.56 11.8621 1043.49 11.8857C1043.47 11.8905 1043.34 12.1698 1043.2 12.5059C1042.9 13.2397 1042.82 13.3675 1042.26 13.9593C1041.82 14.4185 1041.23 14.8683 1040.54 15.2565C1040.06 15.5264 1040.01 15.569 1039.57 16.0613L1039.17 16.5111L1039.38 16.8519C1039.62 17.226 1039.65 17.4248 1039.48 17.4485C1039.41 17.4579 1039.37 17.4201 1039.33 17.3017C1039.3 17.2118 1039.21 17.0508 1039.14 16.9419L1039 16.7478L1038.44 16.7809C1037.72 16.8141 1037.48 16.762 1036.95 16.4543C1036.51 16.1939 1036.1 16.0897 1036.1 16.2365C1036.1 16.3833 1036.25 16.7289 1036.38 16.904C1036.46 16.9987 1036.51 17.1029 1036.49 17.1265C1036.38 17.3159 1036.07 16.9088 1035.94 16.4164L1035.89 16.2034L1034.84 16.2176C1033.97 16.2318 1033.72 16.2223 1033.45 16.156C1033.25 16.1087 1033.04 16.0897 1032.95 16.1087C1032.86 16.1229 1032.43 16.3264 1031.99 16.5632C1030.97 17.0981 1030.8 17.1455 1030.14 17.0792C1029.87 17.0508 1029.52 17.0082 1029.37 16.9845C1029.22 16.9608 1028.99 16.9372 1028.86 16.9324C1028.64 16.923 1028.62 16.9324 1028.42 17.1549C1028.28 17.3017 1028.2 17.4295 1028.2 17.5053C1028.2 17.5716 1028.3 17.7941 1028.42 18.0024C1028.6 18.329 1028.64 18.4285 1028.65 18.7125L1028.68 19.0439L1029.01 19.1528C1029.28 19.2475 1029.33 19.2806 1029.32 19.3564C1029.28 19.4937 1029.25 19.4984 1028.92 19.4037C1028.49 19.2806 1028.43 19.2143 1028.43 18.8735C1028.43 18.632 1028.4 18.5373 1028.18 18.0971C1028.04 17.8225 1027.92 17.5479 1027.92 17.4769C1027.92 17.3869 1027.91 17.3632 1027.85 17.3822C1027.27 17.5574 1026.78 17.6473 1026.39 17.6473C1025.74 17.6473 1025.72 17.6615 1025.47 18.2344C1025.18 18.9113 1025.1 19.2191 1025.1 19.6357C1025.1 20.3695 1025.47 20.7388 1026.6 21.1175C1027.2 21.3211 1027.3 21.3732 1027.6 21.6525C1027.81 21.8513 1027.83 21.8845 1027.77 21.946C1027.71 22.0123 1027.68 21.9981 1027.5 21.8276C1027.24 21.5815 1027.1 21.5057 1026.55 21.3211L1026.11 21.1696L1025.79 21.2595C1025.37 21.3732 1024.72 21.3779 1024.44 21.2737C1024.33 21.2311 1024.22 21.2075 1024.21 21.2169C1024.18 21.2501 1024.61 21.5152 1025.05 21.7377C1025.5 21.9649 1026.02 22.1496 1026.52 22.2679C1026.95 22.3721 1028.93 22.4147 1029.51 22.3342C1030.15 22.249 1030.86 22.1022 1031.23 21.9791C1031.9 21.7661 1032.06 21.7566 1034.59 21.7424L1037 21.733L1037.76 21.8987C1038.47 22.0502 1038.59 22.0644 1039.69 22.0975C1040.33 22.1164 1041.12 22.1638 1041.43 22.2064C1041.75 22.2443 1042.24 22.2916 1042.51 22.3105C1042.79 22.3295 1043.22 22.3721 1043.46 22.41C1044.2 22.5236 1044.97 22.481 1045.07 22.3247C1045.14 22.2206 1045.12 22.0075 1045.02 21.8134C1044.96 21.6904 1044.77 21.4962 1044.49 21.2643C1044.21 21.0418 1043.9 20.7198 1043.67 20.4358C1043.47 20.1754 1043.27 19.9671 1043.24 19.9671C1043.21 19.9671 1043 20.0239 1042.78 20.0902C1042.48 20.1801 1042.23 20.218 1041.79 20.2369C1041.47 20.2511 1041.2 20.2795 1041.2 20.2985C1041.2 20.3174 1041.25 20.3695 1041.3 20.4168C1041.45 20.5589 1041.54 20.8808 1041.52 21.1933C1041.49 21.5105 1041.48 21.5436 1041.38 21.5057C1041.32 21.482 1041.31 21.3968 1041.31 21.1317C1041.32 20.824 1041.31 20.7719 1041.19 20.6109C1041 20.3553 1040.73 20.1707 1040.46 20.1138C1040.32 20.0854 1039.55 19.986 1038.75 19.8961C1037.37 19.7351 1037.24 19.7256 1036.68 19.773C1036.36 19.8014 1035.86 19.8251 1035.58 19.8251C1035.11 19.8203 1035.04 19.8061 1034.68 19.6641C1034.23 19.4795 1034.25 19.4747 1033.73 19.8156C1033.14 20.1943 1032.91 20.2937 1032.53 20.3506C1032.08 20.4168 1031.54 20.3742 1030.86 20.218C1030.56 20.1517 1030.27 20.1091 1030.21 20.1233C1030.15 20.1423 1029.97 20.2417 1029.81 20.3506C1029.43 20.6062 1029.19 20.6772 1028.73 20.6725C1028.25 20.663 1028.09 20.6251 1028.07 20.521C1028.05 20.4405 1028.08 20.4358 1028.53 20.4642C1029.1 20.5021 1029.3 20.45 1029.75 20.147C1030.03 19.9624 1030.08 19.9434 1030.34 19.9434C1030.49 19.9434 1030.82 19.9908 1031.08 20.0523C1031.41 20.128 1031.7 20.1565 1032.08 20.1565C1032.73 20.1565 1032.9 20.1044 1033.59 19.6688C1033.86 19.4984 1034.14 19.3469 1034.21 19.328C1034.31 19.309 1034.44 19.3422 1034.69 19.4463C1035.12 19.6404 1035.41 19.6641 1036.47 19.5883C1037.27 19.5315 1037.38 19.5363 1038.24 19.631C1039.78 19.8014 1040.58 19.915 1040.75 19.9813C1040.86 20.0286 1041.1 20.0428 1041.57 20.0381C1042.13 20.0286 1042.31 20.0097 1042.68 19.9055C1043.31 19.7256 1043.86 19.47 1044.57 19.006C1045.15 18.6368 1045.21 18.6084 1045.25 18.6888C1045.29 18.7646 1045.23 18.8167 1044.82 19.0865C1044.56 19.2617 1044.16 19.5031 1043.93 19.6262C1043.7 19.7493 1043.5 19.8629 1043.5 19.8819C1043.5 19.9671 1044.17 20.7293 1044.45 20.9613C1044.62 21.1033 1044.84 21.2927 1044.93 21.3779C1045.26 21.6761 1045.4 22.178 1045.23 22.4478L1045.15 22.5709H1045.55C1046.02 22.5662 1046.54 22.481 1046.88 22.3531L1047.1 22.2632L1047.16 21.9555C1047.2 21.785 1047.23 21.3684 1047.24 21.0323L1047.25 20.4168L1047.44 20.1423C1047.74 19.7304 1047.79 19.5789 1047.79 19.0912C1047.79 18.5942 1047.69 18.0876 1047.47 17.4769C1047.3 16.994 1047.29 16.9561 1047.38 16.923C1047.4 16.9088 1047.16 16.8946 1046.83 16.8946L1046.24 16.8898V17.5147C1046.24 18.0639 1046.21 18.419 1046.09 19.6262C1046.07 19.8298 1046.05 19.8771 1045.99 19.8629C1045.9 19.844 1045.9 19.6499 1045.98 18.6888C1046.01 18.3101 1046.03 17.7231 1046.02 17.3869C1046.01 16.8472 1045.98 16.7147 1045.85 16.3217C1045.71 15.9004 1045.42 15.3275 1045.18 15.034L1045.08 14.9014L1044.83 15.0671C1044.54 15.2565 1044.32 15.5216 1043.94 16.1939C1043.5 16.9798 1042.88 17.6899 1042.23 18.1728C1042.02 18.3243 1041.77 18.5373 1041.68 18.6415C1041.52 18.8309 1041.42 18.8735 1041.37 18.7835C1041.31 18.6983 1041.63 18.3622 1042.07 18.0402C1042.6 17.652 1043.22 16.9798 1043.55 16.4401C1044.35 15.1429 1044.32 15.1855 1044.82 14.8304C1045.67 14.2292 1046.17 13.68 1046.31 13.2066C1046.43 12.771 1046.42 12.5817 1046.22 11.9662C1046.11 11.6159 1046 11.1046 1045.94 10.7116C1045.68 9.01203 1045.28 7.87581 1044.72 7.30297C1044.2 6.75853 1043.36 6.4366 1042.62 6.49341C1042.16 6.52655 1042.07 6.56916 1041.92 6.82954C1041.78 7.08046 1041.49 7.42132 1041.43 7.42132C1041.31 7.42132 1041.35 7.26036 1041.52 7.05679C1041.73 6.7964 1041.85 6.56916 1041.9 6.33245C1041.98 5.96317 1041.62 5.54656 1040.2 4.3772C1039.77 4.0174 1039.41 3.70494 1039.41 3.67653C1039.41 3.51557 1039.61 3.63392 1040.34 4.23044C1041.63 5.29091 1042.06 5.7596 1042.11 6.13361L1042.13 6.32298L1042.61 6.29931C1043.19 6.26617 1043.64 6.36085 1044.14 6.6165C1044.79 6.95737 1045.26 7.51127 1045.57 8.32083C1045.81 8.95049 1045.88 9.05464 1047.13 10.688C1047.5 11.1708 1047.9 11.7106 1048.03 11.8952C1048.15 12.0751 1048.3 12.2597 1048.37 12.3023C1048.62 12.468 1048.95 12.842 1049 13.0361C1049.1 13.3581 1049.12 13.9972 1049.06 14.6079L1049.01 15.1902L1049.24 15.6731L1049.48 16.156L1049.45 15.5879C1049.37 13.8362 1049.02 12.4207 1048.52 11.8668C1048.47 11.8005 1048.35 11.5543 1048.28 11.3271C1047.95 10.366 1047.44 9.59434 1046.92 9.31029C1046.78 9.23454 1046.78 9.2156 1046.73 8.76585C1046.67 8.28296 1046.58 7.92789 1046.4 7.56335C1046.1 6.9479 1045.44 6.23776 1044.77 5.81168C1044.42 5.5797 1044.37 5.53236 1044.32 5.36193C1044.26 5.12048 1044.1 4.86483 1043.8 4.53343C1043.67 4.3914 1043.47 4.14522 1043.36 3.98899C1042.95 3.41141 1042.38 2.88591 1041.72 2.47877C1041.02 2.04322 1039.84 1.56506 1039.02 1.38515C1038.82 1.33781 1038.46 1.21946 1038.22 1.12477C1037.24 0.727095 1036.6 0.613472 1035.23 0.594536C1034.07 0.580332 1034.08 0.575598 1033.5 1.12477C1033.32 1.30467 1033.12 1.4609 1033.07 1.47984C1032.95 1.51771 1032.96 1.55559 1033.1 1.85385C1033.29 2.25626 1033.31 2.25626 1033.69 1.86331C1034.06 1.46564 1034.28 1.34728 1034.88 1.21946C1035.38 1.11057 1035.41 1.10583 1035.41 1.18632C1035.41 1.22893 1035.25 1.28574 1034.92 1.35675C1034.65 1.41356 1034.33 1.51771 1034.21 1.58873C1033.98 1.71655 1033.55 2.15684 1033.6 2.20891C1033.62 2.22312 1033.86 2.26099 1034.15 2.2894C1034.8 2.36041 1035.06 2.44563 1035.45 2.73915C1035.73 2.94746 1035.78 2.97113 1036 2.97113C1036.21 2.97113 1036.25 2.95693 1036.31 2.83857C1036.34 2.76282 1036.42 2.53558 1036.47 2.332C1036.52 2.12843 1036.6 1.90592 1036.64 1.84438C1036.76 1.68341 1037.27 1.37095 1037.56 1.28574C1037.84 1.20052 1037.76 1.18158 1038.72 1.5982C1039.09 1.75916 1039.64 1.96273 1039.94 2.05742C1040.53 2.23259 1041.29 2.59712 1041.76 2.92379C1042.37 3.3546 1042.58 3.63866 1042.58 4.06474C1042.58 4.26358 1042.59 4.28252 1042.76 4.363C1043.11 4.53817 1043.58 4.89797 1044 5.31458C1044.44 5.7454 1045.31 6.77747 1045.84 7.48287C1046 7.69591 1046.18 7.92789 1046.24 7.99417C1046.34 8.10306 1046.35 8.12199 1046.29 8.20721C1046.19 8.33503 1046.11 8.27349 1045.75 7.79533C1045.23 7.08993 1044.22 5.89689 1043.78 5.46608C1043.42 5.10628 1042.73 4.58077 1042.62 4.58077C1042.59 4.58077 1042.47 4.5287 1042.33 4.46242C1042.2 4.39614 1041.95 4.31092 1041.77 4.26831C1041.01 4.09315 1040.87 4.04107 1040.46 3.79015C1039.41 3.1463 1039.12 3.05161 1038.22 3.05161C1037.57 3.05161 1037.35 3.08475 1036.46 3.28832L1035.92 3.41141L1035.66 3.85643C1035.34 4.41508 1034.79 5.16782 1034.54 5.40453L1034.35 5.5797L1034.44 5.82588C1034.59 6.21409 1034.6 6.32771 1034.5 6.71119C1034.36 7.23669 1034.33 7.74799 1034.42 7.97997C1034.48 8.1504 1034.49 8.17407 1034.42 8.19774C1034.32 8.24035 1034.32 8.24035 1034.24 8.08412C1034.14 7.88528 1034.16 7.30297 1034.27 6.83901C1034.38 6.39399 1034.37 6.12887 1034.22 5.80694C1034.14 5.60337 1034.09 5.56076 1033.58 5.26724C1033.27 5.08734 1033.02 4.9169 1033.02 4.88377C1033.02 4.75121 1033.13 4.77014 1033.43 4.95004C1034 5.30038 1034.21 5.39033 1034.31 5.33825C1034.43 5.27671 1034.7 4.95004 1035.01 4.50503C1035.27 4.13102 1035.74 3.35934 1035.74 3.30726C1035.74 3.24098 1034.97 2.73442 1034.77 2.6634L1034.54 2.58292L1033.72 3.05634C1033.28 3.31673 1032.79 3.58658 1032.66 3.65759C1032.32 3.82803 1031.63 4.52396 1031.46 4.86483C1031.2 5.3856 1031.13 5.7312 1031.13 6.37979C1031.13 6.87215 1031.15 7.05205 1031.26 7.44499C1031.42 8.04151 1031.43 8.20247 1031.31 8.20247C1031.14 8.20247 1030.41 7.05205 1030.41 6.79167C1030.41 6.6023 1030.55 6.73486 1030.73 7.08993C1030.84 7.30297 1030.93 7.46393 1030.94 7.44973C1030.96 7.44026 1030.94 7.22248 1030.91 6.96684C1030.86 6.59283 1030.83 6.46974 1030.71 6.29931C1030.64 6.18095 1030.52 6.06733 1030.46 6.03892C1029.95 5.84008 1029.49 5.53709 1029.49 5.40927C1029.49 5.29564 1029.58 5.32405 1029.88 5.52762C1030.15 5.71226 1030.57 5.89216 1030.62 5.84482C1030.65 5.81641 1030.38 5.40453 1030.01 4.92164C1029.8 4.64232 1029.76 4.56657 1029.81 4.5287C1029.9 4.47189 1030.22 4.82222 1030.58 5.37139C1030.72 5.58917 1030.85 5.76434 1030.86 5.76434C1030.88 5.76434 1030.92 5.65545 1030.95 5.52289C1030.98 5.39507 1031.07 5.12521 1031.15 4.93111C1031.27 4.62338 1031.36 4.49556 1031.82 4.00319C1032.34 3.43509 1032.57 3.08949 1032.49 2.95219C1032.42 2.8291 1031.39 2.01481 1031.15 1.89172C1030.99 1.81124 1030.91 1.74022 1030.91 1.68341C1030.91 1.40883 1031.29 1.59346 1032.08 2.24205C1032.69 2.74389 1032.74 2.80543 1032.75 2.95693C1032.75 3.01847 1032.76 3.06581 1032.79 3.06581C1032.8 3.06108 1032.92 2.93325 1033.04 2.77229L1033.26 2.4835L1033.12 2.35094C1033.04 2.27519 1032.87 1.98167 1032.73 1.67868C1032.52 1.23839 1032.42 1.09163 1032.2 0.869122C1031.82 0.495115 1031.5 0.353088 1031 0.334152C1030.76 0.324682 1030.54 0.34362 1030.42 0.386229ZM1038.02 4.86956C1037.62 5.35246 1037.61 5.37139 1037.65 5.74067C1037.7 6.30404 1037.65 6.59756 1037.4 7.10413C1037.34 7.23195 1037.3 7.34558 1037.32 7.35978C1037.33 7.37872 1037.51 7.22722 1037.7 7.03312C1038.19 6.55496 1038.35 6.49814 1039.18 6.49814C1039.77 6.49814 1039.82 6.50761 1040.06 6.6307C1040.77 6.98577 1041.43 8.15987 1041.55 9.27242C1041.57 9.42865 1041.6 9.56594 1041.62 9.57541C1041.64 9.58961 1041.73 9.5328 1041.83 9.45232C1042.04 9.27715 1042.32 9.13986 1042.51 9.11619C1042.62 9.10672 1042.65 9.12092 1042.65 9.19193C1042.65 9.25821 1042.6 9.30082 1042.44 9.34816C1042.14 9.43338 1041.64 9.83106 1041.64 9.97782C1041.64 10.0867 1041.69 10.1198 1042 10.1861C1042.09 10.2098 1042.12 10.2429 1042.12 10.3329C1042.12 10.437 1042.1 10.4512 1041.98 10.4512C1041.78 10.4512 1041.45 10.295 1041.4 10.1814C1041.37 10.134 1041.34 9.8926 1041.33 9.64642C1041.25 8.44392 1040.66 7.24616 1039.95 6.88162C1039.74 6.77273 1039.66 6.75853 1039.21 6.75853C1038.45 6.75853 1038.33 6.80587 1037.7 7.37872C1037.16 7.88055 1036.93 8.02257 1036.44 8.15987C1036.13 8.24508 1036.01 8.23088 1036.01 8.09359C1036.01 8.02257 1036.09 7.97997 1036.38 7.89475C1036.65 7.81427 1036.78 7.75272 1036.86 7.64857C1037.04 7.44026 1037.28 6.95737 1037.39 6.6165C1037.48 6.34665 1037.49 6.25196 1037.46 5.84955C1037.42 5.30038 1037.46 5.18676 1037.83 4.78908C1038.04 4.56657 1038.09 4.53343 1038.15 4.58077C1038.21 4.63285 1038.19 4.67072 1038.02 4.86956ZM1029.73 15.5832C1029.76 15.6494 1029.75 15.6873 1029.7 15.7441C1029.63 15.8151 1029.61 15.8057 1029.45 15.6494C1029.29 15.4743 1029.28 15.4695 1029.37 15.3749L1029.45 15.2802L1029.57 15.3843C1029.63 15.4459 1029.7 15.5311 1029.73 15.5832ZM1033.31 17.1549C1033.29 17.5337 1033.35 17.7088 1033.57 17.9976C1033.69 18.1491 1033.7 18.1965 1033.66 18.2533C1033.61 18.3101 1033.58 18.2959 1033.43 18.1255C1033.19 17.8367 1033.12 17.6568 1033.12 17.278C1033.12 16.8898 1033.14 16.7857 1033.25 16.8046C1033.31 16.8188 1033.32 16.8756 1033.31 17.1549ZM1024.18 20.0902C1024.73 20.4784 1024.97 20.7009 1024.92 20.753C1024.9 20.7719 1024.82 20.7388 1024.74 20.6772C1024.66 20.6109 1024.37 20.3932 1024.09 20.1896C1023.81 19.986 1023.58 19.8014 1023.57 19.773C1023.53 19.6594 1023.73 19.7635 1024.18 20.0902Z" fill="#FFFF00"/>
<path d="M1027.82 0.486134C1027.71 0.528742 1027.48 0.538211 1026.9 0.524008C1026.24 0.500337 1026.02 0.51454 1025.56 0.595021C1024.4 0.803329 1023.33 1.30989 1022.48 2.06264C1022.33 2.19993 1022.16 2.30882 1022.1 2.30882C1022 2.30882 1021.67 2.44138 1021.38 2.60234C1020.94 2.84379 1020.6 3.12311 1019.97 3.76697C1019.31 4.43923 1019.29 4.4487 1018.95 4.55759C1018.63 4.65701 1018.55 4.70908 1018.17 5.06889C1017.94 5.28666 1017.66 5.52811 1017.54 5.60859C1017.04 5.95419 1016.56 6.68327 1016.23 7.58751C1016.17 7.74374 1016.01 8.09881 1015.87 8.37813C1015.57 8.97464 1015.48 9.38652 1015.56 9.75106C1015.6 9.87415 1015.64 9.99251 1015.66 10.0067C1015.69 10.0209 1015.79 9.94516 1015.9 9.84101L1016.08 9.64691L1016 9.46227C1015.87 9.16401 1015.92 8.61957 1016.1 8.21243C1016.3 7.77688 1016.77 7.08094 1017.02 6.85843C1017.24 6.6596 1017.62 6.51283 1018.16 6.42762C1018.34 6.39921 1018.55 6.36607 1018.63 6.35187C1018.76 6.33293 1018.8 6.29032 1019.02 5.79323C1019.34 5.1115 1019.56 4.78957 1020.03 4.27827C1020.45 3.81905 1020.86 3.48291 1021.19 3.32195C1021.38 3.22726 1021.5 3.20833 1021.86 3.20833H1022.28L1022.66 2.82959C1022.96 2.53133 1023.11 2.41771 1023.43 2.26621C1023.92 2.0295 1024.36 1.91588 1024.76 1.93955L1025.05 1.95375L1025.08 1.69337C1025.1 1.40458 1025.18 1.21994 1025.28 1.21994C1025.38 1.21994 1025.39 1.32883 1025.33 1.46139C1025.27 1.55607 1025.23 1.96322 1025.27 1.98216C1025.28 1.98689 1025.98 2.00583 1026.82 2.02003C1028.27 2.05317 1028.38 2.06264 1028.64 2.16206C1028.79 2.2236 1028.95 2.28041 1028.98 2.28988C1029.04 2.30882 1029.08 2.22834 1029.16 1.96795C1029.22 1.77858 1029.3 1.58921 1029.34 1.54187C1029.4 1.47559 1029.39 1.44245 1029.28 1.27202C1029.1 0.969028 1028.84 0.689707 1028.68 0.618693C1028.59 0.585553 1028.44 0.557148 1028.32 0.557148C1028.18 0.557148 1028.11 0.533477 1028.09 0.486134C1028.06 0.400917 1028 0.400917 1027.82 0.486134Z" fill="#FFFF00"/>
<path d="M1037.31 1.60829C1036.83 1.85447 1036.76 1.94442 1036.62 2.42731C1036.56 2.66402 1036.5 2.88653 1036.49 2.92914C1036.47 2.99542 1036.51 2.99542 1036.92 2.9102C1037.27 2.82972 1037.54 2.81079 1038.2 2.81079C1038.99 2.80605 1039.04 2.81552 1039.39 2.93861C1039.59 3.01436 1040.04 3.2416 1040.38 3.44517C1040.72 3.65348 1041.09 3.84285 1041.21 3.87126C1041.32 3.89493 1041.59 3.96121 1041.8 4.01802C1042.48 4.18845 1042.41 4.19319 1042.38 3.98488C1042.36 3.88073 1042.3 3.71976 1042.24 3.62508C1041.99 3.22267 1040.78 2.52673 1039.9 2.26161C1039.62 2.18113 1039.05 1.96809 1038.62 1.78345C1038.2 1.60355 1037.8 1.45679 1037.73 1.45679C1037.66 1.46152 1037.47 1.5278 1037.31 1.60829Z" fill="#FFFF00"/>
<path d="M1020.95 2.5169C1020.41 2.81989 1019.44 3.66259 1019.05 4.16915L1018.9 4.35852L1019.04 4.32538C1019.12 4.30171 1019.42 4.03659 1019.86 3.59631C1020.49 2.96665 1020.73 2.75834 1021.22 2.46009C1021.48 2.29439 1021.27 2.34173 1020.95 2.5169Z" fill="#FFFF00"/>
<path d="M1033.3 2.64937C1033.24 2.73459 1033.06 2.96183 1032.9 3.15594C1032.73 3.35477 1032.64 3.4968 1032.69 3.47313C1032.87 3.40685 1034.24 2.59256 1034.22 2.56889C1034.21 2.56415 1034.02 2.54048 1033.81 2.52155L1033.41 2.48841L1033.3 2.64937Z" fill="#FFFF00"/>
<path d="M1045.91 9.52819C1045.95 9.70336 1046.07 10.3756 1046.15 10.8775C1046.19 11.152 1046.3 11.6207 1046.4 11.9237C1046.5 12.2267 1046.58 12.5581 1046.58 12.6575C1046.58 12.8942 1046.47 13.3345 1046.36 13.5665C1046.2 13.8884 1045.73 14.3997 1045.29 14.7359C1045.21 14.7927 1045.2 14.8258 1045.24 14.84C1045.39 14.9016 1045.87 15.7821 1046.05 16.3218C1046.14 16.587 1046.17 16.6343 1046.29 16.658C1046.57 16.7195 1047.27 16.6958 1047.78 16.6059C1048.45 16.4875 1048.62 16.4828 1048.59 16.5917C1048.58 16.6627 1048.47 16.6958 1048.05 16.7669C1047.76 16.8189 1047.52 16.8615 1047.51 16.8663C1047.51 16.871 1047.57 17.032 1047.64 17.2261C1047.85 17.7611 1048.01 18.4238 1048.04 18.9351C1048.05 19.1908 1048.08 19.3991 1048.1 19.3991C1048.17 19.3991 1048.51 18.9162 1048.74 18.4807C1049.05 17.9031 1049.21 17.7042 1049.28 17.7942C1049.32 17.8463 1049.3 17.9173 1049.17 18.1209C1049.08 18.2629 1048.95 18.4996 1048.88 18.6464C1048.81 18.7979 1048.64 19.0535 1048.52 19.2239L1048.29 19.5317L1048.47 19.7163C1048.58 19.8157 1048.72 19.9861 1048.79 20.0998L1048.92 20.3033L1049.02 20.0335C1049.31 19.2145 1049.45 18.4191 1049.45 17.4581L1049.45 16.6769L1049.19 16.1325C1048.92 15.5691 1048.91 15.5691 1049 16.1419C1049.03 16.3029 1049.02 16.3218 1048.93 16.3218C1048.86 16.3218 1048.83 16.2745 1048.79 16.0851C1048.72 15.7632 1048.73 15.4886 1048.81 14.9489C1048.9 14.3524 1048.9 13.4766 1048.81 13.1641C1048.76 12.9937 1048.69 12.8706 1048.55 12.7475C1048.32 12.5344 1048.3 12.5534 1048.27 13.0552C1048.25 13.2493 1048.19 13.5807 1048.12 13.7843C1048 14.1725 1047.91 14.6459 1047.93 14.8542C1047.94 15.0247 1047.79 15.0436 1047.75 14.8779C1047.71 14.7122 1047.8 14.163 1047.94 13.6943C1048.02 13.4529 1048.07 13.1546 1048.08 12.8658L1048.11 12.4161L1047.86 12.0373C1047.64 11.7012 1046.12 9.68916 1045.95 9.50452C1045.89 9.44298 1045.88 9.44298 1045.91 9.52819Z" fill="#FFFF00"/>
<path d="M1016.04 9.96402C1015.93 10.0966 1015.65 10.5984 1015.58 10.802C1015.54 10.9014 1015.52 11.1476 1015.52 11.3464C1015.52 11.9903 1015.86 12.7714 1016.44 13.4674C1016.66 13.723 1016.71 13.8082 1016.78 14.1207C1016.88 14.5752 1017.1 15.0297 1017.4 15.4037C1017.86 15.986 1018.79 16.5825 1019.76 16.9139C1020.31 17.1033 1021.15 17.3021 1021.2 17.2548C1021.23 17.2216 1021.35 16.4026 1021.35 16.1896C1021.35 16.1091 1021.3 16.057 1021.15 15.986L1020.96 15.8866L1020.8 16.0381C1020.58 16.2464 1020.33 16.3695 1020.11 16.3695C1019.96 16.3695 1019.93 16.3505 1019.93 16.2795C1019.93 16.2132 1019.97 16.1896 1020.13 16.1706C1020.33 16.147 1020.68 15.9386 1020.73 15.8156C1020.75 15.7682 1020.69 15.6688 1020.58 15.5457C1020.49 15.4415 1020.35 15.2758 1020.28 15.1764C1020.19 15.0628 1020.07 14.9681 1019.89 14.8971C1019.75 14.8403 1019.55 14.7361 1019.45 14.6746C1019.25 14.5468 1019.31 14.5326 1018.55 14.8829C1018.21 15.0439 1018.11 15.0675 1017.81 15.0675C1017.41 15.0675 1017.22 15.0202 1017.22 14.9255C1017.22 14.8214 1017.26 14.8166 1017.57 14.864C1017.8 14.8971 1017.91 14.8924 1018.12 14.8308C1018.41 14.7456 1018.85 14.5326 1018.81 14.4947C1018.8 14.4805 1018.65 14.4379 1018.48 14.4047C1018.31 14.3669 1018.08 14.2864 1017.98 14.2201C1017.74 14.0734 1017.19 13.4958 1016.95 13.1076C1016.64 12.6389 1016.56 12.369 1016.56 11.7299C1016.55 11.1286 1016.63 10.8683 1016.87 10.6458C1016.93 10.5795 1016.99 10.5037 1016.99 10.4706C1016.99 10.4374 1016.9 10.3617 1016.79 10.2954C1016.68 10.2291 1016.52 10.1108 1016.42 10.0303C1016.21 9.85987 1016.14 9.8504 1016.04 9.96402Z" fill="#FFFF00"/>
<path d="M1020.76 15.3564C1020.9 15.5079 1021.32 15.8014 1021.41 15.8014C1021.45 15.8014 1021.54 15.5126 1021.51 15.4653C1021.5 15.4463 1021.41 15.4132 1021.31 15.3942C1021.22 15.3753 1021.03 15.3232 1020.9 15.2759C1020.76 15.2238 1020.63 15.1859 1020.62 15.1859C1020.61 15.1859 1020.67 15.2617 1020.76 15.3564Z" fill="#FFFF00"/>
<path d="M1048.02 19.7406C1047.96 19.8022 1047.81 20.0152 1047.68 20.2188L1047.44 20.588L1047.46 21.0473C1047.48 21.355 1047.47 21.6059 1047.43 21.8C1047.4 21.9657 1047.38 22.0983 1047.39 22.0983C1047.4 22.0983 1047.55 22.0036 1047.7 21.8852C1048.02 21.6532 1048.3 21.355 1048.54 20.9715C1048.68 20.7585 1048.7 20.6875 1048.7 20.4839C1048.69 20.2614 1048.67 20.214 1048.43 19.9394C1048.29 19.7737 1048.16 19.6365 1048.14 19.6365C1048.13 19.6365 1048.07 19.6838 1048.02 19.7406Z" fill="#FFFF00"/>
<path d="M1033.18 22.0367C1033.14 22.1361 1033.25 22.3917 1033.58 22.9741C1033.95 23.6227 1034.02 23.8026 1034.11 24.418C1034.19 24.9624 1034.31 25.2323 1034.56 25.4974C1034.87 25.8288 1035.99 26.4727 1036.85 26.8135C1037.53 27.0834 1037.9 27.126 1039.46 27.1071C1040.69 27.0881 1040.85 27.0787 1041.18 26.9792C1042.43 26.6194 1043.3 26.2218 1043.73 25.8146C1044.03 25.5258 1044.22 25.2134 1044.48 24.5979C1044.58 24.3423 1044.73 24.0866 1044.82 23.9872C1044.91 23.8925 1045 23.7363 1045.03 23.6321C1045.1 23.3291 1044.99 22.7516 1044.85 22.6758C1044.81 22.6521 1044.59 22.6427 1044.36 22.6521C1044.07 22.6711 1043.78 22.6474 1043.39 22.5764C1043.03 22.5148 1042.43 22.4628 1041.69 22.4296C1039.29 22.3255 1038.14 22.2355 1037.23 22.0651C1036.69 21.9657 1033.22 21.9373 1033.18 22.0367Z" fill="#FFFF00"/>
<path d="M1031.92 22.0555C1031.58 22.1123 1031.37 22.188 1031.37 22.2496C1031.37 22.2732 1031.45 22.4626 1031.55 22.6614C1031.8 23.1491 1032.25 23.7172 1032.67 24.0722C1032.98 24.3374 1033.06 24.4415 1033.39 25.0191C1034.82 27.4951 1035.33 28.7592 1035.96 31.3062C1036.12 31.9311 1036.34 32.7643 1036.45 33.1573C1036.74 34.1988 1037.34 36.6748 1037.61 37.9578C1038.08 40.1924 1038.28 41.7878 1038.18 42.3938C1038.1 42.8814 1038.12 42.872 1037.23 42.7157C1036.81 42.64 1036.48 42.5737 1036.49 42.5595C1036.5 42.55 1036.57 42.5074 1036.66 42.4648C1036.89 42.3417 1036.99 42.1287 1036.98 41.7547C1036.98 41.5795 1036.95 41.3428 1036.91 41.2292C1036.87 41.1155 1036.84 41.0161 1036.84 41.0019C1036.84 40.9356 1036.97 41.0966 1037.2 41.4659C1037.54 41.9772 1037.74 42.2186 1037.83 42.2186C1037.89 42.2186 1037.9 42.1713 1037.87 41.9535C1037.84 41.6742 1037.43 39.9746 1037.12 38.81C1037.02 38.4312 1036.81 37.6217 1036.66 37.011C1036.33 35.6522 1036.2 35.3161 1035.92 35.0178C1035.74 34.8285 1035.67 34.7859 1035.44 34.7385C1034.7 34.5823 1034.14 34.9847 1034.02 35.7611C1033.98 36.0688 1033.98 36.083 1034.08 36.1635C1034.19 36.2393 1034.19 36.2535 1034.13 36.4334C1034.07 36.6085 1034.07 36.6369 1034.17 36.7553C1034.22 36.8216 1034.26 36.9068 1034.26 36.9352C1034.27 37.0678 1034.46 37.2287 1034.69 37.295C1034.92 37.366 1034.93 37.3755 1034.94 37.5459C1034.95 37.6548 1034.9 37.9105 1034.79 38.2371C1034.59 38.8147 1034.6 38.81 1034.11 38.81C1033.9 38.81 1033.84 38.7816 1033.5 38.5448C1033.3 38.3981 1033.04 38.1898 1032.93 38.0809C1032.28 37.4938 1032.06 37.366 1032.37 37.7542C1032.54 37.9767 1032.53 37.972 1032.18 37.6595C1031.85 37.366 1031.69 37.2619 1031.76 37.3992C1031.85 37.5507 1032.25 38.0193 1032.65 38.436L1033.08 38.8904L1032.94 38.9189C1032.62 38.9851 1032.21 39.5106 1031.63 40.5806C1031.28 41.2386 1031.23 41.3665 1031.33 41.3665C1031.35 41.3665 1031.34 41.428 1031.29 41.5038C1031.23 41.6268 1031.17 41.6505 1030.8 41.7215C1030.57 41.7689 1030.31 41.8446 1030.23 41.892C1030.09 41.9772 1029.96 41.9819 1028.62 41.9819C1027.36 41.9819 1026.08 42.0387 1024.84 42.1523L1024.49 42.1855L1024.51 41.9914C1024.53 41.7263 1024.41 41.3049 1024.24 41.1061C1023.99 40.8126 1023.67 40.8457 1023.28 41.2102C1022.9 41.5558 1022.6 42.176 1022.73 42.337C1022.76 42.3749 1022.77 42.408 1022.75 42.408C1022.67 42.408 1021.1 42.6873 1020.62 42.7867C1020.36 42.8388 1020.14 42.8814 1020.13 42.8814C1020.12 42.8814 1020.15 42.782 1020.18 42.6589C1020.26 42.3891 1020.27 42.0908 1020.19 41.9346C1020.16 41.873 1020.06 41.7689 1019.97 41.7073C1019.83 41.6079 1019.77 41.5984 1019.44 41.6126C1019.06 41.6316 1018.63 41.7925 1018.36 42.0151L1018.25 42.1145L1018.04 41.9156C1017.84 41.731 1017.57 41.6032 1017.38 41.6032C1017.29 41.6032 1017.28 41.5274 1017.38 41.4895C1017.5 41.4422 1017.44 41.2954 1017.21 41.0493C1016.83 40.6753 1016.57 40.5758 1016.36 40.7273C1016.15 40.8741 1016.04 41.3381 1016.18 41.4706C1016.23 41.5227 1016.15 41.5464 1015.73 41.6079C1014.89 41.731 1014.39 41.9914 1013.72 42.64C1013.08 43.2554 1012.44 44.1833 1011.95 45.2059L1011.78 45.5657L1011.22 45.8214C1010.36 46.2096 1009.17 46.8061 1008.44 47.2085C1006.77 48.1364 1004.3 49.8786 1002.95 51.0811C1002.26 51.6966 1001.35 52.6671 1001 53.1784C999.931 54.717 999.899 56.0237 1000.9 57.0747C1003.6 59.92 1013.68 61.0231 1031.39 60.4218C1034.58 60.3129 1037.97 60.1567 1040.19 60.0147C1040.61 59.991 1041.66 59.9484 1042.53 59.9247C1043.52 59.8963 1044.63 59.8348 1045.45 59.759C1046.19 59.6927 1047 59.617 1047.27 59.5933C1047.53 59.5649 1048.23 59.527 1048.81 59.4986C1051.2 59.3897 1052.14 59.2998 1053.13 59.0915C1055.39 58.6039 1056.62 57.5907 1056.95 55.9479C1057.18 54.7218 1056.68 53.3678 1055.38 51.7487C1053.56 49.4857 1050.26 47.1564 1046.58 45.5279L1046.03 45.2864L1046.17 45.2059C1046.37 45.1065 1046.41 44.9077 1046.33 44.4769C1046.21 43.8945 1045.9 43.3312 1045.56 43.0897C1045.31 42.9051 1045.09 42.8672 1044.79 42.9572C1044.58 43.0187 1044.48 43.0897 1044.2 43.3785C1043.84 43.7573 1043.67 44.0508 1043.72 44.2733C1043.74 44.3916 1043.73 44.4058 1043.67 44.3822C1043.62 44.3632 1043.53 44.3348 1043.47 44.3206C1043.38 44.297 1043.37 44.2686 1043.39 44.1833C1043.42 44.0697 1043.29 43.7667 1043.1 43.5063C1042.98 43.3406 1042.77 43.2128 1042.63 43.2128C1042.48 43.2128 1042.22 43.4827 1042.16 43.691C1042.13 43.8093 1042.08 43.8709 1042.05 43.8567C1042.02 43.8425 1041.91 43.8093 1041.81 43.7809C1041.63 43.7336 1041.62 43.7241 1041.39 43.1465C1040.92 41.9772 1040.43 40.3912 1039.43 36.779C1038.43 33.2093 1038.05 31.8838 1037.5 30.1463C1037.14 28.9817 1036.44 27.0169 1036.34 26.9128C1036.3 26.8655 1036.16 26.766 1036.03 26.7045C1035.65 26.5009 1034.51 25.715 1034.31 25.5115C1034.07 25.2605 1033.96 25.0238 1033.9 24.6262C1033.87 24.4463 1033.82 24.1717 1033.79 24.0154C1033.77 23.8261 1033.65 23.5278 1033.44 23.1159C1033.27 22.7751 1033.09 22.3869 1033.04 22.2496L1032.94 22.0034L1032.55 22.0081C1032.34 22.0128 1032.06 22.0318 1031.92 22.0555ZM1034.56 39.5201C1034.65 39.5201 1034.68 39.558 1034.71 39.7426C1034.74 39.8657 1034.75 39.9746 1034.75 39.9841C1034.74 39.9888 1034.6 39.8752 1034.44 39.7237C1034.16 39.4633 1034.15 39.4586 1034.3 39.487C1034.39 39.5059 1034.51 39.5201 1034.56 39.5201ZM1033.9 41.6316C1034.11 41.8541 1034.38 42.1003 1034.49 42.1807L1034.7 42.3228L1034.46 42.2991C1034.33 42.2849 1033.81 42.2376 1033.31 42.1902C1032.81 42.1476 1032.37 42.105 1032.35 42.0955C1032.26 42.0719 1032.27 41.8636 1032.36 41.7925C1032.41 41.7452 1032.48 41.7547 1032.7 41.8399C1032.97 41.944 1032.98 41.944 1033.07 41.8588C1033.12 41.8115 1033.24 41.6505 1033.33 41.499C1033.42 41.3475 1033.5 41.2244 1033.5 41.2244C1033.51 41.2244 1033.69 41.4091 1033.9 41.6316ZM1019.06 42.924L1019.33 43.0613L1019.03 43.1371C1018.87 43.1797 1018.72 43.2128 1018.69 43.2128C1018.67 43.2128 1018.63 43.1134 1018.6 42.9856C1018.57 42.8625 1018.54 42.7205 1018.52 42.6684C1018.49 42.5832 1018.49 42.5832 1018.64 42.6826C1018.73 42.7441 1018.92 42.853 1019.06 42.924Z" fill="#FFFF00"/>
<path d="M1031.23 35.2835C1031.21 35.3356 1031.14 35.525 1031.07 35.7001C1030.96 35.9842 1030.95 36.0315 1031.01 36.1025C1031.27 36.4245 1031.97 37.2435 1032.03 37.2908C1032.08 37.3382 1032.17 37.3145 1032.5 37.1583C1032.85 36.9926 1032.9 36.9547 1032.9 36.8506C1032.9 36.6707 1031.54 35.1746 1031.38 35.1841C1031.31 35.1841 1031.25 35.2267 1031.23 35.2835Z" fill="#FFFF00"/>
<path d="M1033.73 35.1672C1033.7 35.1937 1033.69 35.2202 1033.69 35.2626C1033.69 35.3262 1033.75 35.3951 1033.81 35.3951C1033.86 35.3951 1033.92 35.3262 1033.92 35.2626C1033.92 35.199 1033.86 35.1301 1033.81 35.1301C1033.79 35.1301 1033.76 35.146 1033.73 35.1672Z" fill="#060607"/>
<path d="M1026.65 35.4399C1026.63 35.4629 1026.61 35.5035 1026.61 35.5282C1026.61 35.5866 1026.68 35.6608 1026.74 35.6608C1026.79 35.6608 1026.86 35.5866 1026.86 35.5282C1026.86 35.4699 1026.79 35.3957 1026.74 35.3957C1026.71 35.3957 1026.67 35.4151 1026.65 35.4399Z" fill="#060607"/>
<path d="M1030.07 35.5283C1030.05 35.5512 1030.03 35.5919 1030.03 35.6166C1030.03 35.6414 1030.05 35.682 1030.07 35.705C1030.09 35.7297 1030.13 35.7491 1030.16 35.7491C1030.18 35.7491 1030.22 35.7297 1030.24 35.705C1030.27 35.682 1030.28 35.6414 1030.28 35.6166C1030.28 35.5919 1030.27 35.5512 1030.24 35.5283C1030.22 35.5035 1030.18 35.4841 1030.16 35.4841C1030.13 35.4841 1030.09 35.5035 1030.07 35.5283Z" fill="#060607"/>
<path d="M1023.28 35.6978C1023.18 35.7791 1023.27 35.9593 1023.39 35.9134C1023.43 35.8957 1023.44 35.8975 1023.44 35.9257C1023.44 35.9841 1023.5 36.0494 1023.57 36.0494C1023.61 36.0494 1023.63 36.0371 1023.66 36.0035C1023.7 35.9452 1023.7 35.9081 1023.66 35.8515C1023.62 35.795 1023.57 35.7826 1023.52 35.8127C1023.47 35.8339 1023.47 35.8339 1023.47 35.7844C1023.47 35.7508 1023.46 35.7225 1023.43 35.6978C1023.37 35.6501 1023.34 35.6519 1023.28 35.6978Z" fill="#060607"/>
<path d="M1025.08 35.7985C1025.03 35.8127 1024.98 35.878 1024.98 35.9169C1024.98 35.9841 1025.04 36.0494 1025.1 36.0494C1025.16 36.0494 1025.23 35.9858 1025.23 35.9257C1025.23 35.8551 1025.14 35.7791 1025.08 35.7985Z" fill="#060607"/>
<path d="M1023 35.9243C1022.93 36.0003 1022.99 36.1364 1023.09 36.1364C1023.15 36.1364 1023.21 36.0798 1023.21 36.0127C1023.21 35.9455 1023.15 35.889 1023.09 35.889C1023.06 35.889 1023.02 35.9049 1023 35.9243Z" fill="#060607"/>
<path d="M1024.38 36.1515C1024.34 36.1657 1024.28 36.2311 1024.28 36.2699C1024.28 36.3371 1024.34 36.4025 1024.41 36.4025C1024.47 36.4025 1024.54 36.3389 1024.54 36.2788C1024.54 36.2081 1024.44 36.1321 1024.38 36.1515Z" fill="#060607"/>
<path d="M1029.82 36.4116C1029.8 36.4345 1029.78 36.4752 1029.78 36.4999C1029.78 36.5565 1029.85 36.6324 1029.9 36.6324C1029.97 36.6307 1030.04 36.5547 1030.04 36.4822C1030.04 36.4381 1029.96 36.3674 1029.91 36.3674C1029.89 36.3674 1029.85 36.3868 1029.82 36.4116Z" fill="#060607"/>
<path d="M1034.59 36.5983C1034.54 36.6142 1034.5 36.6795 1034.5 36.7219C1034.5 36.7803 1034.56 36.8439 1034.62 36.8439C1034.66 36.8439 1034.69 36.8315 1034.72 36.7979C1034.76 36.7396 1034.76 36.7025 1034.72 36.646C1034.68 36.593 1034.64 36.5788 1034.59 36.5983Z" fill="#060607"/>
<path d="M1029.7 36.6741C1029.65 36.7325 1029.65 36.8155 1029.71 36.8615C1029.73 36.8827 1029.77 36.8986 1029.78 36.8986C1029.84 36.8986 1029.9 36.8296 1029.9 36.7678C1029.9 36.6512 1029.77 36.5929 1029.7 36.6741Z" fill="#060607"/>
<path d="M1022.14 37.0275C1022.1 37.077 1022.09 37.1653 1022.14 37.2024C1022.18 37.2466 1022.27 37.2872 1022.32 37.2872C1022.38 37.2872 1022.43 37.2289 1022.43 37.1565C1022.43 37.0911 1022.41 37.0717 1022.31 37.0204C1022.23 36.9762 1022.19 36.978 1022.14 37.0275Z" fill="#060607"/>
<path d="M1039.73 37.3754C1039.68 37.4284 1039.68 37.5203 1039.74 37.568C1039.76 37.5892 1039.79 37.6051 1039.81 37.6051C1039.87 37.6051 1039.93 37.5362 1039.93 37.4743C1039.93 37.3613 1039.81 37.3012 1039.73 37.3754Z" fill="#060607"/>
<path d="M1026.73 37.475C1026.65 37.5086 1026.62 37.6252 1026.68 37.6923C1026.76 37.7719 1026.89 37.7118 1026.89 37.5987C1026.89 37.5156 1026.8 37.4485 1026.73 37.475Z" fill="#060607"/>
<path d="M1038.02 37.4848C1037.93 37.5184 1037.91 37.6049 1037.97 37.6827C1038 37.7163 1038.02 37.7286 1038.06 37.7286C1038.1 37.7286 1038.13 37.7163 1038.15 37.6827C1038.2 37.6244 1038.2 37.5873 1038.16 37.5307C1038.12 37.4777 1038.08 37.4636 1038.02 37.4848Z" fill="#060607"/>
<path d="M1030.04 37.5727C1029.95 37.6063 1029.93 37.6928 1029.99 37.7706C1030.01 37.8042 1030.04 37.8165 1030.08 37.8165C1030.12 37.8165 1030.15 37.8042 1030.17 37.7706C1030.22 37.7123 1030.22 37.6752 1030.17 37.6186C1030.13 37.5656 1030.09 37.5515 1030.04 37.5727Z" fill="#060607"/>
<path d="M1034.54 37.6495C1034.48 37.7167 1034.49 37.8015 1034.58 37.851C1034.65 37.8899 1034.75 37.8192 1034.75 37.7344C1034.75 37.6778 1034.68 37.6054 1034.63 37.6054C1034.6 37.6054 1034.56 37.6248 1034.54 37.6495Z" fill="#060607"/>
<path d="M1030.98 37.9933C1030.92 38.0463 1030.93 38.1382 1030.98 38.1876C1031.11 38.2848 1031.25 38.1046 1031.14 37.9968C1031.09 37.9473 1031.02 37.9473 1030.98 37.9933Z" fill="#060607"/>
<path d="M1040.29 38.0058C1040.2 38.0393 1040.17 38.156 1040.24 38.2231C1040.31 38.3026 1040.44 38.2425 1040.44 38.1295C1040.44 38.0464 1040.36 37.9793 1040.29 38.0058Z" fill="#060607"/>
<path d="M1020.18 38.0864C1020.1 38.1712 1020.15 38.2985 1020.26 38.2985C1020.37 38.2985 1020.42 38.1642 1020.34 38.0847C1020.29 38.0352 1020.22 38.0352 1020.18 38.0864Z" fill="#060607"/>
<path d="M1029.48 38.0936C1029.4 38.1272 1029.37 38.2438 1029.43 38.311C1029.51 38.3905 1029.64 38.3304 1029.64 38.2173C1029.64 38.1343 1029.55 38.0671 1029.48 38.0936Z" fill="#060607"/>
<path d="M1036.61 38.1824C1036.52 38.216 1036.49 38.3326 1036.56 38.3997C1036.63 38.4757 1036.76 38.4192 1036.76 38.3132C1036.76 38.2283 1036.68 38.1577 1036.61 38.1824Z" fill="#060607"/>
<path d="M1039.78 38.27C1039.69 38.3035 1039.66 38.4202 1039.73 38.4873C1039.8 38.5615 1039.93 38.505 1039.93 38.4007C1039.93 38.3159 1039.85 38.2452 1039.78 38.27Z" fill="#060607"/>
<path d="M1023.05 38.3561C1022.98 38.4232 1023 38.5081 1023.09 38.5575C1023.16 38.5964 1023.26 38.5257 1023.26 38.4409C1023.26 38.3844 1023.19 38.3119 1023.14 38.3119C1023.11 38.3119 1023.07 38.3313 1023.05 38.3561Z" fill="#060607"/>
<path d="M1020.13 38.5319C1020.06 38.599 1020.08 38.6838 1020.17 38.7333C1020.24 38.7722 1020.34 38.7015 1020.34 38.6167C1020.34 38.5601 1020.27 38.4877 1020.21 38.4877C1020.19 38.4877 1020.15 38.5071 1020.13 38.5319Z" fill="#060607"/>
<path d="M1029.34 38.877C1029.26 38.9548 1029.32 39.0944 1029.43 39.0944C1029.54 39.0944 1029.59 38.9601 1029.51 38.8805C1029.46 38.8311 1029.39 38.8311 1029.34 38.877Z" fill="#060607"/>
<path d="M1027.29 38.965C1027.24 39.0127 1027.24 39.1063 1027.29 39.1505C1027.37 39.2247 1027.49 39.1682 1027.49 39.0604C1027.49 38.9897 1027.44 38.9296 1027.38 38.9296C1027.35 38.9296 1027.31 38.9455 1027.29 38.965Z" fill="#060607"/>
<path d="M1029.9 38.988C1029.84 39.0198 1029.82 39.0817 1029.84 39.1435C1029.88 39.2813 1030.07 39.2442 1030.07 39.0993C1030.07 39.0057 1029.98 38.9456 1029.9 38.988Z" fill="#060607"/>
<path d="M1038.65 38.988C1038.59 39.0198 1038.56 39.0817 1038.59 39.1435C1038.63 39.2813 1038.82 39.2442 1038.82 39.0993C1038.82 39.0057 1038.73 38.9456 1038.65 38.988Z" fill="#060607"/>
<path d="M1039.69 39.1521C1039.63 39.2298 1039.64 39.304 1039.73 39.3517C1039.8 39.3924 1039.9 39.3164 1039.9 39.2192C1039.9 39.2051 1039.89 39.1733 1039.86 39.1503C1039.81 39.0902 1039.73 39.092 1039.69 39.1521Z" fill="#060607"/>
<path d="M1032.06 39.1539C1031.98 39.1875 1031.95 39.3041 1032.01 39.3713C1032.09 39.449 1032.21 39.3889 1032.21 39.2759C1032.21 39.1946 1032.13 39.1274 1032.06 39.1539Z" fill="#060607"/>
<path d="M1037.58 39.1625C1037.5 39.212 1037.48 39.2862 1037.54 39.3604C1037.58 39.4205 1037.66 39.4223 1037.71 39.3622C1037.74 39.3392 1037.76 39.3074 1037.76 39.2933C1037.76 39.2385 1037.72 39.1784 1037.67 39.159C1037.64 39.1501 1037.62 39.1413 1037.61 39.1413C1037.61 39.1413 1037.6 39.1519 1037.58 39.1625Z" fill="#060607"/>
<path d="M1040.37 39.2409C1040.31 39.3187 1040.33 39.3929 1040.41 39.4406C1040.48 39.4812 1040.59 39.4053 1040.59 39.3081C1040.59 39.2939 1040.57 39.2621 1040.54 39.2392C1040.49 39.1791 1040.41 39.1808 1040.37 39.2409Z" fill="#060607"/>
<path d="M1021.19 39.2522C1021.17 39.2628 1021.14 39.2946 1021.13 39.3247C1021.11 39.3671 1021.11 39.3847 1021.13 39.4236C1021.17 39.4872 1021.24 39.512 1021.3 39.4766C1021.39 39.4236 1021.39 39.2964 1021.29 39.2504C1021.24 39.2275 1021.24 39.2275 1021.19 39.2522Z" fill="#060607"/>
<path d="M1020.73 39.327C1020.66 39.396 1020.68 39.479 1020.77 39.5285C1020.84 39.5691 1020.94 39.4931 1020.94 39.396C1020.94 39.3535 1020.86 39.2829 1020.82 39.2829C1020.79 39.2829 1020.75 39.3023 1020.73 39.327Z" fill="#060607"/>
<path d="M1025.84 39.4069C1025.79 39.4546 1025.79 39.5482 1025.84 39.5924C1025.91 39.6666 1026.04 39.6101 1026.04 39.5023C1026.04 39.4316 1025.99 39.3715 1025.92 39.3715C1025.9 39.3715 1025.86 39.3874 1025.84 39.4069Z" fill="#060607"/>
<path d="M1030.9 39.5831C1030.85 39.6291 1030.85 39.7263 1030.9 39.7687C1030.97 39.8429 1031.1 39.7863 1031.1 39.6786C1031.1 39.5655 1030.97 39.5054 1030.9 39.5831Z" fill="#060607"/>
<path d="M1036.1 39.8003C1036.05 39.8657 1035.95 40.0777 1035.91 40.2032L1035.86 40.3198L1035.91 40.5036C1035.96 40.7333 1035.95 40.8729 1035.89 40.8729C1035.83 40.8729 1035.77 40.9559 1035.78 41.0178C1035.78 41.0584 1035.78 41.0655 1035.76 41.0584C1035.74 41.0531 1035.66 41.092 1035.56 41.1556C1035.47 41.2139 1035.38 41.2616 1035.37 41.2616C1035.36 41.2616 1035.34 41.2281 1035.31 41.1857C1035.18 40.9418 1034.89 40.7298 1034.61 40.6608C1034.48 40.629 1034.23 40.6326 1034.09 40.6697C1033.86 40.7333 1033.6 40.9171 1033.47 41.1256C1033.29 41.4136 1033.26 41.7917 1033.4 42.1045C1033.51 42.3537 1033.65 42.5039 1033.93 42.6558C1034.07 42.7389 1034.15 42.8131 1034.15 42.8873C1034.15 43.0075 1034.13 43.011 1033.81 42.9598C1033.69 42.9421 1033.6 42.9315 1033.6 42.935C1033.6 42.9385 1033.63 42.9774 1033.67 43.0198C1033.76 43.1188 1033.79 43.17 1033.78 43.1842C1033.77 43.1895 1033.7 43.2124 1033.63 43.2372C1033.35 43.3202 1033.3 43.3538 1033.28 43.527C1033.27 43.5941 1033.25 43.6259 1033.18 43.7072C1033.13 43.762 1033.07 43.8062 1033.05 43.8062C1033.04 43.8062 1033.01 43.8221 1032.99 43.8415C1032.97 43.8627 1032.89 43.9175 1032.82 43.967C1032.66 44.0748 1032.42 44.3027 1032.32 44.4476C1032.23 44.5766 1032.17 44.6985 1032.06 44.9636C1031.93 45.2905 1031.86 45.4195 1031.8 45.4583C1031.55 45.6209 1031.45 45.6881 1031.46 45.7022C1031.46 45.7128 1031.56 45.7587 1031.68 45.8064C1031.79 45.8524 1031.89 45.9019 1031.9 45.9142C1031.93 45.9566 1031.92 46.068 1031.89 46.0803C1031.8 46.1121 1031.77 46.2164 1031.82 46.2906C1031.83 46.3083 1031.85 46.3348 1031.85 46.3489C1031.85 46.3843 1031.95 46.5451 1032.02 46.6087C1032.1 46.6811 1032.13 46.6917 1032.19 46.6599C1032.26 46.621 1032.29 46.6263 1032.29 46.6741C1032.29 46.7253 1032.33 46.7836 1032.36 46.7677C1032.37 46.7606 1032.39 46.7023 1032.41 46.6352C1032.46 46.4744 1032.45 46.3896 1032.35 46.2341C1032.26 46.0856 1032.25 46.0591 1032.28 46.0097C1032.32 45.9513 1032.36 45.81 1032.39 45.6227C1032.42 45.4848 1032.44 45.4354 1032.5 45.347C1032.54 45.2869 1032.58 45.1933 1032.61 45.1403C1032.63 45.0625 1032.65 45.036 1032.71 44.9989C1032.76 44.9742 1032.81 44.9194 1032.84 44.8664C1032.87 44.8187 1032.9 44.778 1032.91 44.778C1032.92 44.778 1033.06 44.6473 1033.22 44.4865C1033.38 44.3257 1033.51 44.1949 1033.52 44.1949C1033.53 44.1949 1033.55 44.2409 1033.56 44.2956C1033.57 44.3522 1033.61 44.467 1033.64 44.5501L1033.7 44.702V45.0431V45.3824L1033.62 45.5255C1033.52 45.7128 1033.29 46.2358 1033.19 46.4832C1033.15 46.5892 1033.1 46.7094 1033.08 46.7465C1033.05 46.8048 1033.05 46.8225 1033.07 46.8561C1033.08 46.8896 1033.08 46.9038 1033.06 46.9426C1033.04 46.9674 1033.03 47.0045 1033.04 47.0257C1033.04 47.0487 1033.03 47.1847 1033 47.3314C1032.97 47.4763 1032.92 47.6919 1032.9 47.8085C1032.88 47.9357 1032.83 48.0771 1032.8 48.1619C1032.59 48.6284 1032.33 49.1603 1032.31 49.1603C1032.29 49.1603 1032.28 49.0931 1032.27 48.9217C1032.26 48.844 1032.25 48.7662 1032.25 48.7503C1032.24 48.722 1032.24 48.722 1032.29 48.745C1032.37 48.791 1032.46 48.7344 1032.46 48.6372C1032.46 48.4976 1032.29 48.457 1032.23 48.5824C1032.22 48.609 1032.2 48.586 1032.16 48.4588C1032.12 48.3739 1032.01 48.0841 1031.9 47.8173C1031.79 47.5505 1031.7 47.3137 1031.69 47.2925C1031.68 47.2572 1031.69 47.243 1031.78 47.1777C1031.83 47.137 1031.88 47.0981 1031.88 47.0911C1031.88 47.0858 1031.84 47.0328 1031.79 46.9745C1031.59 46.743 1031.47 46.5557 1031.17 46.0326L1030.98 45.7075L1030.99 45.5308C1031.01 45.2551 1031.05 45.1438 1031.3 44.7833C1031.54 44.4352 1031.64 44.1931 1031.64 43.9829C1031.64 43.8874 1031.63 43.8539 1031.56 43.6948C1031.46 43.4863 1031.45 43.451 1031.45 43.3008C1031.45 43.0516 1031.6 42.882 1032.1 42.5604C1032.6 42.2459 1032.86 42.0391 1032.91 41.9066C1032.94 41.843 1032.92 41.7529 1032.85 41.6698C1032.77 41.5744 1032.7 41.5302 1032.34 41.3235C1031.81 41.0178 1031.64 40.9029 1031.33 40.6273C1031.15 40.4665 1031.13 40.4594 1030.95 40.5124C1030.8 40.5566 1030.77 40.5725 1030.75 40.6237C1030.73 40.6803 1030.75 40.8022 1030.8 40.9065C1030.86 41.0178 1031.02 41.0867 1031.35 41.1291C1031.41 41.1379 1031.47 41.1627 1031.55 41.2228C1031.7 41.3288 1032.33 41.82 1032.36 41.8518C1032.39 41.8925 1032.35 41.9455 1032.23 42.0285C1032.11 42.1063 1031.8 42.2865 1031.79 42.2865C1031.78 42.2865 1031.78 42.2618 1031.78 42.2335C1031.78 42.2035 1031.76 42.1646 1031.74 42.1452C1031.73 42.1257 1031.69 42.1098 1031.66 42.1098C1031.52 42.1098 1031.49 42.3183 1031.62 42.3607C1031.65 42.3678 1031.25 42.5922 1031.07 42.677C1030.99 42.7141 1030.98 42.7141 1030.96 42.6823C1030.95 42.6647 1030.94 42.6046 1030.94 42.5392V42.4279H1031C1031.04 42.4279 1031.06 42.4173 1031.08 42.3943C1031.1 42.3448 1031.1 42.2017 1031.07 42.0992C1031.05 42.0409 1031.04 41.9331 1031.04 41.7741C1031.05 41.5073 1031.03 41.3977 1030.93 41.221C1030.83 41.0196 1030.67 40.9294 1030.39 40.9135C1030.16 40.8994 1030.1 40.9241 1029.95 41.0867C1029.77 41.2828 1029.73 41.4083 1029.63 41.9313C1029.6 42.0886 1029.56 42.2264 1029.51 42.3378C1029.4 42.6116 1029.46 42.6187 1028.97 42.2688C1028.74 42.101 1028.53 41.9543 1028.52 41.9419C1028.49 41.9119 1028.52 41.8783 1028.76 41.6186C1029.24 41.1203 1029.65 40.8923 1030.05 40.8906C1030.17 40.8906 1030.25 40.8623 1030.29 40.8057C1030.3 40.7845 1030.33 40.7722 1030.37 40.7722C1030.46 40.7722 1030.52 40.682 1030.48 40.5813C1030.47 40.5478 1030.35 40.4841 1030.3 40.4841C1030.28 40.4841 1030.18 40.4559 1030.08 40.4205C1029.85 40.3392 1029.82 40.3445 1029.64 40.5407C1029.52 40.6732 1029.48 40.7015 1029.27 40.8181C1028.5 41.2316 1028.35 41.3217 1028.24 41.4154C1028.21 41.4366 1028.18 41.456 1028.18 41.456C1028.17 41.456 1028.12 41.3906 1028.07 41.3093C1027.96 41.1344 1027.93 41.1132 1027.87 41.1256C1027.84 41.1326 1027.8 41.1185 1027.73 41.0673C1027.6 40.9824 1027.39 40.8923 1027.29 40.8782C1027.22 40.8694 1027.19 40.8764 1027.13 40.9153C1027.06 40.9542 1027.03 40.9612 1026.91 40.9612H1026.77L1026.65 41.0743C1026.57 41.1556 1026.51 41.1945 1026.46 41.2086C1026.33 41.2422 1026.33 41.244 1026.28 41.2811C1026.23 41.3235 1026.22 41.403 1026.27 41.4878C1026.3 41.5603 1026.28 41.5938 1026.17 41.6681C1026.12 41.6981 1026.08 41.7387 1026.08 41.7582C1026.07 41.7776 1026.08 41.8448 1026.11 41.9137C1026.16 42.0338 1026.16 42.0374 1026.13 42.1204C1026.09 42.23 1026.09 42.2741 1026.13 42.3537C1026.2 42.4774 1026.24 42.5039 1026.38 42.5003C1026.5 42.4986 1026.52 42.5092 1026.46 42.5463C1026.42 42.5745 1026.38 42.6788 1026.38 42.7583C1026.38 42.8378 1026.43 42.9315 1026.48 42.9492C1026.52 42.9633 1026.6 42.9103 1026.61 42.8626C1026.62 42.8449 1026.6 42.8537 1026.57 42.8891C1026.52 42.935 1026.51 42.9385 1026.48 42.9226C1026.4 42.8767 1026.37 42.7088 1026.44 42.6116C1026.47 42.548 1026.5 42.5604 1026.55 42.6594C1026.57 42.7194 1026.61 42.7618 1026.64 42.7848C1026.68 42.8096 1026.7 42.8361 1026.71 42.882C1026.73 42.9633 1026.71 43.0923 1026.68 43.1824L1026.65 43.2548L1026.54 43.2036C1026.37 43.1223 1026.24 43.094 1026.15 43.117C1026.09 43.1347 1026.02 43.2054 1026.02 43.2531C1026.02 43.2672 1025.99 43.3026 1025.96 43.3291C1025.9 43.3874 1025.9 43.4475 1025.95 43.5111C1025.98 43.5535 1025.98 43.5694 1025.96 44.1967C1025.96 44.5501 1025.95 44.8628 1025.95 44.8911V44.9424L1025.63 44.9318C1025.42 44.9247 1025.26 44.9106 1025.18 44.8911C1025.12 44.8752 1025.04 44.8593 1025.02 44.854L1024.97 44.8452L1025.04 45.059C1025.08 45.1774 1025.1 45.2816 1025.1 45.2887C1025.09 45.2975 1025.06 45.3187 1025.03 45.3346L1024.96 45.3665L1024.93 45.317C1024.74 45.0572 1024.68 45.0042 1024.54 44.9936C1024.38 44.9812 1024.38 45.0113 1024.52 45.0855C1024.64 45.1491 1024.73 45.2339 1024.73 45.2905C1024.73 45.3081 1024.71 45.3399 1024.7 45.3629L1024.66 45.4053L1024.58 45.3611C1024.5 45.317 1024.5 45.317 1024.48 45.3523C1024.45 45.3841 1024.46 45.3912 1024.51 45.4424C1024.58 45.5043 1024.83 45.6068 1024.93 45.6121C1024.97 45.6121 1025.03 45.6085 1025.07 45.6015C1025.14 45.5873 1025.14 45.5873 1025.14 45.6403C1025.14 45.7146 1025.11 45.7852 1025.06 45.8453L1025.01 45.8966L1025.08 45.886C1025.18 45.8701 1025.57 45.7022 1025.88 45.5449C1026.2 45.3806 1026.35 45.2834 1026.4 45.2127C1026.43 45.188 1026.45 45.1668 1026.46 45.1668C1026.49 45.1668 1026.75 45.446 1026.77 45.499C1026.79 45.5661 1026.75 45.6527 1026.62 45.8435C1026.45 46.0892 1026.43 46.1015 1025.88 46.356C1025.38 46.591 1025.16 46.72 1024.86 46.9462C1024.5 47.2324 1024.5 47.2201 1024.4 47.7184C1024.37 47.8862 1024.34 47.9958 1024.32 48.0241C1024.28 48.0735 1024.27 48.1354 1024.3 48.1637C1024.32 48.1884 1024.12 49.3193 1024.08 49.39C1024.06 49.42 1024.06 49.3864 1024.12 48.8192L1024.16 48.4323L1024.1 48.2096C1023.98 47.7484 1023.9 47.5629 1023.51 46.7553C1023.24 46.2076 1023.13 45.9531 1023.13 45.8506C1023.13 45.8188 1023.16 45.7534 1023.19 45.7057C1023.21 45.6562 1023.24 45.5926 1023.24 45.5608C1023.24 45.5308 1023.21 45.4089 1023.17 45.2922C1023.07 44.9848 1023.03 44.6897 1023 44.1772C1022.98 43.8592 1022.99 43.6454 1023.03 43.6083C1023.05 43.58 1023.16 43.6418 1023.2 43.7072C1023.22 43.7337 1023.28 43.8291 1023.34 43.9193C1023.4 44.0076 1023.49 44.1384 1023.53 44.209C1023.65 44.384 1023.67 44.3946 1023.79 44.3133C1023.85 44.278 1024.05 44.0924 1024.24 43.9033C1024.43 43.7125 1024.59 43.5694 1024.59 43.5835C1024.59 43.6295 1024.66 43.6825 1024.71 43.6825C1024.75 43.6825 1024.78 43.6666 1024.8 43.6401C1024.84 43.6047 1024.85 43.5994 1024.93 43.6065C1025.03 43.6171 1025.13 43.5711 1025.19 43.4846L1025.23 43.4316L1025.14 43.3361C1025.09 43.2849 1025.05 43.2389 1025.06 43.2336C1025.06 43.2301 1025.12 43.1965 1025.18 43.1594C1025.32 43.0834 1025.45 42.9951 1025.53 42.9279C1025.57 42.8891 1025.58 42.8679 1025.58 42.8007C1025.58 42.7565 1025.58 42.7018 1025.59 42.6823C1025.61 42.6452 1025.6 42.6346 1025.53 42.5728C1025.51 42.5604 1025.5 42.5268 1025.5 42.4986C1025.5 42.4243 1025.44 42.3696 1025.38 42.3837C1025.34 42.3943 1025.33 42.389 1025.32 42.3272C1025.3 42.2618 1025.3 42.26 1025.22 42.2618C1025.08 42.2635 1024.95 42.389 1024.85 42.6311C1024.8 42.7512 1024.72 42.8696 1024.69 42.8696C1024.68 42.8696 1024.65 42.8414 1024.61 42.806L1024.54 42.7442L1024.44 42.7972L1024.34 42.852L1024.38 42.9792L1024.42 43.1064L1024.34 43.1877C1024.23 43.2849 1024.02 43.4439 1023.93 43.4793C1023.85 43.5146 1023.78 43.5128 1023.73 43.4704C1023.68 43.4333 1023.59 43.2619 1023.52 43.0834C1023.5 43.0216 1023.46 42.9615 1023.45 42.9492C1023.43 42.935 1023.42 42.9191 1023.43 42.912C1023.44 42.905 1023.45 42.9085 1023.46 42.9173C1023.5 42.9456 1023.66 42.9456 1023.68 42.9191C1023.71 42.8838 1023.69 42.8608 1023.58 42.8096C1023.47 42.7548 1023.36 42.6523 1023.26 42.4968C1023.22 42.4314 1023.17 42.3713 1023.13 42.3519C1023.06 42.3113 1022.95 42.1982 1022.95 42.1681C1022.95 42.1522 1022.98 42.1452 1023.05 42.1452H1023.16L1023.22 42.0462C1023.28 41.9402 1023.31 41.9172 1023.35 41.9508C1023.37 41.9684 1023.38 41.9631 1023.4 41.9101C1023.41 41.8748 1023.44 41.7811 1023.45 41.6981C1023.49 41.4931 1023.52 41.4136 1023.61 41.3323C1023.69 41.2581 1023.73 41.244 1023.73 41.2881C1023.73 41.3023 1023.74 41.3288 1023.75 41.3465C1023.76 41.3624 1023.77 41.3995 1023.78 41.4295C1023.81 41.5408 1023.95 41.555 1024.01 41.4525C1024.03 41.4118 1024.03 41.3995 1024.01 41.3394C1023.99 41.3005 1023.97 41.2475 1023.97 41.2192C1023.96 41.1874 1023.94 41.1627 1023.91 41.1521L1023.86 41.1326L1023.9 41.0461C1023.98 40.8658 1023.97 40.6838 1023.84 40.5036C1023.73 40.3463 1023.58 40.2597 1023.28 40.1802C1023.02 40.1131 1022.67 40.1643 1022.39 40.3074C1022.22 40.3923 1022.11 40.5018 1022.03 40.6608C1021.98 40.7651 1021.98 40.7898 1021.98 40.9277C1021.98 41.1556 1022.01 41.2298 1022.13 41.3641C1022.21 41.4489 1022.25 41.5126 1022.29 41.6027C1022.32 41.6716 1022.34 41.737 1022.33 41.7493C1022.32 41.7776 1022.2 41.8271 1022.14 41.8271C1022.11 41.8271 1022.07 41.8023 1022.02 41.7599L1021.94 41.6946H1021.74C1021.56 41.6946 1021.54 41.691 1021.43 41.6362C1021.32 41.5815 1021.31 41.5797 1021.29 41.608C1021.25 41.6557 1021.26 41.7016 1021.31 41.767L1021.35 41.8236L1021.25 41.8907C1021.13 41.9649 1021.12 41.9879 1020.99 42.3201C1020.95 42.4208 1020.9 42.5233 1020.89 42.548C1020.87 42.5728 1020.85 42.6134 1020.85 42.6399C1020.85 42.6647 1020.83 42.7459 1020.81 42.8166C1020.79 42.8891 1020.77 42.9545 1020.77 42.9615C1020.77 42.9686 1020.88 42.9226 1021.01 42.8573C1021.14 42.7937 1021.25 42.7459 1021.26 42.7495C1021.27 42.7671 1020.94 44.3681 1020.9 44.4723C1020.85 44.5925 1020.8 44.5183 1020.82 44.3645C1020.83 44.3062 1020.83 44.2515 1020.83 44.2409C1020.83 44.2285 1020.78 44.1984 1020.73 44.1702L1020.64 44.1207L1020.57 44.1949C1020.53 44.2356 1020.48 44.278 1020.46 44.2903C1020.44 44.3009 1020.41 44.3327 1020.4 44.3628C1020.39 44.4264 1020.3 44.9494 1020.3 44.9971C1020.3 45.0784 1020.52 45.2269 1020.6 45.1968C1020.61 45.1915 1020.64 45.142 1020.66 45.0873C1020.67 45.0342 1020.69 44.9848 1020.7 44.9812C1020.72 44.9671 1020.89 45.0625 1020.91 45.0996C1020.92 45.1226 1020.92 45.1703 1020.91 45.2551C1020.9 45.3223 1020.89 45.4036 1020.89 45.4371V45.4972L1021.04 45.5273C1021.12 45.5432 1021.2 45.5555 1021.21 45.5555C1021.28 45.5573 1021.28 45.582 1021.25 45.6827C1021.23 45.7358 1021.21 45.8312 1021.2 45.893C1021.18 46.1139 1021.25 46.5981 1021.38 47.0398C1021.55 47.683 1021.67 48.2308 1021.67 48.4358C1021.67 48.5683 1021.66 48.5984 1021.62 48.6902C1021.56 48.8139 1021.35 49.0189 1021.23 49.0755C1021.16 49.1037 1021.14 49.1285 1021.12 49.1762C1021.11 49.2115 1021.04 49.3069 1020.97 49.39C1020.91 49.473 1020.79 49.6197 1020.72 49.7187L1020.58 49.8971L1020.67 50.1957C1020.79 50.6092 1021.14 51.5458 1021.18 51.5599C1021.21 51.5705 1021.48 51.5458 1021.5 51.5299C1021.51 51.5228 1021.53 51.4715 1021.54 51.4168C1021.6 51.0528 1021.95 49.966 1022.48 48.5683C1022.51 48.4817 1022.51 48.4729 1022.48 48.0647C1022.42 47.2165 1022.38 46.5822 1022.38 46.538C1022.39 46.4867 1022.38 46.4761 1022.97 47.5964C1023.17 47.987 1023.37 48.3651 1023.4 48.4376L1023.48 48.5701L1023.43 48.6743C1023.4 48.7326 1023.25 48.9995 1023.1 49.2663C1022.68 49.9696 1022.56 50.2346 1022.41 50.7541C1022.33 51.0192 1022.2 51.5104 1022.21 51.5193C1022.23 51.5369 1023.64 51.6164 1023.94 51.6164C1024.14 51.6164 1024.2 51.6058 1024.15 51.5723C1024.11 51.5493 1024.15 51.5316 1024.26 51.521L1024.38 51.5087L1024.39 51.4079C1024.41 51.2772 1024.46 51.1676 1024.51 51.1287C1024.56 51.1005 1024.57 51.1005 1024.61 51.1234C1024.67 51.157 1024.72 51.2825 1024.74 51.4079L1024.75 51.5104H1024.91C1025 51.5104 1025.07 51.5034 1025.08 51.4963C1025.09 51.4821 1025.08 51.3885 1025.04 50.9202L1025.03 50.763L1025.27 50.7753C1025.46 50.7859 1025.5 50.7842 1025.5 50.7647C1025.5 50.7382 1025.45 50.4272 1025.33 49.6038L1025.24 49.0313V48.4358C1025.24 47.9357 1025.25 47.8368 1025.27 47.8297C1025.3 47.8173 1026.01 47.3438 1026.45 47.0398C1026.64 46.9126 1026.79 46.8119 1026.8 46.8172C1026.81 46.826 1026.75 46.9426 1026.56 47.3049C1026.33 47.7378 1026.15 48.1248 1026.09 48.298C1026.02 48.5047 1026.01 48.5665 1025.95 50.201C1025.94 50.6128 1025.93 50.952 1025.94 50.9573C1025.94 50.9626 1026.05 50.9715 1026.17 50.9768L1026.4 50.9891L1026.25 51.0475C1026.15 51.081 1026.07 51.1234 1026.05 51.1499C1026.01 51.1924 1026.01 51.2083 1026.01 51.392V51.5899L1026.36 51.5952C1026.55 51.5988 1026.73 51.5952 1026.76 51.5899C1026.81 51.5811 1026.82 51.5776 1026.82 51.4698C1026.84 51.2754 1026.93 51.1535 1027.03 51.1818C1027.09 51.1959 1027.13 51.2648 1027.15 51.4185C1027.16 51.4874 1027.17 51.5528 1027.18 51.567C1027.19 51.5829 1027.25 51.5917 1027.34 51.597L1027.49 51.6023V51.5352C1027.49 51.4963 1027.48 51.3514 1027.47 51.2118C1027.46 50.9909 1027.46 50.9538 1027.48 50.9273C1027.51 50.9008 1027.51 50.892 1027.48 50.8319C1027.43 50.6994 1027.45 50.664 1027.63 50.5986C1027.68 50.5827 1027.72 50.558 1027.72 50.5439C1027.73 50.5103 1027.68 50.3406 1027.58 50.1392C1027.52 49.9908 1027.51 49.9766 1027.55 49.989C1027.59 50.0084 1027.65 49.9855 1027.69 49.9342C1027.72 49.8812 1027.72 49.8459 1027.68 49.7893C1027.63 49.7222 1027.54 49.7257 1027.49 49.7964L1027.45 49.8476L1027.34 49.6144C1027.1 49.079 1027.05 48.9023 1027.07 48.5948C1027.09 48.146 1027.22 47.8368 1027.67 47.2324C1027.98 46.796 1028.07 46.6599 1028.12 46.5027C1028.16 46.3913 1028.17 46.3489 1028.17 46.1475C1028.17 45.9178 1028.17 45.9178 1028.1 45.7852C1028.02 45.6138 1027.92 45.4919 1027.72 45.3417C1027.63 45.2746 1027.55 45.2039 1027.54 45.1844C1027.51 45.1226 1027.57 44.8664 1027.65 44.7056C1027.67 44.6632 1027.68 44.6013 1027.68 44.5412C1027.68 44.4882 1027.69 44.4405 1027.69 44.4352C1027.72 44.4211 1027.88 44.6031 1028.09 44.8734C1028.19 44.9989 1028.32 45.165 1028.38 45.2445C1028.55 45.4583 1029.05 46.1934 1029.05 46.227C1029.05 46.2429 1029.04 46.3595 1029.02 46.485C1028.97 46.7871 1028.96 47.2978 1028.99 47.3561C1029 47.3844 1029.04 47.4091 1029.09 47.4286L1029.18 47.4586L1029.19 47.8103C1029.2 48.1584 1029.23 48.6178 1029.25 48.7715L1029.26 48.851L1029.22 48.8104C1029.16 48.7556 1029.08 48.7592 1029.04 48.8175C1028.99 48.8722 1028.99 48.8934 1029.02 48.9553C1029.06 49.0366 1029.18 49.0454 1029.23 48.9694C1029.25 48.9429 1029.26 48.9571 1029.26 49.0595V49.1797L1029.2 49.1673C1029.16 49.162 1029.14 49.1638 1029.14 49.1709C1029.14 49.1797 1029.15 49.3776 1029.16 49.6109C1029.2 50.1763 1029.2 50.9273 1029.16 50.9273C1029.11 50.9273 1029.05 50.9997 1029.05 51.0581C1029.05 51.1217 1029.11 51.1924 1029.16 51.1924C1029.19 51.1924 1029.19 51.2083 1029.18 51.4574L1029.17 51.7225L1029.24 51.7437C1029.33 51.7719 1029.31 51.7843 1029.21 51.7596C1029.17 51.7472 1029.13 51.7419 1029.12 51.7472C1029.12 51.7507 1029.14 51.802 1029.17 51.8621L1029.22 51.9698H1029.33H1029.43L1029.48 51.8621C1029.51 51.802 1029.53 51.7507 1029.53 51.7472C1029.52 51.7437 1029.48 51.7525 1029.44 51.7684C1029.4 51.7843 1029.35 51.7914 1029.34 51.7878C1029.33 51.7825 1029.33 51.7772 1029.35 51.7772C1029.4 51.7737 1029.48 51.5087 1029.55 51.0492C1029.57 50.8973 1029.6 50.7912 1029.61 50.7948C1029.62 50.7965 1029.65 50.8089 1029.67 50.8213C1029.78 50.8725 1029.88 50.7718 1029.84 50.6658C1029.81 50.6004 1029.74 50.5615 1029.69 50.5898C1029.64 50.6163 1029.64 50.6145 1029.64 50.5774C1029.66 50.4961 1029.74 49.7734 1029.75 49.5225C1029.76 49.367 1029.78 48.8616 1029.8 48.4004C1029.81 47.9392 1029.83 47.5593 1029.83 47.5558C1029.84 47.5505 1029.99 47.5611 1030.18 47.5788C1030.43 47.6 1030.59 47.6053 1030.74 47.5964L1030.95 47.5841L1030.98 47.6353C1031 47.6618 1031.13 47.8474 1031.27 48.0453C1031.54 48.4287 1031.63 48.5877 1031.69 48.7715C1031.75 48.9641 1031.75 48.9995 1031.71 49.0171C1031.67 49.0313 1031.67 49.033 1031.67 49.4889V49.9466L1031.59 50.3477C1031.51 50.7453 1031.48 50.8248 1031.39 50.9432C1031.34 51.0192 1031.34 51.028 1031.4 51.0899C1031.43 51.127 1031.44 51.1605 1031.45 51.2365C1031.46 51.3249 1031.45 51.3337 1031.42 51.3337C1031.38 51.3337 1031.32 51.4132 1031.32 51.4662C1031.32 51.5175 1031.39 51.5864 1031.45 51.5864C1031.48 51.5864 1031.51 51.5687 1031.53 51.5352L1031.58 51.4857L1031.57 51.574C1031.57 51.6217 1031.57 51.673 1031.57 51.6907C1031.57 51.7278 1031.66 51.7578 1031.76 51.7578C1031.84 51.7578 1031.85 51.7543 1031.89 51.6783C1031.92 51.6341 1031.94 51.5988 1031.94 51.5988C1031.95 51.5988 1031.98 51.6235 1032.02 51.6553C1032.16 51.7825 1032.49 51.8992 1032.73 51.9027C1032.88 51.9062 1032.94 51.8833 1032.94 51.8303C1032.94 51.7967 1032.87 51.7066 1032.8 51.6571C1032.77 51.6429 1032.75 51.6023 1032.74 51.567C1032.73 51.5316 1032.7 51.4839 1032.68 51.4609L1032.65 51.4203L1032.74 51.4256L1032.83 51.4309L1032.84 51.0422L1032.85 50.6534L1033 50.0791C1033.08 49.7628 1033.16 49.4253 1033.18 49.3281C1033.21 49.1214 1033.24 48.9235 1033.27 48.8546C1033.28 48.8281 1033.34 48.7203 1033.39 48.616C1033.54 48.3492 1033.64 48.1336 1033.69 47.9499C1033.77 47.6477 1033.92 47.395 1034.08 47.2713L1034.18 47.2006L1034.75 47.7891C1035.06 48.1124 1035.36 48.4093 1035.4 48.4464L1035.49 48.5171L1035.47 48.586C1035.41 48.8033 1035.39 48.9995 1035.38 49.5225C1035.37 50.1021 1035.35 50.1957 1035.23 50.7559C1035.21 50.8407 1035.19 50.9308 1035.19 50.9573V51.0033L1035.35 50.9909L1035.52 50.9785L1035.52 51.0369C1035.53 51.0687 1035.54 51.1499 1035.54 51.2189C1035.55 51.286 1035.56 51.3549 1035.57 51.3708C1035.58 51.3991 1035.8 51.4521 1035.82 51.4327C1035.83 51.4256 1035.85 51.3832 1035.88 51.339C1035.96 51.1853 1035.99 51.1924 1036.1 51.3903C1036.15 51.4768 1036.19 51.5193 1036.23 51.544C1036.4 51.627 1036.74 51.6412 1036.83 51.5705C1036.94 51.4892 1036.89 51.4044 1036.68 51.2966C1036.6 51.2577 1036.52 51.2136 1036.51 51.1959C1036.46 51.1499 1036.39 51.0333 1036.4 51.0068C1036.4 50.9962 1036.44 50.9803 1036.48 50.9732C1036.52 50.9662 1036.57 50.9503 1036.59 50.9361C1036.63 50.9132 1036.63 50.9026 1036.61 50.8531C1036.57 50.6834 1036.27 49.1497 1036.2 48.7627C1036.14 48.3757 1036.12 48.2891 1036 48.0824C1035.96 47.9993 1035.84 47.7555 1035.74 47.5399L1035.56 47.1494L1035.62 47.1211C1035.75 47.0628 1035.95 46.9868 1035.97 46.9868C1035.99 46.9886 1036.1 47.1246 1036.11 47.16C1036.12 47.1671 1036.1 47.183 1036.07 47.1953C1035.98 47.2342 1035.97 47.3491 1036.04 47.4109C1036.08 47.4445 1036.16 47.4409 1036.2 47.4021C1036.24 47.372 1036.24 47.3738 1036.27 47.4356C1036.28 47.471 1036.3 47.4993 1036.31 47.4993C1036.34 47.4993 1036.44 47.342 1036.54 47.1352C1036.6 47.0063 1036.69 46.8525 1036.73 46.7942C1036.81 46.6864 1036.85 46.6599 1036.83 46.7165C1036.82 46.7748 1036.79 47.137 1036.78 47.3137C1036.78 47.4798 1036.78 47.4904 1036.83 47.5275C1036.86 47.5593 1036.98 47.5982 1037.13 47.63C1037.17 47.6389 1037.19 47.6671 1037.27 47.8739C1037.46 48.3845 1037.56 48.6779 1037.57 48.7468C1037.58 48.8493 1037.49 49.1991 1037.21 50.0738C1037.08 50.4696 1036.97 50.8283 1036.97 50.8672C1036.96 50.9291 1036.97 50.9591 1037.01 51.0581C1037.12 51.286 1037.3 51.4662 1037.46 51.5122C1037.5 51.5228 1037.59 51.5281 1037.65 51.5246C1037.75 51.5175 1037.8 51.5051 1037.89 51.4521C1038.12 51.3143 1038.4 51.0386 1038.4 50.9397C1038.4 50.9185 1038.37 50.8584 1038.34 50.8071C1038.22 50.6198 1038.09 50.0473 1038.09 49.6815C1038.08 49.4412 1038.1 49.344 1038.19 49.0507C1038.28 48.791 1038.28 48.7203 1038.2 48.3033C1038.15 48.0311 1038.11 47.7802 1038.08 47.5381C1038.08 47.4904 1038.08 47.4781 1038.11 47.4657C1038.17 47.4427 1038.49 47.4091 1038.5 47.4233C1038.52 47.4445 1039.05 48.3598 1039.1 48.457C1039.12 48.5012 1039.14 48.5718 1039.15 48.6107C1039.18 48.7485 1039.14 49.0419 1039.03 49.5207C1038.89 50.1622 1038.84 50.4502 1038.82 50.9485L1038.81 51.1729L1038.76 51.1393C1038.71 51.0934 1038.67 51.0952 1038.61 51.1446C1038.56 51.1959 1038.55 51.2666 1038.6 51.3266C1038.65 51.3761 1038.72 51.3814 1038.76 51.339C1038.79 51.3125 1038.79 51.316 1038.79 51.4362C1038.79 51.5617 1038.79 51.5634 1038.84 51.5634C1038.88 51.5634 1038.88 51.5617 1038.87 51.4698L1038.86 51.3779L1038.9 51.4609C1038.94 51.5334 1038.96 51.5458 1039 51.5458C1039.06 51.5458 1039.09 51.5051 1039.09 51.415C1039.09 51.3213 1039.13 51.2825 1039.21 51.3143C1039.23 51.3231 1039.27 51.3213 1039.29 51.3143C1039.34 51.2948 1039.39 51.3567 1039.49 51.5263C1039.53 51.5882 1039.57 51.65 1039.58 51.6624C1039.61 51.6942 1039.7 51.6942 1039.75 51.6606C1039.79 51.627 1039.81 51.627 1039.8 51.6606C1039.78 51.6995 1040.12 51.6995 1040.18 51.6606C1040.26 51.5988 1040.23 51.4415 1040.12 51.3956C1040.08 51.3779 1040.06 51.3567 1040.06 51.3355C1040.06 51.2966 1040.11 51.2807 1040.22 51.2807C1040.32 51.2807 1040.32 51.2789 1040.25 51.051C1040.17 50.793 1040.07 50.3389 1040.04 50.1233C1040.02 50.0155 1040 49.7876 1039.99 49.6144L1039.96 49.2999L1040.01 49.2486C1040.04 49.2221 1040.06 49.1832 1040.06 49.1638C1040.06 49.1214 1040 49.0366 1039.97 49.0366C1039.95 49.0366 1039.94 49.0224 1039.94 49.0048C1039.94 48.9217 1039.89 48.3951 1039.87 48.2803C1039.83 48.116 1039.73 47.8756 1039.41 47.2165C1039.2 46.7924 1039.15 46.6688 1039.13 46.5539C1039.08 46.3383 1038.97 45.9301 1038.88 45.635C1038.69 45.0449 1038.61 44.6791 1038.58 44.2214L1038.57 44.0801L1038.7 44.2744C1038.89 44.566 1039.1 44.8045 1039.4 45.0961C1039.77 45.453 1039.84 45.5414 1040.11 45.9743C1040.2 46.1227 1040.28 46.2482 1040.29 46.2553C1040.3 46.2623 1040.32 46.25 1040.34 46.2288L1040.37 46.1917L1040.38 46.2394C1040.38 46.2676 1040.39 46.5186 1040.4 46.8013L1040.41 47.3137L1040.49 47.6671C1040.54 47.8615 1040.58 48.0788 1040.59 48.1513C1040.61 48.2467 1040.62 48.6655 1040.62 49.6427L1040.62 51.0015L1040.78 51.0687C1040.87 51.1058 1040.96 51.1411 1040.98 51.1464C1041.01 51.1552 1041.01 51.1605 1040.98 51.2224C1040.92 51.3691 1040.85 51.5758 1040.85 51.6429C1040.85 51.7366 1040.9 51.8179 1040.99 51.8674C1041.05 51.8992 1041.1 51.9062 1041.22 51.908C1041.39 51.908 1041.49 51.8744 1041.52 51.8037C1041.54 51.779 1041.54 51.6412 1041.55 51.3867V51.0068L1041.59 50.9838C1041.62 50.9715 1041.64 50.9556 1041.64 50.9485C1041.64 50.77 1041.53 49.595 1041.48 49.2928C1041.41 48.8581 1041.4 48.7521 1041.42 48.6743C1041.43 48.6355 1041.45 48.48 1041.45 48.3298C1041.46 48.1796 1041.47 48.0117 1041.48 47.9587C1041.49 47.8862 1041.48 47.8421 1041.46 47.7908C1041.42 47.683 1041.41 47.4834 1041.44 47.2077C1041.46 47.0716 1041.48 46.8525 1041.49 46.7218C1041.5 46.591 1041.51 46.4814 1041.51 46.4797C1041.51 46.4761 1041.54 46.5097 1041.57 46.5539C1041.66 46.6847 1041.78 46.9745 1041.88 47.2784C1041.93 47.4339 1041.98 47.5929 1042 47.6318C1042.03 47.7025 1042.03 47.6601 1042.03 44.1543C1042.04 42.0338 1042.03 40.6078 1042.02 40.6078C1041.99 40.6078 1041.84 40.7439 1041.71 40.8782C1041.57 41.0372 1041.5 41.1644 1041.5 41.2722C1041.5 41.3376 1041.51 41.3553 1041.56 41.3924C1041.59 41.4171 1041.66 41.4578 1041.71 41.4825C1041.8 41.5214 1041.81 41.5373 1041.82 41.5762C1041.82 41.6451 1041.82 41.6451 1041.81 41.8041L1041.8 41.9508H1041.85C1041.93 41.9508 1041.89 41.9808 1041.8 41.9914C1041.65 42.0091 1041.58 42.1292 1041.47 42.5781C1041.34 43.1276 1041.31 43.1771 1040.8 44.0871C1040.55 44.5271 1040.51 44.6049 1040.51 44.6649C1040.51 44.7091 1040.51 44.7109 1040.6 44.7038L1040.7 44.6985L1040.69 44.8045C1040.68 44.8628 1040.67 44.9123 1040.67 44.9159C1040.67 44.9176 1040.62 44.9282 1040.56 44.9388C1040.36 44.9724 1040.14 44.9212 1039.98 44.8063C1039.89 44.7445 1039.66 44.5183 1039.59 44.4176C1039.55 44.3592 1039.54 44.3486 1039.57 44.3345C1039.58 44.3257 1039.6 44.2974 1039.62 44.2691C1039.66 44.1596 1039.57 44.0606 1039.46 44.103C1039.43 44.1154 1039.4 44.1172 1039.39 44.1101C1039.39 44.103 1039.31 43.9776 1039.24 43.8327C1038.96 43.3185 1038.9 43.2124 1038.82 43.1594C1038.78 43.1329 1038.47 43.0887 1038.29 43.0834C1038.28 43.0817 1038.26 43.0746 1038.26 43.0675C1038.26 43.0587 1038.3 42.9933 1038.36 42.9226C1038.41 42.852 1038.45 42.7901 1038.44 42.7866C1038.44 42.7831 1038.32 42.8308 1038.17 42.8944C1038.02 42.9598 1037.89 43.011 1037.88 43.011C1037.86 43.011 1037.85 42.9898 1037.85 42.912C1037.85 42.8272 1037.86 42.8078 1037.9 42.7618L1037.95 42.7106L1038.03 42.7406C1038.13 42.7813 1038.18 42.7565 1038.23 42.6452C1038.27 42.5427 1038.27 42.3837 1038.21 42.2759L1038.18 42.2035L1038.23 42.0674C1038.3 41.8854 1038.36 41.6221 1038.36 41.5355C1038.36 41.433 1038.32 41.2722 1038.26 41.1379C1038.19 41.0036 1037.97 40.758 1037.85 40.698C1037.81 40.6767 1037.67 40.6343 1037.54 40.6043C1037.12 40.5053 1036.86 40.5283 1036.66 40.6856C1036.58 40.751 1036.43 40.9612 1036.32 41.1591C1036.28 41.2351 1036.24 41.297 1036.23 41.297C1036.21 41.297 1036.23 40.9824 1036.27 40.8216C1036.3 40.7192 1036.31 40.6449 1036.3 40.5866C1036.29 40.5106 1036.29 40.4983 1036.33 40.4735C1036.36 40.4523 1036.38 40.4294 1036.38 40.3887C1036.37 40.3145 1036.32 40.1961 1036.27 40.159C1036.22 40.1272 1036.13 40.1219 1036.11 40.1502C1036.07 40.1873 1036.07 40.1378 1036.11 39.9982C1036.17 39.7932 1036.16 39.696 1036.1 39.8003ZM1035.57 41.403C1035.72 41.4595 1035.71 41.4578 1035.67 41.555C1035.64 41.6027 1035.6 41.7087 1035.58 41.7917C1035.55 41.8748 1035.48 42.0462 1035.42 42.1734C1035.28 42.4473 1035.21 42.6099 1035.21 42.6346C1035.21 42.6682 1035.04 42.8131 1034.98 42.8343C1034.9 42.859 1034.86 42.8467 1034.92 42.8166C1034.97 42.7919 1035.02 42.7124 1035.02 42.6523C1035.02 42.6081 1035.06 42.5374 1035.21 42.3519C1035.26 42.2918 1035.31 42.2141 1035.33 42.1805C1035.44 41.9649 1035.46 41.6787 1035.41 41.4048C1035.39 41.3465 1035.4 41.3447 1035.44 41.3571C1035.46 41.3641 1035.52 41.3836 1035.57 41.403ZM1036.22 41.8872C1036.24 42.002 1036.35 42.2052 1036.45 42.3024C1036.49 42.3413 1036.57 42.412 1036.63 42.4579C1036.71 42.5198 1036.74 42.5551 1036.74 42.5798C1036.71 42.7954 1036.71 42.9014 1036.75 42.9792C1036.85 43.223 1037.04 43.1117 1037.05 42.8025C1037.05 42.7318 1037.05 42.6753 1037.06 42.6753C1037.06 42.6753 1037.1 42.7053 1037.15 42.7442C1037.2 42.7813 1037.28 42.8272 1037.33 42.8449L1037.42 42.8767V43.011V43.1471L1037.03 43.1683C1036.82 43.1806 1036.64 43.1948 1036.63 43.1983C1036.63 43.2036 1036.64 43.2142 1036.65 43.223C1036.66 43.2319 1036.73 43.2761 1036.8 43.322C1036.93 43.4015 1036.93 43.4068 1036.89 43.4227C1036.72 43.4969 1036.65 43.5411 1036.55 43.6383C1036.47 43.7231 1036.44 43.7673 1036.42 43.8415C1036.4 43.8998 1036.36 44.3557 1036.3 45.0449C1036.25 45.6545 1036.19 46.1934 1036.18 46.2411C1036.15 46.4072 1035.91 46.6016 1035.73 46.6087C1035.61 46.614 1035.55 46.6599 1035.57 46.7377C1035.57 46.7854 1035.57 46.7924 1035.51 46.8083C1035.36 46.8455 1035.33 46.849 1035.3 46.8243C1035.21 46.7465 1034.93 46.4178 1034.93 46.386C1034.93 46.3648 1034.97 46.2941 1035 46.2288C1035.33 45.658 1035.5 45.2127 1035.59 44.7533C1035.65 44.4582 1035.65 44.1984 1035.59 43.7973C1035.52 43.2796 1035.52 43.299 1035.6 43.1488C1035.64 43.0781 1035.71 42.9827 1035.74 42.9385C1035.78 42.8891 1035.82 42.8113 1035.83 42.7442C1035.85 42.6823 1035.89 42.5551 1035.93 42.4632C1036.01 42.2529 1036.08 42.0056 1036.08 41.9366C1036.08 41.8801 1036.14 41.7917 1036.18 41.7917C1036.19 41.7917 1036.21 41.8306 1036.22 41.8872ZM1031.04 42.1399C1031.07 42.2141 1031.06 42.3572 1031.04 42.389C1031 42.4226 1030.96 42.4049 1030.96 42.3572C1030.96 42.3148 1031.01 42.0921 1031.02 42.0921C1031.02 42.0921 1031.03 42.1133 1031.04 42.1399ZM1028.25 42.3042C1028.41 42.4526 1028.58 42.5763 1028.88 42.7742C1029.03 42.8679 1029.16 42.9545 1029.17 42.9651C1029.18 42.981 1029.18 43.0039 1029.13 43.0728C1028.93 43.375 1028.56 43.7019 1028.23 43.868C1028.17 43.8963 1028.13 43.9263 1028.13 43.9316C1028.12 43.9458 1028.22 43.974 1028.46 44.027C1028.73 44.0871 1028.8 44.1083 1029.22 44.2656C1029.77 44.4723 1029.96 44.5483 1029.96 44.5713C1029.98 44.7498 1029.87 45.0502 1029.73 45.2339C1029.67 45.3099 1029.66 45.3117 1029.58 45.2993C1029.36 45.2657 1028.92 45.0749 1028.72 44.9318C1028.61 44.8505 1028.42 44.6543 1028.3 44.4953C1028.18 44.3451 1028.1 44.1808 1028.03 43.9829C1028 43.8804 1027.95 43.7638 1027.93 43.7231C1027.87 43.6295 1027.73 43.5234 1027.56 43.4528C1027.33 43.3538 1027.3 43.3414 1027.31 43.3167C1027.31 43.3043 1027.38 43.2301 1027.47 43.1524C1027.59 43.0481 1027.64 43.011 1027.68 43.011C1027.74 43.011 1027.79 42.9615 1027.81 42.8749C1027.84 42.7848 1027.84 42.7689 1027.8 42.6735C1027.75 42.5198 1027.82 42.3784 1028 42.2618C1028.06 42.2282 1028.11 42.2017 1028.12 42.1999C1028.13 42.1982 1028.19 42.2459 1028.25 42.3042ZM1038.19 42.3077C1038.25 42.4402 1038.23 42.67 1038.16 42.7106C1038.11 42.7371 1038.05 42.7318 1038.02 42.7018C1038.01 42.6823 1038.01 42.6541 1038.04 42.5657C1038.06 42.5039 1038.08 42.4155 1038.09 42.366C1038.11 42.2883 1038.13 42.2335 1038.15 42.2335C1038.16 42.2335 1038.18 42.2671 1038.19 42.3077ZM1037.02 42.7654C1037.03 42.9226 1036.97 43.0817 1036.89 43.0817C1036.79 43.0817 1036.71 42.8696 1036.75 42.7071C1036.78 42.5675 1036.79 42.5639 1036.91 42.6205L1037.02 42.67L1037.02 42.7654ZM1027.8 42.7866C1027.8 42.8961 1027.78 42.9474 1027.73 42.9774C1027.67 43.011 1027.66 42.9739 1027.7 42.8414C1027.72 42.7742 1027.74 42.7053 1027.75 42.6859C1027.78 42.6329 1027.8 42.6788 1027.8 42.7866ZM1037.09 44.6049C1037.37 44.9918 1037.52 45.2693 1037.52 45.3877C1037.52 45.4477 1037.43 45.6916 1037.34 45.8789C1037.14 46.2924 1036.89 46.6193 1036.82 46.5716C1036.74 46.5168 1036.74 45.8241 1036.82 44.9706C1036.87 44.5324 1036.89 44.3716 1036.91 44.3716C1036.92 44.3716 1037 44.4776 1037.09 44.6049ZM1035.6 47.001C1035.6 47.0098 1035.58 47.0345 1035.56 47.0593L1035.51 47.1017L1035.48 47.0593C1035.46 47.0381 1035.45 47.0116 1035.46 47.0027C1035.47 46.9833 1035.6 46.9815 1035.6 47.001ZM1024.19 50.77C1024.21 50.7895 1024.15 50.8531 1024.08 50.8973L1024.03 50.9291L1024.01 50.8831C1023.99 50.8283 1023.99 50.7612 1024 50.7435C1024.02 50.7294 1024.17 50.7488 1024.19 50.77Z" fill="#060607"/>
<path d="M1035.48 45.5471C1035.41 45.616 1035.42 45.699 1035.51 45.7432C1035.55 45.7644 1035.57 45.7662 1035.61 45.7503C1035.65 45.7308 1035.69 45.669 1035.69 45.616C1035.69 45.5736 1035.61 45.5029 1035.56 45.5029C1035.54 45.5029 1035.5 45.5223 1035.48 45.5471Z" fill="#060607"/>
<path d="M1028.07 42.448C1027.99 42.5151 1028.04 42.6759 1028.14 42.6759C1028.2 42.6759 1028.27 42.6088 1028.27 42.5434C1028.27 42.4798 1028.21 42.4108 1028.15 42.4108C1028.13 42.4108 1028.1 42.4268 1028.07 42.448Z" fill="#060607"/>
<path d="M1025.18 39.8181C1025.16 39.8305 1025.14 39.8587 1025.13 39.8799C1025.09 39.9559 1025.17 40.0602 1025.26 40.0602C1025.3 40.0602 1025.37 39.9771 1025.37 39.9277C1025.37 39.834 1025.25 39.7633 1025.18 39.8181Z" fill="#060607"/>
<path d="M1025.82 39.9381C1025.79 39.9681 1025.79 39.9911 1025.79 40.053C1025.8 40.1077 1025.8 40.1307 1025.78 40.1307C1025.74 40.1307 1025.7 40.1943 1025.7 40.2509C1025.7 40.3657 1025.83 40.4187 1025.91 40.3339C1025.94 40.2986 1025.95 40.2774 1025.94 40.2191C1025.93 40.1696 1025.94 40.1484 1025.95 40.1484C1025.99 40.1484 1026.03 40.0865 1026.03 40.0282C1026.03 39.9169 1025.9 39.8603 1025.82 39.9381Z" fill="#060607"/>
<path d="M1027.24 39.9473C1027.2 40.0003 1027.2 40.0551 1027.23 40.0993C1027.28 40.1753 1027.4 40.1664 1027.44 40.0851C1027.47 40.0233 1027.46 40.0021 1027.42 39.9473C1027.4 39.9137 1027.37 39.9014 1027.33 39.9014C1027.29 39.9014 1027.27 39.9137 1027.24 39.9473Z" fill="#060607"/>
<path d="M1040.74 40.135C1040.65 40.181 1040.65 40.3082 1040.74 40.3594C1040.8 40.3948 1040.87 40.37 1040.91 40.3064C1040.94 40.2481 1040.91 40.1633 1040.85 40.1333C1040.8 40.1103 1040.79 40.1103 1040.74 40.135Z" fill="#060607"/>
<path d="M1032.14 40.6556C1032.01 40.7051 1032.04 40.9083 1032.18 40.9083C1032.27 40.9083 1032.33 40.7564 1032.27 40.6927C1032.23 40.6592 1032.18 40.6433 1032.14 40.6556Z" fill="#060607"/>
<path d="M1032.42 40.8421C1032.33 40.888 1032.33 41.0152 1032.42 41.0665C1032.47 41.1018 1032.55 41.0771 1032.58 41.0135C1032.61 40.9551 1032.58 40.8703 1032.52 40.8403C1032.47 40.8173 1032.47 40.8173 1032.42 40.8421Z" fill="#060607"/>
<path d="M1021.75 41.1842C1021.71 41.2461 1021.71 41.2991 1021.76 41.3503C1021.82 41.4051 1021.88 41.4016 1021.93 41.3432C1021.98 41.2849 1021.98 41.2443 1021.94 41.1842C1021.91 41.1506 1021.89 41.1383 1021.85 41.1383C1021.81 41.1383 1021.78 41.1506 1021.75 41.1842Z" fill="#060607"/>
<path d="M1040.28 41.3612C1040.2 41.4636 1040.27 41.5785 1040.4 41.5644C1040.43 41.5591 1040.5 41.4795 1040.5 41.4407C1040.5 41.3806 1040.43 41.3152 1040.37 41.3152C1040.33 41.3152 1040.3 41.3276 1040.28 41.3612Z" fill="#060607"/>
<path d="M1039.43 43.1616C1039.4 43.1845 1039.38 43.2252 1039.38 43.2499C1039.38 43.3065 1039.45 43.3824 1039.51 43.3824C1039.6 43.3824 1039.66 43.28 1039.62 43.2004C1039.57 43.1086 1039.49 43.0927 1039.43 43.1616Z" fill="#060607"/>
<path d="M1032.98 43.3383C1032.96 43.3613 1032.94 43.4019 1032.94 43.4267C1032.94 43.4514 1032.96 43.4921 1032.98 43.515C1033 43.5398 1033.04 43.5592 1033.07 43.5592C1033.09 43.5592 1033.13 43.5398 1033.15 43.515C1033.18 43.4921 1033.19 43.4514 1033.19 43.4267C1033.19 43.4019 1033.18 43.3613 1033.15 43.3383C1033.13 43.3136 1033.09 43.2941 1033.07 43.2941C1033.04 43.2941 1033 43.3136 1032.98 43.3383Z" fill="#060607"/>
<path d="M1023.7 45.1019C1023.64 45.1602 1023.65 45.2432 1023.7 45.2892C1023.73 45.3104 1023.76 45.3263 1023.78 45.3263C1023.83 45.3263 1023.9 45.2574 1023.9 45.1955C1023.9 45.0789 1023.77 45.0206 1023.7 45.1019Z" fill="#060607"/>
<path d="M1031.37 45.1948C1031.35 45.2177 1031.33 45.2584 1031.33 45.2831C1031.33 45.3397 1031.4 45.4156 1031.45 45.4156C1031.51 45.4139 1031.58 45.3379 1031.58 45.2655C1031.58 45.2213 1031.5 45.1506 1031.45 45.1506C1031.43 45.1506 1031.39 45.17 1031.37 45.1948Z" fill="#060607"/>
<path d="M1025.28 46.0009C1025.24 46.015 1025.2 46.0787 1025.2 46.1281C1025.2 46.1405 1025.21 46.1723 1025.23 46.1988C1025.26 46.2324 1025.28 46.2448 1025.32 46.2448C1025.36 46.2448 1025.39 46.2324 1025.42 46.1988C1025.46 46.1405 1025.46 46.1034 1025.42 46.0468C1025.38 45.9921 1025.34 45.9797 1025.28 46.0009Z" fill="#060607"/>
<path d="M1024.29 46.1615C1024.24 46.2198 1024.24 46.3028 1024.3 46.3488C1024.32 46.37 1024.36 46.3859 1024.37 46.3859C1024.43 46.3859 1024.49 46.317 1024.49 46.2551C1024.49 46.1385 1024.36 46.0802 1024.29 46.1615Z" fill="#060607"/>
<path d="M1028.75 46.62C1028.71 46.6342 1028.67 46.6978 1028.67 46.7473C1028.67 46.7596 1028.68 46.7914 1028.7 46.8179C1028.73 46.8515 1028.75 46.8639 1028.79 46.8639C1028.83 46.8639 1028.86 46.8515 1028.88 46.8179C1028.93 46.7596 1028.93 46.7225 1028.89 46.666C1028.85 46.6112 1028.81 46.5988 1028.75 46.62Z" fill="#060607"/>
<path d="M1024.32 46.8729C1024.25 46.9419 1024.27 47.0249 1024.36 47.0744C1024.43 47.115 1024.53 47.039 1024.53 46.9419C1024.53 46.8994 1024.45 46.8288 1024.41 46.8288C1024.38 46.8288 1024.34 46.8482 1024.32 46.8729Z" fill="#060607"/>
<path d="M1038.27 47.482C1038.19 47.5615 1038.24 47.6993 1038.35 47.6993C1038.46 47.6993 1038.51 47.565 1038.43 47.4855C1038.38 47.4361 1038.32 47.4361 1038.27 47.482Z" fill="#060607"/>
<path d="M1036.6 47.7565C1036.53 47.8236 1036.55 47.9084 1036.64 47.9579C1036.71 47.9968 1036.81 47.9261 1036.81 47.8413C1036.81 47.7848 1036.74 47.7123 1036.68 47.7123C1036.66 47.7123 1036.62 47.7317 1036.6 47.7565Z" fill="#060607"/>
<path d="M1022.75 47.8351C1022.7 47.8828 1022.7 47.9765 1022.75 48.0206C1022.82 48.0948 1022.95 48.0383 1022.95 47.9305C1022.95 47.8598 1022.9 47.7997 1022.83 47.7997C1022.81 47.7997 1022.77 47.8157 1022.75 47.8351Z" fill="#060607"/>
<path d="M1032.36 48.0123C1032.31 48.06 1032.31 48.1537 1032.36 48.1979C1032.43 48.2721 1032.56 48.2155 1032.56 48.1078C1032.56 48.0371 1032.51 47.977 1032.44 47.977C1032.42 47.977 1032.38 47.9929 1032.36 48.0123Z" fill="#060607"/>
<path d="M1028.11 48.1994C1028.06 48.2772 1028.07 48.3514 1028.16 48.3991C1028.23 48.4397 1028.33 48.3637 1028.33 48.2666C1028.33 48.2524 1028.31 48.2206 1028.29 48.1976C1028.23 48.1376 1028.16 48.1393 1028.11 48.1994Z" fill="#060607"/>
<path d="M1030.18 48.2021C1030.09 48.2356 1030.06 48.354 1030.13 48.4194C1030.21 48.4954 1030.33 48.4371 1030.33 48.324C1030.33 48.2427 1030.25 48.1756 1030.18 48.2021Z" fill="#060607"/>
<path d="M1036.76 48.2883C1036.7 48.366 1036.72 48.4402 1036.81 48.488C1036.88 48.5286 1036.98 48.4526 1036.98 48.3554C1036.98 48.3413 1036.96 48.3095 1036.94 48.2865C1036.88 48.2264 1036.81 48.2282 1036.76 48.2883Z" fill="#060607"/>
<path d="M1034.27 48.73C1034.21 48.806 1034.23 48.8819 1034.31 48.9279C1034.38 48.9685 1034.49 48.8925 1034.49 48.7971C1034.49 48.783 1034.47 48.7512 1034.44 48.7282C1034.39 48.6681 1034.31 48.6699 1034.27 48.73Z" fill="#060607"/>
<path d="M1028.03 48.9081C1027.9 48.9576 1027.93 49.1608 1028.06 49.1608C1028.16 49.1608 1028.22 49.0088 1028.15 48.9452C1028.12 48.9116 1028.06 48.8957 1028.03 48.9081Z" fill="#060607"/>
<path d="M1028.57 49.4265C1028.53 49.4724 1028.53 49.5696 1028.57 49.612C1028.65 49.6862 1028.78 49.6297 1028.78 49.5201C1028.78 49.4459 1028.73 49.3911 1028.66 49.3911C1028.63 49.3911 1028.59 49.407 1028.57 49.4265Z" fill="#060607"/>
<path d="M1030.91 49.4631C1030.82 49.5355 1030.87 49.691 1030.98 49.691C1031.04 49.691 1031.1 49.6239 1031.1 49.555C1031.1 49.4949 1031.04 49.426 1030.98 49.426C1030.97 49.426 1030.93 49.4419 1030.91 49.4631Z" fill="#060607"/>
<path d="M1038.18 49.5132C1038.13 49.5591 1038.13 49.6563 1038.18 49.6987C1038.23 49.7447 1038.31 49.7411 1038.35 49.6917C1038.42 49.6033 1038.37 49.4778 1038.26 49.4778C1038.23 49.4778 1038.2 49.4937 1038.18 49.5132Z" fill="#060607"/>
<path d="M1022.14 49.7795C1022.09 49.8254 1022.09 49.9226 1022.14 49.965C1022.22 50.0392 1022.34 49.9827 1022.34 49.8731C1022.34 49.7989 1022.29 49.7441 1022.22 49.7441C1022.2 49.7441 1022.16 49.76 1022.14 49.7795Z" fill="#060607"/>
<path d="M1025.78 51.557C1025.76 51.5835 1025.75 51.6171 1025.75 51.6347C1025.75 51.6948 1025.81 51.7584 1025.87 51.7584C1025.94 51.7584 1026 51.6948 1026 51.6347C1026 51.5747 1025.94 51.511 1025.87 51.511C1025.83 51.511 1025.81 51.5234 1025.78 51.557Z" fill="#060607"/>
<path d="M1040.16 51.7592C1040.14 51.7786 1040.12 51.8069 1040.12 51.821C1040.12 51.8352 1040.1 51.8546 1040.08 51.8635C1040.03 51.8811 1039.98 51.9465 1039.98 51.9889C1039.98 52.0048 1040 52.0384 1040.02 52.0649C1040.07 52.132 1040.16 52.125 1040.21 52.049C1040.23 52.019 1040.27 51.9783 1040.3 51.9606C1040.37 51.9094 1040.38 51.8122 1040.31 51.7592C1040.25 51.7133 1040.22 51.7115 1040.16 51.7592Z" fill="#060607"/>
<path d="M1036.3 52.2028C1036.27 52.2293 1036.26 52.2558 1036.26 52.2983C1036.26 52.3619 1036.32 52.4308 1036.38 52.4308C1036.44 52.4308 1036.5 52.3619 1036.5 52.2983C1036.5 52.2346 1036.44 52.1657 1036.38 52.1657C1036.36 52.1657 1036.33 52.1816 1036.3 52.2028Z" fill="#060607"/>
<path d="M1038.57 52.2095C1038.55 52.2325 1038.53 52.2731 1038.53 52.2979C1038.53 52.3226 1038.55 52.3633 1038.57 52.3862C1038.68 52.494 1038.83 52.3739 1038.76 52.2378C1038.72 52.153 1038.64 52.1406 1038.57 52.2095Z" fill="#060607"/>
<path d="M1029.61 52.3413C1029.54 52.4173 1029.59 52.5533 1029.7 52.5533C1029.76 52.5533 1029.81 52.4968 1029.81 52.4297C1029.81 52.3625 1029.76 52.306 1029.7 52.306C1029.67 52.306 1029.63 52.3219 1029.61 52.3413Z" fill="#060607"/>
<path d="M1039.21 52.3413C1039.13 52.4173 1039.19 52.5533 1039.29 52.5533C1039.36 52.5533 1039.41 52.4968 1039.41 52.4297C1039.41 52.3625 1039.36 52.306 1039.29 52.306C1039.26 52.306 1039.22 52.3219 1039.21 52.3413Z" fill="#060607"/>
<path d="M1033.08 52.3852C1033.02 52.44 1033.02 52.5072 1033.08 52.5619C1033.16 52.6485 1033.28 52.5955 1033.28 52.4736C1033.28 52.3517 1033.16 52.2986 1033.08 52.3852Z" fill="#060607"/>
<path d="M1038.1 52.4705C1038.07 52.497 1038.06 52.5288 1038.06 52.5624C1038.06 52.619 1038.13 52.6949 1038.18 52.6949C1038.24 52.6949 1038.3 52.626 1038.3 52.5624C1038.3 52.52 1038.29 52.4935 1038.26 52.467C1038.2 52.4193 1038.16 52.4211 1038.1 52.4705Z" fill="#060607"/>
<ellipse cx="1041.46" cy="57.1886" rx="4.0897" ry="3.81251" fill="#060607"/>
<ellipse cx="1025.11" cy="57.1886" rx="4.0897" ry="3.81251" fill="#060607"/>
</svg>
